<svg width="400" height="400" viewBox="0 0 400 400" fill="none" xmlns="http://www.w3.org/2000/svg">
<path d="M285.323 237.906C287.587 236.287 289.961 234.826 292.427 233.534C305.214 226.964 317.188 220.219 327.175 209.868C339.005 197.607 347.297 181.049 347.298 163.677C347.3 146.304 337.946 128.502 322.554 121.299C303.398 112.332 281.485 120.859 260.642 123.008C233.772 125.779 207.058 117.6 180.543 111.953C154.029 106.306 125.211 103.432 101.122 115.864C81.7335 125.883 67.456 145.69 63.7236 167.764C59.9911 189.838 66.8949 213.648 81.8064 230.132C103.317 253.914 137.155 260.319 168.532 261.827C191.651 262.946 214.823 262.143 237.809 259.426C248.166 258.201 257.861 256.093 267.008 250.942C273.595 247.238 279.213 242.192 285.323 237.906Z" stroke="#629A21" stroke-width="2.6" stroke-miterlimit="10"/>
<path d="M142.942 259.707C126.79 257.796 110.537 253.893 96.2662 245.349C81.996 236.806 69.8132 223.144 65.0589 206.44C60.3046 189.736 64.0625 170.045 76.2908 158.906C91.5155 145.044 114.072 147.248 133.896 143.605C159.453 138.92 181.87 123.75 204.796 111.066C227.723 98.3823 253.531 87.746 279.162 93.1142C299.799 97.4369 318.392 112.581 327.873 132.786C337.354 152.991 337.497 177.78 328.237 197.699C314.889 226.45 285.412 241.865 256.871 251.905C235.859 259.299 214.248 264.866 192.278 268.545C184.214 269.893 175.984 270.986 167.869 269.709C159.754 268.432 151.635 264.507 146.609 257.479L142.942 259.707Z" fill="#477414"/>
<path d="M18 291.918H382.169" stroke="#102048" stroke-width="5" stroke-miterlimit="10"/>
<path d="M318.561 74.8496H211.088V174.126L224.294 162.741H318.561V74.8496Z" fill="#4B5C66"/>
<path d="M250.446 127.617H233.541V159.657H250.446V127.617Z" fill="#D9D7D7"/>
<path d="M250.444 127.619H242.506V159.659H250.444V127.619Z" fill="#C2BDBD"/>
<path d="M238.624 130.645H237.082V134.357H238.624V130.645Z" fill="#F3F3F3"/>
<path d="M238.624 145.037H237.082V148.749H238.624V145.037Z" fill="#F3F3F3"/>
<path d="M238.053 135.843C240.545 135.843 242.565 135.817 242.565 135.786C242.565 135.754 240.545 135.729 238.053 135.729C235.561 135.729 233.541 135.754 233.541 135.786C233.541 135.817 235.561 135.843 238.053 135.843Z" fill="#F3F3F3"/>
<path d="M238.624 137.898H237.082V141.611H238.624V137.898Z" fill="#F3F3F3"/>
<path d="M238.053 143.095C240.545 143.095 242.565 143.069 242.565 143.038C242.565 143.006 240.545 142.98 238.053 142.98C235.561 142.98 233.541 143.006 233.541 143.038C233.541 143.069 235.561 143.095 238.053 143.095Z" fill="#F3F3F3"/>
<path d="M245.763 130.645H244.221V134.357H245.763V130.645Z" fill="#D9D7D7"/>
<path d="M249.017 130.645H247.475V134.357H249.017V130.645Z" fill="#D9D7D7"/>
<path d="M245.763 137.613H244.221V141.326H245.763V137.613Z" fill="#D9D7D7"/>
<path d="M249.017 137.613H247.475V141.326H249.017V137.613Z" fill="#D9D7D7"/>
<path d="M245.763 144.637H244.221V148.349H245.763V144.637Z" fill="#D9D7D7"/>
<path d="M249.017 144.637H247.475V148.349H249.017V144.637Z" fill="#D9D7D7"/>
<path d="M251.703 126.818H232.285V127.618H251.703V126.818Z" fill="#D9D7D7"/>
<path d="M242.107 127.79C246.775 127.79 250.56 127.764 250.56 127.733C250.56 127.701 246.775 127.676 242.107 127.676C237.439 127.676 233.654 127.701 233.654 127.733C233.654 127.764 237.439 127.79 242.107 127.79Z" fill="#C2BDBD"/>
<path d="M237.596 139.611H222.461V159.544H237.596V139.611Z" fill="#C2BDBD"/>
<path d="M237.596 139.611H230.514V159.544H237.596V139.611Z" fill="#D9D7D7"/>
<path d="M227.031 142.354H225.66V145.666H227.031V142.354Z" fill="#F3F3F3"/>
<path d="M227.031 155.262H225.66V158.574H227.031V155.262Z" fill="#F5F5F5"/>
<path d="M226.459 146.979C228.667 146.979 230.457 146.954 230.457 146.922C230.457 146.891 228.667 146.865 226.459 146.865C224.251 146.865 222.461 146.891 222.461 146.922C222.461 146.954 224.251 146.979 226.459 146.979Z" fill="#F3F3F3"/>
<path d="M227.031 148.863H225.66V152.176H227.031V148.863Z" fill="#F3F3F3"/>
<path d="M226.459 153.489C228.667 153.489 230.457 153.464 230.457 153.432C230.457 153.401 228.667 153.375 226.459 153.375C224.251 153.375 222.461 153.401 222.461 153.432C222.461 153.464 224.251 153.489 226.459 153.489Z" fill="#F5F5F5"/>
<path d="M233.369 142.354H231.998V145.666H233.369V142.354Z" fill="#F3F3F3"/>
<path d="M236.339 142.354H234.969V145.666H236.339V142.354Z" fill="#F3F3F3"/>
<path d="M233.369 148.578H231.998V151.891H233.369V148.578Z" fill="#F3F3F3"/>
<path d="M236.339 148.578H234.969V151.891H236.339V148.578Z" fill="#F3F3F3"/>
<path d="M233.369 154.861H231.998V158.174H233.369V154.861Z" fill="#F5F5F5"/>
<path d="M236.339 154.861H234.969V158.174H236.339V154.861Z" fill="#F5F5F5"/>
<path d="M238.681 138.926H221.318V139.668H238.681V138.926Z" fill="#D9D7D7"/>
<path d="M230.113 139.782C234.277 139.782 237.652 139.757 237.652 139.725C237.652 139.694 234.277 139.668 230.113 139.668C225.949 139.668 222.574 139.694 222.574 139.725C222.574 139.757 225.949 139.782 230.113 139.782Z" fill="#C2BDBD"/>
<path d="M309.727 115.168H285.512V161.086H309.727V115.168Z" fill="#D9D7D7"/>
<path d="M309.729 115.168H298.363V161.086H309.729V115.168Z" fill="#C2BDBD"/>
<path d="M292.766 119.508H290.596V124.819H292.766V119.508Z" fill="#F3F3F3"/>
<path d="M292.766 140.184H290.596V145.495H292.766V140.184Z" fill="#F3F3F3"/>
<path d="M291.965 126.933C295.53 126.933 298.419 126.907 298.419 126.875C298.419 126.844 295.53 126.818 291.965 126.818C288.401 126.818 285.512 126.844 285.512 126.875C285.512 126.907 288.401 126.933 291.965 126.933Z" fill="#F3F3F3"/>
<path d="M292.766 129.902H290.596V135.214H292.766V129.902Z" fill="#F3F3F3"/>
<path d="M291.965 137.327C295.53 137.327 298.419 137.302 298.419 137.27C298.419 137.238 295.53 137.213 291.965 137.213C288.401 137.213 285.512 137.238 285.512 137.27C285.512 137.302 288.401 137.327 291.965 137.327Z" fill="#F3F3F3"/>
<path d="M302.932 119.508H300.762V124.819H302.932V119.508Z" fill="#D9D7D7"/>
<path d="M307.672 119.508H305.502V124.819H307.672V119.508Z" fill="#D9D7D7"/>
<path d="M302.932 129.561H300.762V134.872H302.932V129.561Z" fill="#D9D7D7"/>
<path d="M307.672 129.561H305.502V134.872H307.672V129.561Z" fill="#D9D7D7"/>
<path d="M302.932 139.555H300.762V144.866H302.932V139.555Z" fill="#D9D7D7"/>
<path d="M307.672 139.555H305.502V144.866H307.672V139.555Z" fill="#D9D7D7"/>
<path d="M311.556 114.082H283.742V115.224H311.556V114.082Z" fill="#D9D7D7"/>
<path d="M297.848 115.395C304.503 115.395 309.898 115.37 309.898 115.338C309.898 115.307 304.503 115.281 297.848 115.281C291.192 115.281 285.797 115.307 285.797 115.338C285.797 115.37 291.192 115.395 297.848 115.395Z" fill="#C2BDBD"/>
<path d="M291.282 132.416H269.637V160.972H291.282V132.416Z" fill="#C2BDBD"/>
<path d="M291.281 132.416H281.115V160.972H291.281V132.416Z" fill="#D9D7D7"/>
<path d="M276.09 136.299H274.148V141.039H276.09V136.299Z" fill="#F3F3F3"/>
<path d="M276.09 154.805H274.148V159.545H276.09V154.805Z" fill="#F5F5F5"/>
<path d="M275.405 142.982C278.591 142.982 281.173 142.931 281.173 142.868C281.173 142.805 278.591 142.754 275.405 142.754C272.219 142.754 269.637 142.805 269.637 142.868C269.637 142.931 272.219 142.982 275.405 142.982Z" fill="#F3F3F3"/>
<path d="M276.09 145.609H274.148V150.35H276.09V145.609Z" fill="#F3F3F3"/>
<path d="M275.405 152.291C278.591 152.291 281.173 152.24 281.173 152.177C281.173 152.114 278.591 152.062 275.405 152.062C272.219 152.062 269.637 152.114 269.637 152.177C269.637 152.24 272.219 152.291 275.405 152.291Z" fill="#F5F5F5"/>
<path d="M285.227 136.299H283.285V141.039H285.227V136.299Z" fill="#F3F3F3"/>
<path d="M289.454 136.301H287.512V141.041H289.454V136.301Z" fill="#F3F3F3"/>
<path d="M285.227 145.266H283.285V150.006H285.227V145.266Z" fill="#F3F3F3"/>
<path d="M289.454 145.266H287.512V150.006H289.454V145.266Z" fill="#F3F3F3"/>
<path d="M285.227 154.232H283.285V158.973H285.227V154.232Z" fill="#F5F5F5"/>
<path d="M289.454 154.232H287.512V158.973H289.454V154.232Z" fill="#F5F5F5"/>
<path d="M292.936 131.445H268.035V132.473H292.936V131.445Z" fill="#D9D7D7"/>
<path d="M280.658 132.644C286.619 132.644 291.452 132.593 291.452 132.53C291.452 132.467 286.619 132.416 280.658 132.416C274.696 132.416 269.863 132.467 269.863 132.53C269.863 132.593 274.696 132.644 280.658 132.644Z" fill="#C2BDBD"/>
<path d="M316.353 161.544C307.043 156.918 296.82 154.348 286.369 154.005C280.657 153.834 257.241 156.918 237.538 159.316C236.738 159.431 215.435 161.144 212.637 161.201L316.353 161.544Z" fill="#76B827"/>
<path d="M210.178 160.464C210.178 160.464 224.402 152.063 239.08 151.492C243.992 151.263 264.152 155.261 281.115 158.402C281.857 158.517 299.619 161.715 302.018 161.772H224.75L210.178 175.037V160.464Z" fill="#7FC829"/>
<path d="M319.437 162.285L223.811 162.97L210.178 174.125L210.581 75.7598H319.494V162.285H319.437ZM210.806 173.44L223.84 162.285L318.866 161.6V76.388H211.209L210.806 173.44Z" fill="#263238"/>
<path d="M239.823 92.1525C239.823 85.2419 232.57 80.8442 225.145 84.3281C223.489 85.1277 222.118 86.4413 221.261 88.0975C219.377 91.6956 220.233 95.8648 221.89 99.2915L227.658 113.912C228.172 115.169 229.6 115.854 230.856 115.34C231.485 115.112 231.999 114.598 232.284 113.912L237.938 99.2344C239.937 94.6654 239.823 92.1525 239.823 92.1525ZM232.855 98.2064C227.886 101.119 222.803 95.7506 225.545 90.4391C225.888 89.7538 226.459 89.1826 227.144 88.7829C232.113 85.8701 237.196 91.2387 234.454 96.5501C234.112 97.1784 233.541 97.7495 232.855 98.2064Z" fill="#FB6A4F"/>
<path d="M279.916 126.304C284.314 128.246 286.256 133.329 284.371 137.726C283.001 140.868 279.859 142.924 276.433 142.867H256.615C251.817 142.867 247.934 139.04 247.934 134.243C247.934 130.816 249.933 127.675 253.074 126.304C249.761 122.877 249.761 117.452 253.188 114.082C254.673 112.597 256.672 111.74 258.728 111.626C256.558 107.343 258.271 102.145 262.497 99.9752C266.781 97.8049 271.978 99.5183 274.148 103.745C275.405 106.2 275.405 109.113 274.148 111.569C278.888 111.797 282.601 115.852 282.372 120.593C282.258 122.82 281.401 124.819 279.916 126.304Z" fill="#7FC829"/>
<path d="M263.524 157.544C263.353 157.544 263.238 157.43 263.238 157.259V122.192C263.238 122.02 263.353 121.906 263.524 121.906C263.695 121.906 263.809 122.02 263.809 122.192V157.259C263.809 157.43 263.695 157.544 263.524 157.544Z" fill="#263238"/>
<path d="M263.467 134.929C263.41 134.929 263.353 134.929 263.296 134.872C263.182 134.757 263.182 134.586 263.239 134.472L271.177 124.991C271.292 124.877 271.463 124.877 271.577 124.934C271.691 125.048 271.691 125.22 271.634 125.334L263.696 134.814C263.638 134.872 263.524 134.929 263.467 134.929Z" fill="#263238"/>
<path d="M263.638 134.928C263.58 134.928 263.466 134.871 263.409 134.814L255.47 125.333C255.356 125.219 255.413 125.048 255.528 124.933C255.642 124.819 255.813 124.876 255.927 124.99L263.866 134.471C263.98 134.585 263.923 134.757 263.809 134.871C263.752 134.928 263.695 134.928 263.638 134.928Z" fill="#263238"/>
<path d="M273.52 143.152H273.463C272.15 143.152 270.893 142.867 269.694 142.295C269.579 142.238 269.465 142.067 269.579 141.896C269.637 141.724 269.808 141.667 269.979 141.781C271.064 142.295 272.321 142.581 273.52 142.581H273.577C275.805 142.581 277.861 141.724 279.46 140.182C281.059 138.583 281.916 136.527 281.916 134.3C281.916 130.987 279.974 127.96 276.947 126.59C276.833 126.532 276.776 126.475 276.776 126.361C276.776 126.247 276.776 126.19 276.833 126.133C278.375 124.534 279.231 122.42 279.231 120.193C279.231 117.966 278.318 115.852 276.719 114.31C275.234 112.883 273.292 112.026 271.293 111.969C271.179 111.969 271.122 111.912 271.064 111.855C271.007 111.797 271.007 111.683 271.064 111.569C272.092 109.57 272.264 107.286 271.578 105.172C270.893 103.059 269.408 101.346 267.409 100.318C263.297 98.2047 258.271 99.861 256.158 103.973C254.959 106.372 254.959 109.17 256.158 111.569C256.215 111.683 256.215 111.74 256.158 111.855C256.101 111.912 256.044 111.969 255.93 112.026C251.361 112.311 247.82 116.252 248.105 120.821C248.219 122.82 249.076 124.762 250.504 126.19C250.561 126.247 250.618 126.361 250.561 126.418C250.561 126.532 250.504 126.59 250.39 126.647C248.334 127.56 246.792 129.16 245.935 131.273C245.135 133.329 245.193 135.613 246.049 137.669C247.363 140.696 250.39 142.638 253.702 142.638H253.759C254.959 142.638 256.215 142.353 257.3 141.839C257.415 141.781 257.586 141.839 257.7 141.953C257.814 142.067 257.7 142.238 257.586 142.353C256.387 142.924 255.073 143.209 253.816 143.209C253.816 143.209 253.816 143.209 253.759 143.209C250.218 143.209 247.02 141.096 245.592 137.898C243.651 133.5 245.535 128.417 249.819 126.304C248.448 124.819 247.648 122.877 247.534 120.878C247.249 116.138 250.79 111.969 255.473 111.512C254.388 109.056 254.445 106.2 255.644 103.802C256.729 101.689 258.557 100.089 260.841 99.347C263.126 98.6045 265.525 98.7758 267.638 99.861C269.751 100.946 271.35 102.774 272.092 105.058C272.778 107.171 272.664 109.456 271.75 111.512C273.806 111.683 275.69 112.597 277.175 114.025C278.889 115.681 279.86 117.908 279.86 120.307C279.86 122.535 279.06 124.705 277.575 126.361C280.602 127.846 282.544 130.987 282.544 134.414C282.544 136.813 281.573 139.04 279.917 140.696C278.089 142.238 275.862 143.152 273.52 143.152Z" fill="#263238"/>
<path d="M210.805 74.9141V162.381V174.066L224.381 162.381H318.894V74.9141H210.805Z" stroke="#7B7B7B" stroke-width="3.5" stroke-miterlimit="10"/>
<path opacity="0.15" d="M62.3246 312.098C71.8819 312.098 79.6296 310.623 79.6296 308.803C79.6296 306.983 71.8819 305.508 62.3246 305.508C52.7673 305.508 45.0195 306.983 45.0195 308.803C45.0195 310.623 52.7673 312.098 62.3246 312.098Z" fill="#1F3C88"/>
<path d="M54.3857 302.388C50.6424 302.388 46.4746 296.907 46.4746 293.193C46.4746 289.417 49.4839 286.346 53.1835 286.346C56.8831 286.346 59.896 289.417 59.896 293.193C59.896 296.749 58.3987 302.388 54.3857 302.388ZM53.1835 288.623C50.7389 288.623 48.7516 290.672 48.7516 293.193C48.7516 295.973 52.1215 300.115 54.3857 300.115C56.4678 300.115 57.6172 296.024 57.6172 293.193C57.6172 290.672 55.6281 288.623 53.1835 288.623Z" fill="#97B0BC"/>
<path d="M67.3309 308.313H57.478C56.6888 308.313 55.9284 308.016 55.3477 307.482C54.767 306.948 54.4084 306.214 54.343 305.428L52.3047 280.871H72.9123L70.4604 305.479C70.3832 306.255 70.0201 306.975 69.4418 307.499C68.8635 308.023 68.1112 308.313 67.3309 308.313Z" fill="#97B0BC"/>
<path d="M54.6957 251.43C54.0053 253.74 53.6975 256.119 54.0891 258.407C54.2838 259.547 54.6089 260.661 55.0582 261.728C55.5299 262.794 56.0975 263.815 56.7541 264.779C57.4263 265.751 58.1645 266.675 58.9637 267.546C59.1567 267.755 59.3662 268.014 59.5775 268.274C59.7888 268.535 60.0038 268.772 60.1969 269.039L60.7433 269.881C60.9155 270.173 61.0665 270.478 61.1951 270.792C61.34 271.104 61.454 271.429 61.5357 271.763C61.6335 272.101 61.6946 272.448 61.7179 272.799C61.7398 272.975 61.7398 273.153 61.7179 273.329L61.6815 273.859C61.656 274.041 61.6086 274.205 61.5703 274.378C61.5381 274.551 61.488 274.72 61.421 274.883L61.2224 275.366C61.1404 275.519 61.053 275.666 60.9674 275.814C60.884 275.962 60.7883 276.104 60.6814 276.236C60.5848 276.375 60.4782 276.505 60.3626 276.628C59.9212 277.128 59.3983 277.55 58.8161 277.876L58.4372 277.273C59.2788 276.532 59.971 275.533 60.2042 274.504C60.2432 274.379 60.2671 274.249 60.2752 274.118C60.2879 273.987 60.3153 273.859 60.3189 273.73L60.3025 273.338C60.3063 273.208 60.2909 273.078 60.257 272.952C60.2204 272.692 60.1556 272.436 60.0639 272.189C59.984 271.936 59.8784 271.692 59.7488 271.46C59.6236 271.216 59.4856 270.978 59.3353 270.748L58.8471 270.065C58.6649 269.845 58.4645 269.639 58.2769 269.424L57.6722 268.766C57.2404 268.302 56.8087 267.837 56.4134 267.336C56.0036 266.845 55.6187 266.334 55.2604 265.804C54.5393 264.733 53.9336 263.589 53.4534 262.391C52.9846 261.176 52.6819 259.903 52.5535 258.607C52.2876 256.006 52.9051 253.397 54.0454 251.166L54.6957 251.43Z" fill="#D3DFFF"/>
<path d="M63.6466 250.727C64.9787 251.805 65.9539 253.261 66.4446 254.903C66.6855 255.738 66.8082 256.603 66.8089 257.472C66.8023 258.33 66.7022 259.185 66.5101 260.022C66.3122 260.841 66.0459 261.641 65.7141 262.416L65.4992 262.944C65.4354 263.11 65.3571 263.274 65.3024 263.439L65.1804 263.929C65.1294 264.097 65.1239 264.255 65.0875 264.419C65.0615 264.578 65.0505 264.738 65.0547 264.898C65.0522 265.054 65.0656 265.209 65.0948 265.361C65.1185 265.512 65.155 265.661 65.2041 265.806C65.2636 265.947 65.3337 266.084 65.4136 266.215C65.7305 266.762 66.3371 267.21 66.9728 267.491L66.8326 268.188C65.9074 268.099 65.0466 267.676 64.4117 266.997C64.251 266.813 64.106 266.615 63.9782 266.407C63.8608 266.19 63.7621 265.964 63.6831 265.731C63.6062 265.5 63.5543 265.261 63.5282 265.019C63.4936 264.784 63.4814 264.546 63.4918 264.308C63.4939 264.076 63.5128 263.845 63.5483 263.616L63.6831 262.953C63.7395 262.736 63.816 262.534 63.8816 262.323C63.9472 262.111 64.0182 261.896 64.0838 261.733C64.3551 261.034 64.5808 260.319 64.7596 259.592C64.9294 258.879 65.0378 258.153 65.0838 257.421C65.115 256.698 65.0673 255.973 64.9418 255.26C64.6904 253.829 64.0182 252.479 63.1348 251.2L63.6466 250.727Z" fill="#D3DFFF"/>
<path opacity="0.15" d="M325.202 313.705C344.316 313.705 359.812 311.411 359.812 308.581C359.812 305.751 344.316 303.457 325.202 303.457C306.087 303.457 290.592 305.751 290.592 308.581C290.592 311.411 306.087 313.705 325.202 313.705Z" fill="#1F3C88"/>
<path d="M327.407 225.131H322.549V272.643H327.407V225.131Z" fill="#A55846"/>
<path d="M326.191 221.938C326.141 224.681 325.923 227.418 325.541 230.135C325.335 231.574 325.162 232.405 325.162 232.405C311.901 228.1 305.816 219.881 303.284 211.588C303.048 210.832 302.847 210.072 302.674 209.314C299.996 197.776 303.585 186.781 303.585 186.781C309.665 188.056 314.15 190.703 317.462 194.113C318.03 194.698 318.555 195.297 319.056 195.922C325.167 203.589 326.337 214.151 326.191 221.938Z" fill="#7FC829"/>
<path d="M343.383 198.967C343.119 208.192 339.53 218.939 328.4 229.258C327.548 230.051 326.646 230.845 325.699 231.626C325.599 231.712 325.499 231.794 325.398 231.876C325.398 231.876 323.555 229.173 321.655 224.772C321.628 224.706 321.6 224.648 321.578 224.59C320.844 222.877 320.2 221.127 319.651 219.347C319.14 217.699 318.714 216.026 318.376 214.334C317.037 207.545 317.034 199.492 320.744 191.522C323.522 185.52 328.395 179.569 336.392 174.227C336.383 174.228 343.793 184.812 343.383 198.967Z" fill="#7FC829"/>
<path opacity="0.5" d="M328.397 229.26C327.544 230.052 326.643 230.847 325.696 231.628C325.595 231.714 325.495 231.796 325.395 231.878C325.395 231.878 323.552 229.174 321.652 224.773C321.626 224.713 321.601 224.646 321.575 224.591C321.415 224.216 321.253 223.828 321.094 223.429C321.032 223.276 320.972 223.116 320.912 222.961C320.808 222.693 320.703 222.427 320.601 222.15C320.519 221.934 320.44 221.706 320.362 221.482C320.284 221.258 320.193 221.019 320.112 220.78C319.955 220.314 319.8 219.837 319.648 219.349C319.136 217.701 318.711 216.028 318.373 214.336C317.28 208.798 317.076 202.419 319.052 195.938C318.555 195.313 318.027 194.714 317.458 194.129C316.183 197.499 314.108 205.221 313.861 212.184C310.795 210.984 307.11 209.999 302.671 209.33C302.853 210.088 303.035 210.847 303.281 211.603C301.391 211.152 299.344 210.76 297.139 210.428C298.882 216.376 305.882 235.32 324.129 235.603C324.594 235.612 325.065 235.608 325.541 235.59C326.293 235.566 327.062 235.506 327.854 235.408C327.851 235.408 328.676 232.827 328.397 229.26Z" fill="#507B06"/>
<path d="M325.666 234.588C325.669 234.603 325.669 234.618 325.666 234.633C325.666 234.748 325.648 234.857 325.635 234.961C325.627 235.011 325.621 235.062 325.617 235.112C325.608 235.198 325.599 235.28 325.584 235.362C325.553 235.613 325.517 235.845 325.481 236.069C325.457 236.215 325.43 236.355 325.402 236.493C325.28 237.156 325.108 237.809 324.889 238.446C323.646 238.527 322.4 238.527 321.158 238.446C299.55 236.989 295.109 210.137 295.109 210.137C295.805 210.224 296.485 210.32 297.15 210.425C299.357 210.752 301.405 211.144 303.292 211.599C311.103 213.457 316.271 216.257 319.659 219.354C320.613 220.22 321.482 221.176 322.251 222.21C323.997 224.538 325.131 227.267 325.548 230.147C325.625 230.659 325.676 231.154 325.706 231.637C325.77 232.62 325.757 233.607 325.666 234.588Z" fill="#7FC829"/>
<path opacity="0.38" d="M343.382 198.969C343.237 204.06 342.074 209.07 339.961 213.704C337.644 218.837 333.964 224.101 328.399 229.26C328.375 229.278 328.354 229.302 328.33 229.32C328.002 229.624 327.665 229.93 327.319 230.231C327.219 230.322 327.119 230.413 327.015 230.504C326.587 230.879 326.15 231.256 325.698 231.63C325.667 231.147 325.616 230.652 325.539 230.14C325.122 227.26 323.988 224.531 322.242 222.203C321.473 221.169 320.605 220.213 319.65 219.347C319.139 217.699 318.713 216.026 318.375 214.334C319.528 215.001 320.624 215.76 321.654 216.605C322.295 217.136 322.903 217.704 323.475 218.309C326.335 210.867 332.07 203.244 343.382 198.969Z" fill="#507B06"/>
<path opacity="0.2" d="M325.665 234.589C325.668 234.604 325.668 234.619 325.665 234.634C325.665 234.749 325.647 234.858 325.634 234.962C325.626 235.012 325.62 235.063 325.616 235.113C325.607 235.199 325.598 235.281 325.583 235.363C325.552 235.614 325.516 235.845 325.48 236.07C325.452 236.215 325.429 236.356 325.401 236.494C325.279 237.157 325.107 237.809 324.888 238.447C323.645 238.528 322.399 238.528 321.157 238.447C320.956 236.957 320.379 231.414 321.667 224.785C321.831 223.941 322.031 223.082 322.255 222.211C324.001 224.539 325.135 227.268 325.552 230.148C325.629 230.659 325.68 231.155 325.711 231.638C325.773 232.621 325.757 233.608 325.665 234.589Z" fill="#27481F"/>
<path d="M346.455 266.57L341.114 301.545C340.825 303.431 339.87 305.152 338.422 306.395C336.974 307.638 335.129 308.321 333.221 308.321H317.191C315.283 308.319 313.44 307.634 311.993 306.392C310.546 305.149 309.59 303.43 309.3 301.545L303.957 266.57H346.455Z" fill="#FBC343"/>
<path d="M324.313 238.488C324.313 238.488 318.461 203.778 355.685 198.777C355.685 198.772 358.02 236.81 324.313 238.488Z" fill="#7FC829"/>
<path opacity="0.4" d="M346.454 266.57L341.114 301.545C340.825 303.431 339.87 305.152 338.422 306.395C336.974 307.638 335.129 308.321 333.221 308.321H317.191C315.51 308.321 313.872 307.791 312.511 306.805C311.149 305.82 310.134 304.429 309.609 302.833C330.434 299.495 336.022 278.059 337.146 266.583L346.454 266.57Z" fill="#C89B35"/>
<path opacity="0.15" d="M269.062 309.002C269.062 304.732 231.017 301.27 184.082 301.27C137.147 301.27 99.1016 304.731 99.1016 309.002C99.1016 312.463 124.132 315.4 158.633 316.383C162.391 322.547 156.119 329.919 151.312 332.579C142.872 333 136.814 333.94 137.768 335.941C142.279 345.414 180.614 335.335 180.614 335.335C180.614 335.335 195.604 336.268 195.604 334.841C195.604 334.185 192.964 333.586 188.621 333.131L188.942 333.113L172.759 316.667C176.464 316.713 180.238 316.737 184.082 316.737C231.017 316.737 269.062 313.274 269.062 309.002Z" fill="#1F3C88"/>
<path d="M276.571 252.199C275.45 270.682 266.133 289.153 250.859 299.318C232.652 311.437 207.196 308.755 186.462 310.298C168.538 311.633 150.477 312.779 132.544 310.872C117.853 309.305 103.034 303.486 96.0173 289.223C88.986 274.927 88.2245 255.933 95.2559 241.464C97.488 236.913 100.451 232.758 104.027 229.165C104.601 228.577 105.198 228.003 105.803 227.444C106.213 227.065 106.629 226.693 107.051 226.329C107.697 225.768 108.362 225.221 109.036 224.689C109.26 224.507 109.482 224.343 109.71 224.172C109.938 224.001 110.162 223.83 110.39 223.66C110.617 223.491 110.845 223.323 111.076 223.159L111.595 222.795C111.883 222.588 112.175 222.388 112.47 222.194C115.087 220.432 117.837 218.876 120.694 217.54C123.444 216.243 126.28 215.139 129.183 214.237C138.615 211.31 148.464 210.272 158.197 208.993C178.848 206.282 199.875 205.35 220.69 205.371C237.676 205.371 256.803 207.922 268.16 222.494C274.576 230.726 277.212 241.67 276.571 252.199Z" fill="#FB6A4F"/>
<path d="M241.601 220.98C241.601 220.98 245.972 216.865 248.304 214.482C250.636 212.099 245.559 212.023 243.063 214.99C240.568 217.958 241.601 220.98 241.601 220.98Z" fill="#F9B384"/>
<path d="M120.697 217.533C117.839 218.87 115.089 220.426 112.472 222.187C112.177 222.383 111.886 222.583 111.598 222.788L111.079 223.153C110.847 223.317 110.62 223.486 110.392 223.654C110.164 223.821 109.937 223.991 109.713 224.166C109.489 224.34 109.263 224.51 109.039 224.683C108.374 225.213 107.723 225.754 107.08 226.31L107.053 226.324C106.631 226.688 106.215 227.06 105.805 227.439C105.201 227.998 104.603 228.572 104.029 229.16C104.045 229.407 104.139 229.642 104.298 229.831C104.456 230.021 104.671 230.154 104.911 230.213C108.328 230.905 110.041 234.166 112.795 236.02C114.84 237.396 117.256 237.773 119.569 236.984C117.079 242.267 115.706 247.493 116.78 253.397C117.111 255.183 117.672 256.919 118.449 258.561C115.248 256.193 112.164 251.092 110.897 245.926C110.81 245.574 110.587 245.271 110.277 245.083C109.967 244.896 109.596 244.839 109.244 244.925C108.892 245.012 108.588 245.234 108.401 245.544C108.213 245.855 108.156 246.226 108.243 246.578C109.813 252.972 113.809 259.116 117.963 261.515C118.884 262.056 119.895 262.426 120.948 262.608C121.77 263.666 122.691 264.642 123.699 265.523L129.837 267.239L134.847 234.906L120.697 217.533Z" fill="#B35341"/>
<path d="M138.491 239.247C125.798 234.304 116.987 229.046 111.87 225.547C110.248 224.433 108.979 222.878 108.214 221.064C107.45 219.251 107.221 217.256 107.556 215.317L114.101 177.166C114.43 175.232 115.238 173.41 116.45 171.867C117.662 170.325 119.24 169.109 121.042 168.331C130.545 164.247 140.55 161.448 150.793 160.009C154.626 159.776 158.471 159.852 162.291 160.236C166.534 160.655 176.243 163.515 182.414 165.433C184.136 165.967 185.714 166.884 187.031 168.114C188.349 169.344 189.371 170.856 190.021 172.537C192.61 179.208 196.814 190.471 198.155 196.559C202.785 217.583 202.025 216.028 202.025 216.028L206.807 248.361L156.031 251.206L143.052 245.286L138.491 239.247Z" fill="#708CD5"/>
<path d="M169.921 123.689C169.921 123.689 165.423 114.468 153.47 118.68C144.817 116.802 138.214 127.048 144.59 140.994L156.599 143.785L169.921 123.689Z" fill="#263238"/>
<path d="M163.544 149.762V166.074C163.544 167.91 162.815 169.67 161.517 170.969C160.219 172.267 158.458 172.996 156.622 172.996C154.138 172.996 151.755 172.008 149.998 170.252C148.242 168.495 147.254 166.112 147.254 163.628V149.762H163.544Z" fill="#FFBE9D"/>
<path d="M163.545 156.528V165.427C156.289 165.463 151.477 156.082 151.477 156.082L163.545 156.528Z" fill="#EB996E"/>
<path d="M170.714 147.713C170.276 149.972 169.652 152.284 168.755 154.32C167.189 157.894 164.797 160.617 161.145 160.696C152.598 160.878 146.004 149.196 146.004 149.196L147.37 133.257L153.859 125.971L171.741 137.011C171.717 140.602 171.373 144.183 170.714 147.713Z" fill="#FFBE9D"/>
<path d="M147.088 144.525C147.088 144.525 148.851 137.351 154.999 132.684C154.999 132.684 163.937 144.353 173.386 138.717C182.835 133.081 178.738 121.983 169.914 123.689L159.781 122.553L147.088 126.593L144.924 136.555L147.088 144.525Z" fill="#263238"/>
<path opacity="0.4" d="M156.057 227.19C147.446 208.584 136.591 217.465 133.936 210.634C130.212 201.061 130.919 190.232 130.899 186.953L125.713 216.155C125.713 216.155 137.293 217.248 141.573 224.228L156.057 227.19Z" fill="#1F3C88"/>
<path d="M131.165 186.454C130.843 188.953 130.462 191.441 130.072 193.922C129.683 196.403 129.24 198.886 128.828 201.369C128.417 203.852 127.941 206.322 127.455 208.792L126.713 212.493C126.446 213.725 126.196 214.958 125.906 216.184L125.531 216.118C125.681 214.867 125.87 213.623 126.039 212.375L126.613 208.643C127.004 206.158 127.424 203.677 127.872 201.2C128.336 198.726 128.765 196.247 129.258 193.779C129.752 191.31 130.238 188.842 130.792 186.385L131.165 186.454Z" fill="#1F3C88"/>
<path d="M181.472 181.836C182.161 185.08 182.799 188.334 183.421 191.59C184.044 194.847 184.627 198.11 185.232 201.371C185.837 204.631 186.376 207.901 186.926 211.171L187.72 216.089C187.966 217.728 188.229 219.368 188.449 221.007L188.099 221.069C187.735 219.45 187.425 217.823 187.088 216.198L186.137 211.316C185.524 208.059 184.925 204.799 184.34 201.534C183.78 198.267 183.188 195.006 182.658 191.733C182.128 188.459 181.591 185.188 181.117 181.905L181.472 181.836Z" fill="#1F3C88"/>
<path opacity="0.4" d="M183.877 196.895C184.484 202.815 183.573 233.477 169.305 233.933L169.456 240.612L191.921 239.246L183.877 196.895Z" fill="#1F3C88"/>
<path d="M154.544 233.1C164.677 228.774 166.613 228.934 167.978 229.002C172.646 229.229 179.363 238.565 179.363 238.565L179.25 240.272H153.633L154.544 233.1Z" fill="#E28B6D"/>
<path d="M193.518 238.602H161.982V243.383H193.518V238.602Z" fill="white"/>
<path d="M236.4 243.387H181.602L193.517 195.929C193.741 195.04 194.54 194.416 195.457 194.416H246.132C247.434 194.416 248.389 195.64 248.071 196.903L236.4 243.387Z" fill="#FBC343"/>
<path d="M241.367 223.36C235.946 222.55 218.415 218.907 182.285 240.919L181.449 243.953L236.401 243.389L241.367 223.36Z" fill="#C89B35"/>
<path d="M242.405 234.238C242.062 236.545 241.949 239.931 234.805 239.505L232.699 238.423L234.69 236.237L238.989 234.051L242.405 234.238Z" fill="#F9B384"/>
<path d="M243.08 228.014C243.08 228.014 246.989 233.114 243.06 234.694C240.393 235.732 237.553 236.253 234.691 236.231C236.513 231.107 242.433 231.449 242.433 231.449L243.08 228.014Z" fill="#F9B384"/>
<path d="M243.192 224.713C243.192 224.713 248.58 229.722 243.571 231.127C236.498 233.109 234.312 233.251 234.312 233.251C233.933 229.495 240.953 227.057 240.953 227.057L243.192 224.713Z" fill="#F9B384"/>
<path d="M242.092 220.348C242.092 220.348 249.455 224.825 242.548 227.33C235.64 229.835 234.008 229.796 234.008 229.796C233.629 226.04 241.03 224.75 241.03 224.75L242.092 220.348Z" fill="#F9B384"/>
<path d="M234.008 229.798C234.008 229.798 242.036 228.661 244.425 226.725" stroke="#EC9D68" stroke-width="0.5" stroke-miterlimit="10"/>
<path d="M234.312 233.25C234.312 233.25 242.661 232.074 245.28 230.252" stroke="#EC9D68" stroke-width="0.5" stroke-miterlimit="10"/>
<path d="M234.691 236.23C234.691 236.23 239.644 236.401 242.433 235.035" stroke="#EC9D68" stroke-width="0.5" stroke-miterlimit="10"/>
<path d="M156.934 308.012C157.768 307.557 170.974 310.44 185.624 299.587L166.725 294.199L156.934 308.012Z" fill="#102048"/>
<path d="M240.849 245.325C241.478 244.429 242.02 243.109 241.228 242.353C240.403 241.56 239.055 242.256 238.19 243.003C236.679 244.313 235.278 245.745 234 247.284L202.095 253.213L158.377 263.838L165.895 273.432C187.754 275.026 200.202 275.436 213.882 273.023C220.855 271.791 227.087 270.523 231.734 266.735C232.84 265.824 233.887 264.306 233.168 263.073C232.681 262.241 231.67 262.02 230.654 262.029C232.989 261.48 235.256 260.673 237.412 259.621C238.374 259.157 239.443 258.428 239.416 257.362C239.401 256.597 238.782 255.951 238.071 255.678C237.361 255.404 236.578 255.426 235.818 255.481C232.904 255.705 230.036 256.342 227.3 257.372C232.275 253.887 237.343 250.286 240.849 245.325ZM227.224 257.413C227.224 257.403 227.224 257.399 227.238 257.39C227.254 257.385 227.269 257.379 227.284 257.372C227.266 257.384 227.242 257.399 227.224 257.413Z" fill="#B35341"/>
<path d="M167.637 249.493C167.637 249.493 210.216 229.228 224.106 230.139C237.995 231.05 237.54 248.355 232.303 255.869C227.066 263.383 214.77 273.402 169.458 270.442L167.637 249.493Z" fill="#3E425E"/>
<path d="M188.943 333.113C186.639 333.765 183.369 333.924 178.87 333.208C178.87 333.208 173.041 334.72 167.303 335.909C163.419 336.714 159.579 337.366 157.617 337.306C157.448 337.306 157.28 337.294 157.107 337.279C153.34 337.011 148.595 335.048 146.078 332.242C146.078 332.242 146.068 332.224 146.059 332.22C145.39 331.501 144.879 330.649 144.56 329.719C143.194 325.466 146.081 320.307 161.716 321.367C161.716 321.367 166.875 320.156 168.091 316.358C169.308 312.56 160.35 294.35 160.35 294.35L173.101 285.697L185.624 299.587C185.624 299.587 187.522 312.11 187.522 316.209C187.522 316.209 192.832 323.799 193.593 327.138C194.08 329.27 193.014 331.96 188.943 333.113Z" fill="#D3DFFF"/>
<path d="M117.25 217.778C118.707 217.216 120.197 216.762 121.702 216.343C122.456 216.137 123.214 215.946 123.986 215.797C124.371 215.718 124.76 215.651 125.156 215.598C125.354 215.571 125.551 215.551 125.757 215.534C125.97 215.522 126.184 215.526 126.396 215.545C128.036 215.727 129.515 216.232 130.988 216.777C132.462 217.321 133.888 217.959 135.296 218.636C136.704 219.314 138.083 220.048 139.437 220.822C140.79 221.596 142.118 222.423 143.412 223.3C145.98 225.074 148.452 227.021 150.578 229.311L150.308 229.581C149.164 228.546 147.972 227.569 146.732 226.65C145.503 225.721 144.231 224.85 142.929 224.023C140.336 222.354 137.648 220.839 134.877 219.485C133.497 218.802 132.092 218.17 130.664 217.605C129.236 217.073 127.775 216.502 126.321 216.305C126.148 216.281 125.973 216.271 125.799 216.274C125.617 216.274 125.434 216.297 125.252 216.318C124.877 216.358 124.5 216.412 124.123 216.478C123.369 216.609 122.613 216.762 121.86 216.931C120.358 217.274 118.858 217.671 117.387 218.126L117.25 217.778Z" fill="#1F3C88"/>
<path d="M124.829 277.387C129.951 277.044 134.986 277.41 138.642 276.133C142.551 274.767 152.759 275.678 152.759 275.678L147.151 267.594L124.381 273.288L124.829 277.387Z" fill="#B35341"/>
<path d="M125.057 262.473C119.82 254.048 119.82 237.426 126.423 229.912C133.97 221.325 150.104 218.071 158.529 228.09C166.953 238.109 182.437 274.768 185.625 299.587C185.625 299.587 168.547 293.895 156.935 308.012C156.935 308.012 141.679 273.174 138.491 260.423L129.839 267.254L125.057 262.473Z" fill="#383B54"/>
<path d="M138.49 260.423C138.49 260.423 136.213 259.589 133.025 261.713C133.025 261.713 108.13 261.183 102.59 266.799C97.0508 272.415 101.299 279.929 109.421 280.765C116.236 281.464 129.459 276.178 133.544 274.46C134.372 274.11 135.253 273.902 136.149 273.843L142.889 273.402L138.49 260.423Z" fill="#D3DFFF"/>
<path d="M148.426 144.99C148.426 144.99 146.755 139.456 143.081 140.839C139.407 142.222 141.365 149.426 148.615 151.43L148.426 144.99Z" fill="#FFBE9D"/>
<path d="M144.519 175.502C146.311 176.793 148.258 177.854 150.314 178.661C152.361 179.43 154.522 179.916 156.689 179.863C158.859 179.834 160.993 179.304 162.925 178.315L163.653 177.951C163.892 177.819 164.111 177.654 164.34 177.508C164.806 177.222 165.25 176.901 165.668 176.548L166.307 176.029L166.628 175.768C166.734 175.679 166.825 175.586 166.925 175.481C167.312 175.091 167.706 174.703 168.107 174.318L168.38 174.548C168.016 174.98 167.652 175.411 167.287 175.839C167.194 175.945 167.105 176.056 167.007 176.158L166.699 176.45L166.076 177.04C165.659 177.428 165.213 177.783 164.743 178.104C164.509 178.269 164.287 178.452 164.045 178.601L163.298 179.027C161.281 180.157 159.011 180.759 156.698 180.776C154.403 180.771 152.132 180.297 150.026 179.384C147.943 178.49 146.012 177.278 144.301 175.792L144.519 175.502Z" fill="#1F3C88"/>
<path d="M134.717 245.885L136.69 252.789C137.362 255.086 137.988 257.394 138.693 259.68C139.398 261.966 140.065 264.259 140.785 266.536C141.149 267.675 141.501 268.817 141.896 269.942C142.078 270.507 142.26 271.081 142.466 271.642C142.672 272.203 142.869 272.766 143.062 273.332L142.732 273.471C142.223 272.378 141.745 271.275 141.298 270.163C140.85 269.046 140.442 267.917 140.023 266.789C139.214 264.527 138.499 262.235 137.821 259.935C137.143 257.634 136.515 255.317 135.945 252.987C135.375 250.657 134.823 248.324 134.367 245.967L134.717 245.885Z" fill="#210B04"/>
<path opacity="0.1" d="M188.945 333.113C186.641 333.766 183.371 333.924 178.872 333.208C178.872 333.208 169.232 335.678 163.141 336.645C169.403 335.392 178.511 327.65 177.486 322.756C186.481 325.716 188.927 330.213 188.945 333.113Z" fill="#1F3C88"/>
<path opacity="0.4" d="M164.732 333.969C163.57 335.399 161.839 336.369 160.023 336.857C159.071 337.109 158.093 337.251 157.109 337.279C153.342 337.012 148.596 335.048 146.079 332.243C146.079 332.243 146.07 332.224 146.061 332.221C145.794 331.858 145.551 331.479 145.332 331.086C146.634 332.309 148.106 333.335 149.704 334.133C150.485 334.521 151.293 334.85 152.123 335.117C152.527 335.272 152.952 335.363 153.371 335.481C153.79 335.591 154.216 335.677 154.646 335.736C158.032 336.31 161.644 335.955 164.732 333.969Z" fill="#1F3C88"/>
<path d="M146.786 145.775C146.683 145.278 146.481 144.807 146.192 144.39C145.925 143.97 145.585 143.6 145.188 143.297C144.8 143.026 144.379 142.891 144.024 143.083C143.669 143.274 143.356 143.722 143.097 144.175L142.846 144.088C142.955 143.542 143.154 142.953 143.72 142.562C144.012 142.369 144.367 142.295 144.711 142.358C145.027 142.417 145.325 142.547 145.584 142.738C146.054 143.094 146.435 143.555 146.697 144.084C146.984 144.595 147.111 145.181 147.061 145.766L146.786 145.775Z" fill="#EB996E"/>
<path d="M168.448 145.636C168.288 146.421 167.696 146.964 167.125 146.849C166.555 146.734 166.224 146.002 166.384 145.21C166.544 144.417 167.135 143.882 167.705 143.998C168.275 144.115 168.606 144.851 168.448 145.636Z" fill="#263238"/>
<path d="M159.574 145.289C159.703 144.497 159.342 143.78 158.768 143.686C158.194 143.593 157.624 144.159 157.495 144.95C157.366 145.741 157.727 146.459 158.301 146.552C158.875 146.646 159.445 146.08 159.574 145.289Z" fill="#263238"/>
<path d="M163.344 146.362C163.398 147.009 163.424 147.652 163.431 148.282C163.467 148.535 163.586 148.769 163.77 148.947C164.008 149.184 164.229 149.439 164.431 149.708C164.545 149.873 164.625 150.059 164.668 150.255C164.71 150.445 164.723 150.64 164.706 150.834C164.677 151.221 164.531 151.591 164.287 151.894C164.158 152.046 163.998 152.17 163.819 152.258C163.637 152.342 163.439 152.384 163.238 152.38C162.876 152.358 162.528 152.232 162.236 152.016L162.362 151.781C162.632 151.889 162.924 151.93 163.213 151.901C163.335 151.885 163.452 151.842 163.556 151.776C163.659 151.709 163.747 151.62 163.812 151.515C164.091 151.1 164.131 150.451 163.863 150.058C163.723 149.834 163.499 149.623 163.269 149.344C163.005 149.048 162.856 148.667 162.848 148.271C162.898 147.61 162.978 146.961 163.078 146.316L163.344 146.362Z" fill="#263238"/>
<path d="M156.002 142.548C156.37 142.18 156.802 141.882 157.277 141.67C157.773 141.442 158.317 141.338 158.862 141.366C159.417 141.401 159.949 141.597 160.396 141.929C160.819 142.245 161.168 142.65 161.419 143.114L161.208 143.278C160.862 142.96 160.485 142.676 160.084 142.43C159.699 142.208 159.27 142.075 158.827 142.042C157.944 141.974 157.046 142.324 156.168 142.759L156.002 142.548Z" fill="#263238"/>
<path d="M165.268 143.329C165.443 142.847 165.801 142.455 166.264 142.236C166.715 142.007 167.216 141.895 167.721 141.909C168.226 141.917 168.721 142.053 169.158 142.305C169.596 142.553 169.941 142.937 170.142 143.398L169.918 143.543C169.331 142.952 168.536 142.612 167.703 142.596C166.898 142.578 166.044 142.8 165.517 143.452L165.268 143.329Z" fill="#263238"/>
<path d="M159.051 154.021L165.091 154.453C165.091 154.453 161.723 158.921 159.051 154.021Z" fill="white"/>
<path d="M106.235 143.467C110.16 139.117 112.35 133.477 112.391 127.618C112.431 121.759 110.318 116.089 106.453 111.685C102.589 107.282 97.2411 104.451 91.4265 103.73C85.6119 103.01 79.7352 104.45 74.9124 107.777C70.0896 111.104 66.6567 116.086 65.2656 121.778C63.8745 127.469 64.6221 133.474 67.3665 138.65C70.1108 143.827 74.6608 147.815 80.1522 149.858C85.6436 151.901 91.694 151.856 97.1544 149.731L109.989 154.97L106.235 143.467Z" fill="#F3F3F3" stroke="#7FC829" stroke-width="3.5" stroke-miterlimit="10"/>
<path d="M77.8117 130.576C79.2221 130.576 80.3655 129.433 80.3655 128.023C80.3655 126.612 79.2221 125.469 77.8117 125.469C76.4012 125.469 75.2578 126.612 75.2578 128.023C75.2578 129.433 76.4012 130.576 77.8117 130.576Z" fill="#7FC829"/>
<path d="M88.4875 130.576C89.8979 130.576 91.0413 129.433 91.0413 128.023C91.0413 126.612 89.8979 125.469 88.4875 125.469C87.077 125.469 85.9336 126.612 85.9336 128.023C85.9336 129.433 87.077 130.576 88.4875 130.576Z" fill="#7FC829"/>
<path d="M99.1652 130.576C100.576 130.576 101.719 129.433 101.719 128.023C101.719 126.612 100.576 125.469 99.1652 125.469C97.7547 125.469 96.6113 126.612 96.6113 128.023C96.6113 129.433 97.7547 130.576 99.1652 130.576Z" fill="#7FC829"/>
<path d="M167.371 60H120.343C119.059 60.0038 117.828 60.516 116.919 61.4246C116.011 62.3332 115.499 63.5643 115.496 64.849V85.0285C115.499 86.3132 116.011 87.5444 116.919 88.4529C117.828 89.3615 119.059 89.8737 120.343 89.8776H124.686L131.745 100.486L133.843 89.8776H167.371C168.656 89.8737 169.887 89.3616 170.796 88.4531C171.704 87.5445 172.216 86.3134 172.22 85.0285V64.849C172.216 63.5642 171.704 62.333 170.796 61.4245C169.887 60.516 168.656 60.0038 167.371 60Z" fill="#F3F3F3" stroke="#7FC829" stroke-width="3.5" stroke-miterlimit="10"/>
<path d="M163.997 67.3438H123.715V69.6572H163.997V67.3438Z" fill="#54A233"/>
<path d="M163.997 73.4473H123.715V75.7607H163.997V73.4473Z" fill="#7FC829" fill-opacity="0.5"/>
<path d="M163.997 79.5469H123.715V81.8603H163.997V79.5469Z" fill="#7FC829" fill-opacity="0.5"/>
</svg>
