<svg width="18" height="18" viewBox="0 0 18 18" fill="none" xmlns="http://www.w3.org/2000/svg">
<g id="coordinates-svgrepo-com 2" clip-path="url(#clip0_57_9803)">
<g id="Group">
<path id="Vector" d="M14.8041 14.0287L9.30004 10.2628V4.8001C9.30004 4.5514 9.09844 4.3501 8.85004 4.3501C8.60164 4.3501 8.40004 4.5514 8.40004 4.8001V10.27L3.18664 14.0353C2.98503 14.1808 2.93974 14.4619 3.08524 14.6635C3.23074 14.8648 3.51184 14.9098 3.71344 14.7646L8.85724 11.05L14.2962 14.7712C14.3739 14.8243 14.4624 14.8498 14.55 14.8498C14.6937 14.8498 14.8344 14.7811 14.9217 14.6539C15.0618 14.449 15.009 14.1691 14.8041 14.0287Z" fill="white"/>
<path id="Vector_2" d="M8.39985 2.53645V3.25015C8.39985 3.49885 8.60145 3.70015 8.84985 3.70015C9.09825 3.70015 9.29985 3.49885 9.29985 3.25015V2.53645L10.0682 1.76815C10.244 1.59265 10.244 1.30735 10.0682 1.13185C9.89235 0.95605 9.60765 0.95605 9.43185 1.13185L8.84985 1.71385L8.26815 1.13215C8.09235 0.95635 7.80765 0.95635 7.63185 1.13215C7.45605 1.30765 7.45605 1.59295 7.63185 1.76845L8.39985 2.53645Z" fill="white"/>
<path id="Vector_3" d="M17.2864 15.3L17.8681 14.7183C18.0439 14.5428 18.0439 14.2575 17.8681 14.082C17.6923 13.9062 17.4076 13.9062 17.2318 14.082L16.6501 14.6637L16.0684 14.082C15.8926 13.9062 15.6079 13.9062 15.4321 14.082C15.2563 14.2575 15.2563 14.5428 15.4321 14.7183L16.0138 15.3L15.4321 15.8817C15.2563 16.0572 15.2563 16.3425 15.4321 16.518C15.52 16.6059 15.6352 16.6497 15.7504 16.6497C15.8656 16.6497 15.9808 16.6059 16.0687 16.518L16.6504 15.9363L17.2321 16.518C17.32 16.6059 17.4352 16.6497 17.5504 16.6497C17.6656 16.6497 17.7808 16.6059 17.8687 16.518C18.0445 16.3425 18.0445 16.0572 17.8687 15.8817L17.2864 15.3Z" fill="white"/>
<path id="Vector_4" d="M2.6658 14.5712C2.6667 14.5688 2.667 14.5667 2.6679 14.5643C2.688 14.5133 2.7 14.4584 2.7 14.4002C2.7 14.342 2.688 14.2871 2.6679 14.2361C2.667 14.2337 2.6667 14.2316 2.6658 14.2292C2.6202 14.1182 2.5317 14.03 2.421 13.9844C2.4189 13.9835 2.4165 13.9832 2.4141 13.9823C2.3631 13.9622 2.3082 13.9502 2.25 13.9502H0.45C0.2016 13.9502 0 14.1515 0 14.4002C0 14.6489 0.2016 14.8502 0.45 14.8502H1.1637L0.132 15.8816C0.0903 15.9233 0.0567 15.9734 0.0339 16.0289C0.033 16.0313 0.0327 16.0334 0.0318 16.0358C0.012 16.0871 0 16.142 0 16.2002C0 16.2584 0.012 16.3133 0.0321 16.3643C0.033 16.3667 0.0333 16.3688 0.0342 16.3712C0.0798 16.4822 0.1683 16.5704 0.279 16.616C0.2811 16.6169 0.2835 16.6172 0.2859 16.6181C0.3369 16.6382 0.3918 16.6502 0.45 16.6502H2.25C2.4984 16.6502 2.7 16.4489 2.7 16.2002C2.7 15.9515 2.4984 15.7502 2.25 15.7502H1.5363L2.5677 14.7188C2.6097 14.6768 2.643 14.6267 2.6658 14.5712Z" fill="white"/>
</g>
</g>
<defs>
<clipPath id="clip0_57_9803">
<rect width="18" height="18" fill="white"/>
</clipPath>
</defs>
</svg>
