<svg width="83" height="32" viewBox="0 0 83 32" fill="none" xmlns="http://www.w3.org/2000/svg">
<g id="&#208;&#155;&#208;&#190;&#208;&#179;&#208;&#190;&#209;&#130;&#208;&#184;&#208;&#191;" clip-path="url(#clip0_57_6519)">
<g id="Group">
<g id="Group_2">
<path id="Vector" d="M41.1959 10.6711H40.6873L40.626 9.16889V8.80986H44.7051V9.16889L44.6437 10.6711H44.1352V9.31867H41.1981V10.6711H41.1959ZM43.6135 5.10281H42.3357C42.1998 5.90457 42.1384 6.41118 41.9959 7.20633C41.746 8.58959 41.4392 9.08519 41.0052 9.15787L40.8342 8.80765C41.0249 8.72616 41.2441 8.35831 41.4699 7.10942C41.6386 6.17329 41.7241 5.60501 41.8841 4.5918H44.1944V9.09179H43.6135V5.10281Z" fill="white"/>
<path id="Vector_2" d="M45.3896 7.57358C45.3896 6.43482 46.1305 5.73438 46.9108 5.73438C47.7722 5.73438 48.261 6.37534 48.261 7.37535C48.261 7.5009 48.2501 7.62424 48.2347 7.71235H45.9574C45.999 8.45244 46.4374 8.93482 47.0818 8.93482C47.4062 8.93482 47.6736 8.82689 47.9235 8.65508L48.1295 9.04275C47.8336 9.24319 47.472 9.40619 47.0138 9.40619C46.1086 9.40398 45.3896 8.72116 45.3896 7.57358ZM47.7547 7.28724C47.7547 6.5868 47.45 6.20574 46.9218 6.20574C46.4461 6.20574 46.0209 6.60001 45.953 7.28724H47.7547Z" fill="white"/>
<path id="Vector_3" d="M49.2275 5.81787H51.9323V9.31568H51.3603V6.30025H49.7996V9.31568H49.2275V5.81787Z" fill="white"/>
<path id="Vector_4" d="M53.0049 8.40839C53.0049 7.64627 53.6405 7.26521 55.0828 7.10442C55.0806 6.65508 54.9381 6.22116 54.3858 6.22116C53.9956 6.22116 53.6427 6.41279 53.3775 6.59561L53.1539 6.19032C53.4652 5.97887 53.9386 5.73438 54.4822 5.73438C55.3064 5.73438 55.6571 6.30266 55.6571 7.1727V9.31808H55.1836L55.1354 8.89958H55.1157C54.7935 9.17711 54.4165 9.40398 53.9978 9.40398C53.4301 9.40398 53.0049 9.04055 53.0049 8.40839ZM55.0828 8.46345V7.49209C53.9496 7.63306 53.566 7.9194 53.566 8.36654C53.566 8.76301 53.8268 8.92601 54.1578 8.92601C54.4844 8.92601 54.754 8.76301 55.0828 8.46345Z" fill="white"/>
<path id="Vector_5" d="M56.8604 5.81905H57.3338L57.382 6.22206H57.4018C57.7086 5.95999 58.0878 5.73096 58.4802 5.73096C59.3547 5.73096 59.8216 6.43127 59.8216 7.51258C59.8216 8.704 59.129 9.39991 58.3574 9.39991C58.0484 9.39991 57.7305 9.25236 57.4193 8.9947L57.4346 9.60472V10.7895H56.8625V5.81905H56.8604ZM59.2276 7.52139C59.2276 6.7506 58.9733 6.23307 58.3355 6.23307C58.0484 6.23307 57.7612 6.39604 57.4324 6.71096V8.54324C57.7393 8.80971 58.033 8.90661 58.2566 8.90661C58.8155 8.90661 59.2276 8.38467 59.2276 7.52139Z" fill="white"/>
<path id="Vector_6" d="M61.4838 6.30025H60.3506V5.81787H63.1869V6.30025H62.0537V9.31567H61.4816V6.30025H61.4838Z" fill="white"/>
<path id="Vector_7" d="M63.7236 8.40839C63.7236 7.64627 64.3593 7.26521 65.8015 7.10442C65.7993 6.65508 65.6569 6.22116 65.1045 6.22116C64.7144 6.22116 64.3615 6.41279 64.0962 6.59561L63.8727 6.19032C64.1839 5.97887 64.6574 5.73438 65.201 5.73438C66.0251 5.73438 66.3758 6.30266 66.3758 7.1727V9.31808H65.9024L65.8541 8.89958H65.8344C65.5122 9.17711 65.1352 9.40398 64.7166 9.40398C64.1489 9.40398 63.7236 9.04055 63.7236 8.40839ZM65.7994 8.46345V7.49209C64.6661 7.63306 64.2826 7.9194 64.2826 8.36654C64.2826 8.76301 64.5434 8.92601 64.8744 8.92601C65.2032 8.92601 65.4728 8.76301 65.7994 8.46345Z" fill="white"/>
<path id="Vector_8" d="M67.5771 5.81787H68.2369L68.9011 7.45664C69.0019 7.74959 69.1071 8.02933 69.2035 8.31127H69.232C69.3372 8.02933 69.449 7.74959 69.5433 7.45664L70.1855 5.81787H70.8431V9.31568H70.3214V7.74519C70.3214 7.43461 70.3609 6.90157 70.385 6.54034H70.3565C70.26 6.81787 70.1417 7.10642 70.043 7.36854L69.403 8.98748H69.0238L68.3706 7.36854C68.2742 7.10642 68.1558 6.81127 68.0572 6.54034H68.0287C68.0528 6.90378 68.0922 7.43682 68.0922 7.74519V9.31568H67.5771V5.81787Z" fill="white"/>
<path id="Vector_9" d="M71.8701 7.57358C71.8701 6.43482 72.611 5.73438 73.3891 5.73438C74.2527 5.73438 74.7393 6.37534 74.7393 7.37535C74.7393 7.5009 74.7284 7.62424 74.713 7.71235H72.4356C72.4773 8.45244 72.9157 8.93482 73.5601 8.93482C73.8845 8.93482 74.1519 8.82689 74.4018 8.65508L74.6056 9.04275C74.3097 9.24319 73.948 9.40619 73.4899 9.40619C72.5869 9.40398 71.8701 8.72116 71.8701 7.57358ZM74.233 7.28724C74.233 6.5868 73.9283 6.20574 73.4001 6.20574C72.9244 6.20574 72.4992 6.60001 72.4312 7.28724H74.233Z" fill="white"/>
<path id="Vector_10" d="M75.71 5.81787H76.282V7.23638H77.9084V5.81787H78.4805V9.31567H77.9084V7.76281H76.282V9.31567H75.71V5.81787Z" fill="white"/>
<path id="Vector_11" d="M80.4992 6.30025H79.3682V5.81787H82.2045V6.30025H81.0713V9.31568H80.4992V6.30025Z" fill="white"/>
<path id="Vector_12" d="M41.0188 14.4526H41.5909V17.4681H43.1055V14.4526H43.6776V17.9526H41.0166V14.4526H41.0188ZM43.6184 17.9526H43.3532V17.4703H44.1707V17.8447L44.1116 19.1905H43.6184V17.9526Z" fill="white"/>
<path id="Vector_13" d="M45.0088 14.4524H45.5655V15.9061C45.5655 16.2762 45.537 16.7476 45.5129 17.1969H45.5392C45.6664 16.981 45.8636 16.6617 45.9886 16.448L47.2665 14.4502H47.7969V17.9524H47.2402V16.4987C47.2402 16.1286 47.2686 15.6595 47.2971 15.2079H47.2686C47.1415 15.4238 46.9464 15.7454 46.8215 15.9568L45.5392 17.9546H45.0088V14.4524Z" fill="white"/>
<path id="Vector_14" d="M50.7772 18.301L50.7926 17.7745C50.6019 17.9199 50.3783 18.0366 50.1131 18.0366C49.3371 18.0366 48.833 17.3715 48.833 16.2063C48.833 15.0719 49.427 14.367 50.1131 14.367C50.3783 14.367 50.5887 14.475 50.7926 14.6181L50.7772 14.1049V12.8252H51.3384V14.1049L51.323 14.6358C51.5356 14.4772 51.8009 14.367 52.0529 14.367C52.8442 14.367 53.2804 15.0675 53.2804 16.149C53.2804 17.3406 52.682 18.0366 51.9916 18.0366C51.7724 18.0366 51.54 17.9419 51.323 17.7811L51.3384 18.2988V19.4243H50.7772V18.301ZM50.7926 17.2878V15.1027C50.6019 14.9265 50.4068 14.8648 50.2117 14.8648C49.7624 14.8648 49.4248 15.4045 49.4248 16.2018C49.4248 17.0411 49.7185 17.5389 50.2402 17.5389C50.4353 17.5411 50.6041 17.4794 50.7926 17.2878ZM52.6908 16.1556C52.6908 15.3847 52.4628 14.867 51.9126 14.867C51.7263 14.867 51.5312 14.9221 51.323 15.1093V17.3032C51.5269 17.4904 51.7395 17.5411 51.8929 17.5411C52.3642 17.5411 52.6908 17.019 52.6908 16.1556Z" fill="white"/>
<path id="Vector_15" d="M54.3213 14.4523H54.7947L54.843 14.8554H54.8627C55.1695 14.5933 55.5487 14.3643 55.9411 14.3643C56.8157 14.3643 57.2825 15.0646 57.2825 16.1459C57.2825 17.3373 56.5899 18.0332 55.8183 18.0332C55.5093 18.0332 55.1915 17.8857 54.8802 17.628L54.8956 18.238V19.4228H54.3235V14.4523H54.3213ZM56.6885 16.1547C56.6885 15.3839 56.4343 14.8664 55.7964 14.8664C55.5093 14.8664 55.2222 15.0293 54.8934 15.3443V17.1765C55.2002 17.443 55.4939 17.5399 55.7175 17.5399C56.2765 17.5399 56.6885 17.018 56.6885 16.1547Z" fill="white"/>
<path id="Vector_16" d="M58.0693 16.2093C58.0693 15.0419 58.808 14.3701 59.6365 14.3701C60.4651 14.3701 61.2038 15.0419 61.2038 16.2093C61.2038 17.3679 60.4651 18.0397 59.6365 18.0397C58.808 18.0397 58.0693 17.3657 58.0693 16.2093ZM60.6119 16.2093C60.6119 15.4076 60.2174 14.8613 59.6365 14.8613C59.0557 14.8613 58.6612 15.4076 58.6612 16.2093C58.6612 17.0111 59.0557 17.5463 59.6365 17.5463C60.2174 17.5463 60.6119 17.0111 60.6119 16.2093Z" fill="white"/>
<path id="Vector_17" d="M62.2275 14.4526H63.5295C64.2682 14.4526 64.7745 14.7037 64.7745 15.3403C64.7745 15.728 64.5597 15.9791 64.2112 16.087V16.1112C64.5904 16.2037 64.917 16.4482 64.917 16.9504C64.917 17.6443 64.3646 17.9504 63.5821 17.9504H62.2275V14.4526ZM63.4287 15.9218C63.9964 15.9218 64.2134 15.7214 64.2134 15.3976C64.2134 15.0694 63.992 14.8777 63.4681 14.8777H62.7887V15.9218H63.4287ZM63.5186 17.5275C64.0797 17.5275 64.3515 17.3073 64.3515 16.9152C64.3515 16.5606 64.0556 16.3447 63.4835 16.3447H62.7909V17.5275H63.5186Z" fill="white"/>
<path id="Vector_18" d="M65.6514 16.2093C65.6514 15.0419 66.39 14.3701 67.2186 14.3701C68.0471 14.3701 68.7858 15.0419 68.7858 16.2093C68.7858 17.3679 68.0471 18.0397 67.2186 18.0397C66.39 18.0397 65.6514 17.3657 65.6514 16.2093ZM68.194 16.2093C68.194 15.4076 67.7994 14.8613 67.2186 14.8613C66.6377 14.8613 66.2432 15.4076 66.2432 16.2093C66.2432 17.0111 66.6377 17.5463 67.2186 17.5463C67.7994 17.5463 68.194 17.0111 68.194 16.2093Z" fill="white"/>
<path id="Vector_19" d="M69.8115 14.4526H71.9179V14.935H70.3836V17.9526H69.8115V14.4526Z" fill="white"/>
<path id="Vector_20" d="M72.2568 16.2093C72.2568 15.0419 72.9955 14.3701 73.824 14.3701C74.6526 14.3701 75.3912 15.0419 75.3912 16.2093C75.3912 17.3679 74.6526 18.0397 73.824 18.0397C72.9955 18.0397 72.2568 17.3657 72.2568 16.2093ZM74.7994 16.2093C74.7994 15.4076 74.4049 14.8613 73.824 14.8613C73.2432 14.8613 72.8487 15.4076 72.8487 16.2093C72.8487 17.0111 73.2432 17.5463 73.824 17.5463C74.4071 17.5463 74.7994 17.0111 74.7994 16.2093Z" fill="white"/>
<path id="Vector_21" d="M41.0186 23.09H41.492L41.5402 23.4931H41.56C41.8646 23.231 42.246 23.002 42.6384 23.002C43.5129 23.002 43.9798 23.7023 43.9798 24.7836C43.9798 25.975 43.2872 26.6709 42.5156 26.6709C42.2066 26.6709 41.8887 26.5234 41.5775 26.2657L41.5928 26.8757V28.0605H41.0207V23.09H41.0186ZM43.3858 24.7902C43.3858 24.0194 43.1315 23.5019 42.4937 23.5019C42.2066 23.5019 41.9194 23.6648 41.5906 23.9798V25.812C41.8975 26.0785 42.1912 26.1754 42.4148 26.1754C42.9737 26.1754 43.3858 25.6535 43.3858 24.7902Z" fill="white"/>
<path id="Vector_22" d="M44.71 25.6774C44.71 24.9153 45.3456 24.5343 46.7879 24.3735C46.7857 23.9241 46.6432 23.4902 46.0908 23.4902C45.7007 23.4902 45.3478 23.6818 45.0826 23.8647L44.859 23.4594C45.1703 23.2479 45.6437 23.0034 46.1873 23.0034C47.0114 23.0034 47.3621 23.5717 47.3621 24.4417V26.5871H46.8887L46.8405 26.1686H46.8207C46.4985 26.4462 46.1215 26.673 45.7029 26.673C45.133 26.673 44.71 26.3096 44.71 25.6774ZM46.7857 25.7325V24.7611C45.6525 24.9021 45.2689 25.1884 45.2689 25.6356C45.2689 26.0321 45.5297 26.1951 45.8607 26.1951C46.1895 26.1951 46.4591 26.0321 46.7857 25.7325Z" fill="white"/>
<path id="Vector_23" d="M48.2471 26.2283L48.4948 25.8429C48.806 26.1094 49.1392 26.2019 49.4789 26.2019C49.9414 26.2019 50.3184 25.9596 50.3184 25.572C50.3184 25.1755 50.0116 24.9816 49.457 24.9816H48.9901V24.5587H49.3759C49.9151 24.5587 50.1869 24.3495 50.1869 24.0081C50.1869 23.649 49.8976 23.475 49.4877 23.475C49.0997 23.475 48.8411 23.5808 48.5671 23.7812L48.3282 23.3891C48.6504 23.1534 49.0252 23.0015 49.5162 23.0015C50.1716 23.0015 50.7458 23.3054 50.7458 23.942C50.7458 24.2834 50.5398 24.5786 50.1847 24.7217V24.7504C50.5814 24.8561 50.8883 25.1182 50.8883 25.6204C50.8883 26.268 50.2527 26.6711 49.525 26.6711C49.0603 26.6733 48.6416 26.5675 48.2471 26.2283Z" fill="white"/>
<path id="Vector_24" d="M51.8701 23.0894H53.1721C53.9108 23.0894 54.4171 23.3405 54.4171 23.977C54.4171 24.3647 54.2023 24.6158 53.8538 24.7237V24.7479C54.233 24.8405 54.5596 25.085 54.5596 25.5872C54.5596 26.281 54.0072 26.5872 53.2247 26.5872H51.8701V23.0894ZM53.0713 24.5563C53.639 24.5563 53.856 24.3559 53.856 24.0321C53.856 23.7039 53.6346 23.5123 53.1107 23.5123H52.4312V24.5563H53.0713ZM53.1611 26.162C53.7223 26.162 53.9941 25.9418 53.9941 25.5497C53.9941 25.1951 53.6981 24.9792 53.1261 24.9792H52.4334V26.162H53.1611Z" fill="white"/>
<path id="Vector_25" d="M55.5479 23.0901H56.1046V24.5438C56.1046 24.9139 56.0761 25.3853 56.052 25.8346H56.0783C56.2054 25.6187 56.4027 25.2993 56.5276 25.0857L57.8055 23.0879H58.3359V26.5857H57.7792V25.1319C57.7792 24.7619 57.8077 24.2927 57.8362 23.8412H57.8077C57.6806 24.0571 57.4855 24.3786 57.3627 24.5901L56.0805 26.5879H55.55V23.0901H55.5479Z" fill="white"/>
<path id="Vector_26" d="M60.3568 23.5717H59.2236V23.0894H62.06V23.5717H60.9267V26.5872H60.3547V23.5717H60.3568Z" fill="white"/>
<path id="Vector_27" d="M62.9541 23.0901H63.5108V24.5438C63.5108 24.9139 63.4824 25.3853 63.4582 25.8346H63.4845C63.6117 25.6187 63.8089 25.2993 63.9339 25.0857L65.2118 23.0879H65.7422V26.5857H65.1855V25.1319C65.1855 24.7619 65.2139 24.2927 65.2424 23.8412H65.214C65.0868 24.0571 64.8917 24.3786 64.769 24.5901L63.4867 26.5879H62.9563V23.0901H62.9541Z" fill="white"/>
<path id="Vector_28" d="M67.865 24.9007L68.3407 25.0769L67.3214 26.5879H66.6748L67.865 24.9007ZM68.8864 25.2068H68.2596C67.5954 25.2068 66.9334 24.8985 66.9334 24.1253C66.9334 23.3544 67.5055 23.0879 68.2617 23.0879H69.4585V26.5857H68.8864V25.2068ZM68.8864 24.7751V23.546H68.3582C67.8277 23.546 67.5077 23.7245 67.5077 24.1386C67.5077 24.5482 67.8277 24.7751 68.3582 24.7751H68.8864Z" fill="white"/>
</g>
<g id="Group_3">
<path id="Vector_29" d="M28.4912 27.1446C28.1493 22.9229 22.8405 24.8543 23.3951 28.3889C24.0548 32.0909 28.6797 30.3137 28.4912 27.1446ZM27.2813 27.3935C27.2287 29.3315 24.3376 30.1155 24.1074 27.8537C23.8575 25.548 27.3843 24.6891 27.2813 27.3935Z" fill="white"/>
<path id="Vector_30" d="M31.2753 3.33907C31.2907 3.27959 31.2994 3.21792 31.3082 3.15845C31.3104 3.13422 31.317 3.10999 31.3192 3.08576C31.3235 3.04611 31.3235 3.00647 31.3257 2.96682C31.3257 2.92717 31.3257 2.88752 31.3213 2.84788C31.3213 2.83907 31.3214 2.83026 31.3192 2.82144C31.317 2.81484 31.317 2.80823 31.317 2.80162C31.3104 2.73114 31.2994 2.66285 31.2819 2.59457C31.2753 2.56814 31.2666 2.54391 31.26 2.51968C31.2446 2.46682 31.2249 2.41616 31.2052 2.3677C31.1942 2.34127 31.1811 2.31704 31.1701 2.29281C31.1438 2.24435 31.1153 2.2003 31.0846 2.15625C31.0715 2.13642 31.0583 2.1188 31.0452 2.09898C31.0211 2.07254 30.9948 2.04832 30.9706 2.02188C30.94 1.99105 30.9137 1.9558 30.8786 1.92717C30.8238 1.88312 30.7646 1.84787 30.7054 1.81483C30.6857 1.80602 30.666 1.79721 30.6462 1.7884C30.6068 1.77078 30.5673 1.75757 30.5279 1.74435C30.4753 1.72893 30.4227 1.71792 30.3679 1.71131C30.3438 1.70691 30.3175 1.7025 30.2933 1.7003C30.2429 1.69589 30.1903 1.69809 30.1399 1.7003C30.1421 1.7047 30.1465 1.70911 30.1487 1.71572C30.1618 1.73994 30.1728 1.76417 30.1838 1.79061C30.2057 1.83906 30.2232 1.88972 30.2407 1.94259C30.2473 1.96682 30.2561 1.99105 30.2627 2.01748C30.278 2.08356 30.2912 2.15404 30.2977 2.22453C30.2977 2.23554 30.3021 2.24655 30.3021 2.25757C30.3087 2.33906 30.3065 2.42277 30.2999 2.50647C30.2977 2.5307 30.2933 2.55492 30.289 2.57915C30.2802 2.63862 30.2714 2.7003 30.2561 2.75977C30.2495 2.7884 30.2407 2.81924 30.232 2.84788C30.2144 2.90294 30.1947 2.96021 30.1728 3.01307C30.1618 3.04171 30.1487 3.07034 30.1355 3.09898C30.0983 3.17607 30.0566 3.25316 30.0062 3.32585C29.9492 3.40955 29.8857 3.48224 29.8177 3.55052C29.8067 3.56153 29.798 3.57255 29.787 3.58136C29.7235 3.64303 29.6555 3.6959 29.5854 3.74435C29.5613 3.76197 29.535 3.77519 29.5108 3.78841C29.456 3.82145 29.3991 3.85008 29.3421 3.87431C29.3201 3.88312 29.3004 3.89193 29.2785 3.89854C29.1996 3.92717 29.1207 3.9492 29.0418 3.96021C29.0133 3.96462 28.9826 3.96682 28.9541 3.96902C28.9826 4.02189 29.0133 4.07255 29.0505 4.1188C29.0571 4.12761 29.0659 4.13863 29.0725 4.14744C29.1229 4.20911 29.1777 4.26638 29.239 4.31704C29.296 4.3633 29.3574 4.40074 29.421 4.43378C29.4254 4.43598 29.4276 4.43819 29.4319 4.43819C29.4429 4.44259 29.456 4.447 29.467 4.4514C29.5087 4.47123 29.5503 4.48665 29.5941 4.49986C29.6007 4.50206 29.6073 4.50427 29.6139 4.50647C29.6182 4.50867 29.6248 4.51087 29.6292 4.51087C29.6402 4.51308 29.6511 4.51308 29.6599 4.51528C29.7059 4.52629 29.752 4.5329 29.8002 4.53731C29.8199 4.53951 29.8418 4.54171 29.8615 4.54391C29.9295 4.54612 29.9974 4.54391 30.0654 4.5351C30.1443 4.52409 30.2254 4.49986 30.3021 4.47343C30.324 4.46682 30.3438 4.45801 30.3657 4.447C30.3744 4.44259 30.3832 4.44039 30.3942 4.43598C30.4139 4.42717 30.4336 4.41836 30.4534 4.40955C30.4819 4.39413 30.5082 4.37651 30.5345 4.36109C30.5608 4.34568 30.5849 4.33246 30.609 4.31704C30.6112 4.31484 30.6156 4.31264 30.6177 4.31264C30.6353 4.29942 30.655 4.2862 30.6725 4.27299C30.7032 4.25096 30.7317 4.22673 30.7602 4.2003C30.7756 4.18709 30.7909 4.17387 30.8041 4.16065C30.8063 4.15845 30.8084 4.15625 30.8106 4.15405C30.8216 4.14524 30.8304 4.13422 30.8413 4.12321C30.8567 4.10559 30.8742 4.09017 30.8895 4.07255C30.9005 4.05933 30.9137 4.04832 30.9246 4.0351C30.9619 3.99105 30.9969 3.947 31.0298 3.89854C31.0364 3.88973 31.043 3.87871 31.0474 3.8699C31.0759 3.82585 31.1022 3.7818 31.1263 3.73775C31.135 3.72233 31.1416 3.70911 31.1482 3.69369C31.1504 3.68708 31.1548 3.68048 31.157 3.67387C31.1701 3.64523 31.1833 3.6166 31.1942 3.58797C31.2052 3.56153 31.2205 3.5329 31.2293 3.50647C31.2337 3.49545 31.2359 3.48224 31.2402 3.47123C31.2446 3.45581 31.249 3.43819 31.2534 3.42277C31.26 3.39854 31.2665 3.3699 31.2753 3.33907Z" fill="white"/>
<path id="Vector_31" d="M22.1378 19.0114C21.774 14.7324 16.395 16.7849 17.0504 20.3526C17.8242 23.9598 22.3263 22.1166 22.1378 19.0114ZM20.9279 19.2602C20.9235 21.1189 18.0653 21.9734 17.7628 19.8262C17.3858 17.483 21.0199 16.4854 20.9279 19.2602Z" fill="white"/>
<path id="Vector_32" d="M34.5378 15.5759C34.5817 14.1993 34.0534 12.7786 32.9816 11.9283L22.3289 3.479C22.2763 3.43715 22.2237 3.3975 22.1689 3.35785C21.4873 2.87768 20.6675 2.60895 19.8411 2.6442C18.32 2.70367 16.9237 3.6486 16.0689 4.91953L7.02511 18.2389C6.82346 18.5385 6.64591 18.8556 6.49906 19.186C5.59161 21.1442 5.88313 23.7675 7.63008 25.1222L10.1442 27.1156C10.4927 27.3843 10.8829 27.6001 11.2993 27.7235C12.8008 28.2015 14.4447 27.5759 15.5363 26.4658C15.8344 26.1882 17.2087 24.4041 17.498 24.0517C17.612 23.9151 17.7654 23.8116 17.9386 23.7874C19.5233 24.0935 21.1256 23.4283 22.1382 22.1266C23.7427 20.2499 23.8983 16.8512 21.7196 15.3755C19.9924 14.175 17.6295 15.0319 16.4481 16.6486C15.5341 17.8314 15.1066 19.4416 15.4267 20.9305C15.5034 21.5032 16.0448 22.0891 15.5998 22.6244C15.556 22.6684 14.1028 24.5319 14.1071 24.4922C13.5044 25.1574 12.4347 25.4129 11.707 24.8182L9.17098 22.8072C8.69096 22.4283 8.40601 21.8116 8.42135 21.1882C8.41697 20.6618 8.59451 20.1442 8.88165 19.7125L17.921 6.3953C18.4624 5.56931 19.5891 5.0671 20.4812 5.58693C20.5535 5.62878 20.6215 5.67283 20.6872 5.72569L31.4187 14.2323C31.4472 14.2565 31.4735 14.2808 31.502 14.3072C32.3196 15.0517 32.2626 16.4195 31.6555 17.2874L27.8964 22.8248C27.8416 22.9063 27.7714 22.9746 27.6925 23.0253C27.4646 23.1905 27.2103 23.0891 26.9692 23.0253C26.7127 22.968 26.4519 22.9416 26.1889 22.9438C24.4923 22.9636 22.9799 24.1618 22.2347 25.6949C20.0932 30.1398 24.4397 34.2147 28.1616 30.642C29.3956 29.3887 30.0247 27.446 29.5622 25.6993C29.4636 25.3468 29.2707 24.9636 29.5271 24.631L33.512 18.7609C34.1389 17.8248 34.5137 16.7103 34.5378 15.5759ZM33.8035 15.8226C33.7794 16.6993 33.4945 17.5715 33.0035 18.2962L29.0186 24.1662C28.4728 24.8887 28.6854 25.7543 28.9266 26.5473C29.1457 27.8424 28.6306 29.2213 27.6991 30.0979C26.978 30.7984 25.9522 31.1794 24.9724 30.968C24.8452 30.9393 24.7225 30.9019 24.6041 30.8534C22.5701 30.0561 22.4385 27.1266 23.7296 25.5627C24.1877 24.9548 24.8146 24.4944 25.5357 24.2742C26.3489 24.012 27.1621 24.5164 27.9446 24.2653C28.3194 24.1927 28.817 23.6684 28.8761 23.5363C28.9857 23.3733 31.1294 20.2191 32.1267 18.7477C32.495 18.186 32.5651 18.12 32.6944 17.9085C33.2205 17.0891 33.4462 16.0561 33.2468 15.0891C33.1613 14.686 33.0057 14.294 32.769 13.9614C32.4336 13.5297 32.2341 13.4129 32.2276 13.4019C31.6007 12.9063 25.2727 7.88869 22.6621 5.8182C21.8029 5.15521 21.7459 5.0671 21.3974 4.82481C21.2089 4.70146 21.0072 4.59794 20.7946 4.53186C19.6702 4.17283 18.3638 4.72349 17.6317 5.6486C17.349 6.02746 17.4213 5.92613 17.3753 5.99662C16.847 6.77415 11.5141 14.6288 9.31565 17.8667C8.60986 18.9283 8.5178 19.012 8.25915 19.4349C8.19339 19.5429 8.13421 19.6552 8.08161 19.7697C7.4087 21.0935 7.57528 22.9239 8.78082 23.8556C8.78082 23.8556 8.7874 23.8601 8.79836 23.8711C9.00001 24.0319 10.8127 25.4702 11.2314 25.8006C11.319 25.8777 11.2708 25.8358 11.4725 25.979C12.1673 26.457 13.0835 26.4878 13.8397 26.1552C14.3395 25.9702 14.9729 25.4085 15.1834 25.1068C15.4135 24.8094 16.6103 23.327 16.6629 23.2213C16.9391 22.7808 17.0552 22.2257 16.9456 21.7103C16.847 21.2984 16.6191 20.9239 16.573 20.4944C16.3911 19.3468 16.7659 18.1508 17.498 17.2852C19.5693 14.827 22.9997 16.2323 22.5898 19.5517C22.3662 21.1816 21.2089 22.7896 19.6965 22.9239C18.9644 22.9768 18.3726 22.838 18.0065 22.946C17.6602 22.99 17.1057 23.3777 17.0377 23.5319C16.7045 23.9438 15.453 25.5561 15.2908 25.7103C14.3022 26.8248 12.5816 27.3468 11.2752 26.5164C10.8938 26.2631 8.59232 24.4305 8.24819 24.1222C6.34124 22.2719 7.51829 19.4856 8.09476 18.8204C8.87946 17.664 14.3833 9.5605 16.3473 6.66622C16.9719 5.78076 16.8097 5.94596 17.2306 5.38428C17.9561 4.45477 19.0849 3.80719 20.2576 3.87327C20.7639 3.91072 21.2593 4.07591 21.6867 4.35565C22.0988 4.63759 21.8993 4.51204 22.0484 4.61997C22.9624 5.34464 29.2882 10.3623 31.6796 12.2565C32.4555 12.9041 32.3437 12.7389 32.8084 13.1728C33.501 13.849 33.832 14.849 33.8035 15.8226Z" fill="white"/>
<path id="Vector_33" d="M26.1649 25.8365C26.4279 25.8761 26.6537 25.9929 26.8246 26.1801C27.0723 26.4532 27.1929 26.8695 27.1731 27.3893C27.1446 28.4268 26.2504 29.1228 25.4306 29.1228C25.1719 29.1228 24.9418 29.0545 24.7533 28.9224C25.2048 28.8299 25.652 28.4422 25.9588 27.8673C26.3336 27.1713 26.406 26.3982 26.1649 25.8365ZM25.9873 25.7153C26.6559 26.8167 25.6607 28.8387 24.5472 28.8387C24.5319 28.8387 24.5144 28.8387 24.499 28.8365C24.7467 29.1074 25.0821 29.2307 25.435 29.2307C26.292 29.2307 27.2499 28.5017 27.2805 27.3937C27.3222 26.2308 26.6953 25.7285 25.9873 25.7153Z" fill="white"/>
<path id="Vector_34" d="M20.1125 17.7873C20.5947 17.9943 20.8534 18.5186 20.8271 19.2609C20.8249 20.2763 19.9043 20.9833 19.0779 20.9833C18.8763 20.9833 18.6111 20.9415 18.3743 20.7675C18.4028 20.7653 18.4291 20.7609 18.4576 20.7587C18.5585 20.7432 18.6659 20.7146 18.7908 20.6705C18.8193 20.6595 18.8456 20.6485 18.8741 20.6375L18.8807 20.6353C18.953 20.6045 19.0253 20.567 19.113 20.5186L19.1415 20.5031C19.1678 20.4877 19.1963 20.4723 19.2248 20.4525C19.3322 20.3798 19.4243 20.3071 19.5075 20.2278C19.5163 20.219 19.5229 20.2124 19.5317 20.2036C19.536 20.1992 19.5404 20.1948 19.5448 20.1904C19.65 20.0869 19.7355 19.9833 19.81 19.8776C19.8758 19.7851 19.9372 19.6772 19.9985 19.5538C20.0117 19.5252 20.0248 19.4987 20.0358 19.4701L20.0489 19.4371C20.0862 19.3512 20.1147 19.2741 20.1366 19.2036C20.1498 19.1639 20.1607 19.1221 20.1717 19.0824C20.1914 19.0054 20.2068 18.9239 20.2199 18.838L20.2243 18.8049C20.2287 18.7785 20.2331 18.7542 20.2353 18.7278C20.2462 18.6067 20.2506 18.4987 20.244 18.3952C20.244 18.3908 20.244 18.3842 20.244 18.3798C20.2374 18.2741 20.2221 18.1639 20.1936 18.0428C20.1892 18.0186 20.1805 17.9965 20.1739 17.9745C20.1717 17.9657 20.1673 17.9547 20.1651 17.9437C20.1454 17.8864 20.13 17.8357 20.1125 17.7873ZM19.913 17.6133C19.9218 17.6309 19.935 17.6463 19.9437 17.6639C19.9591 17.697 19.9744 17.7278 19.9898 17.7631C20.0183 17.8313 20.0424 17.8996 20.0621 17.9723C20.0709 18.0031 20.0818 18.034 20.0884 18.0648C20.1125 18.1683 20.13 18.2741 20.1366 18.3842C20.1366 18.3886 20.1366 18.3908 20.1366 18.3952C20.1432 18.5009 20.1388 18.6089 20.1279 18.7168C20.1235 18.752 20.1169 18.7873 20.1125 18.8225C20.1015 18.8996 20.0862 18.9789 20.0665 19.056C20.0555 19.0957 20.0468 19.1331 20.0336 19.1728C20.0095 19.2476 19.981 19.3225 19.9481 19.3974C19.9328 19.4349 19.9174 19.4723 19.8999 19.5098C19.8473 19.6155 19.7881 19.719 19.7202 19.8203C19.6434 19.9305 19.558 20.0274 19.4681 20.1177C19.4571 20.1287 19.4462 20.1419 19.433 20.1529C19.3475 20.2344 19.2577 20.3049 19.1634 20.3666C19.1283 20.3886 19.0933 20.4084 19.0582 20.4283C18.9859 20.4701 18.9135 20.5098 18.839 20.5406C18.8105 20.5516 18.782 20.5648 18.7535 20.5736C18.6505 20.6111 18.5453 20.6397 18.4401 20.6551C18.3721 20.6639 18.3042 20.6683 18.2362 20.6683C18.2143 20.6683 18.1924 20.6683 18.1705 20.6661C18.1486 20.6661 18.1245 20.6617 18.1025 20.6595C18.3524 20.9569 18.7031 21.0913 19.0735 21.0913C19.9459 21.0913 20.9235 20.349 20.9257 19.2609C20.963 18.2476 20.4983 17.7388 19.913 17.6133Z" fill="white"/>
<path id="Vector_35" d="M10.5595 7.19281C10.5266 5.94612 8.97033 5.80074 8.40482 6.75889L4.59091 12.521C4.44844 12.7545 4.17445 12.7082 3.9465 12.7413C3.56511 12.7941 3.20564 12.9505 2.88123 13.1642C1.50472 14.0673 0.919485 16.2963 2.07023 17.6157C2.80233 18.4109 3.72073 18.4153 4.55584 18.0805C5.04025 17.8866 5.52028 17.5651 5.87537 17.0562C6.18223 16.6179 6.3532 16.0893 6.40142 15.5584C6.42115 15.3822 6.42773 15.2038 6.41019 15.0254C6.4343 14.6928 6.20854 14.3316 6.41677 14.032L10.2614 8.22585C10.2614 8.22365 10.2635 8.22365 10.2635 8.22145L10.2657 8.21924C10.4696 7.92409 10.5836 7.55184 10.5595 7.19281ZM9.79448 7.32497L5.82057 13.5056C5.80523 13.5276 5.79427 13.554 5.78112 13.5783C5.62549 13.9131 5.57069 14.3712 5.59919 14.7677C5.60138 14.8051 5.61892 14.9153 5.6233 14.9329C6.05949 16.8162 4.11746 17.7985 3.17495 17.0827C2.29381 16.3492 2.66643 14.662 3.65497 14.1532C4.23802 13.9395 4.82764 13.9439 5.33835 13.5474C5.37561 13.5188 5.48302 13.4197 5.50494 13.4021C5.52905 13.3778 5.55097 13.3558 5.57508 13.3294C5.57727 13.3272 9.62571 7.21484 9.62571 7.21484C9.70242 7.0981 9.8712 7.21263 9.79448 7.32497Z" fill="white"/>
<path id="Vector_36" d="M36.7213 8.65358C36.9536 8.36724 37.0742 8.02362 37.0895 7.69323C37.0917 7.65578 37.0917 7.62054 37.0917 7.5853C37.0917 7.57869 37.0917 7.57428 37.0917 7.56988C37.0895 7.52583 37.0873 7.48177 37.0807 7.43992C37.0413 7.12935 36.901 6.84741 36.6665 6.66019C35.4215 5.68662 33.5715 4.21305 32.7627 3.53464C32.6224 3.4179 32.5589 3.22847 32.5654 3.04345C32.6509 0.528028 30.1412 -0.621752 28.4074 1.29895C26.564 3.29455 28.0129 6.9223 30.8338 5.669C30.9237 5.65798 31.0136 5.67781 31.0859 5.73508L35.0576 8.9223C35.119 8.97076 35.1826 9.01041 35.2461 9.04345C35.2461 9.04345 35.2483 9.04345 35.2483 9.04565C35.4522 9.15138 35.6648 9.18001 35.8708 9.14697C35.8796 9.14697 35.8884 9.14697 35.8971 9.14477C35.9212 9.14036 35.9453 9.13155 35.9695 9.12715C35.9716 9.12715 35.976 9.12494 35.9782 9.12494C36.2478 9.06327 36.513 8.90909 36.7213 8.65358ZM32.0153 4.85182C31.978 4.82318 31.9298 4.79455 31.8881 4.77472C31.0486 4.39807 30.0908 5.40027 29.3149 4.68662C27.2216 2.56327 31.6229 -0.297963 31.7917 3.18001C31.7939 3.20864 31.7917 3.23948 31.7895 3.26812C31.7588 3.67781 31.8202 4.19983 32.0701 4.51701C32.1051 4.55887 32.1468 4.60292 32.1862 4.63596L36.2719 7.93331C36.3793 8.01701 36.2588 8.18662 36.1558 8.10072L32.0153 4.85182Z" fill="white"/>
<path id="Vector_37" d="M4.95077 15.7944C4.97269 15.7151 4.98803 15.6358 4.9968 15.5565C5.00556 15.4816 5.00556 15.4045 5.00337 15.3318C5.00337 15.323 5.00118 15.3142 5.00118 15.3054C4.9968 15.2371 4.98584 15.1688 4.97049 15.1049C4.9683 15.0917 4.96392 15.0807 4.95953 15.0675C4.94419 15.0124 4.92666 14.9618 4.90474 14.9111C4.89816 14.8957 4.89159 14.8803 4.88501 14.8648C4.85652 14.8054 4.82364 14.7503 4.78418 14.6974C4.78199 14.6952 4.7798 14.6908 4.7798 14.6886C4.73596 14.6314 4.68555 14.5763 4.62856 14.53C4.58034 14.4904 4.52992 14.4574 4.47732 14.4287C4.46197 14.4199 4.44444 14.4133 4.4269 14.4067C4.39183 14.3913 4.35676 14.3781 4.32169 14.367C4.27785 14.3538 4.23182 14.345 4.18579 14.3384C4.16388 14.3362 4.14196 14.3296 4.12004 14.3274C4.1025 14.3252 4.08497 14.3274 4.06524 14.3252C4.0762 14.345 4.08497 14.3648 4.09373 14.3869C4.11346 14.4331 4.131 14.4816 4.14415 14.5322C4.15072 14.5543 4.1573 14.5763 4.16168 14.5983C4.17703 14.671 4.19018 14.7459 4.19456 14.8208C4.19456 14.823 4.19456 14.8252 4.19456 14.8274C4.19895 14.9001 4.19675 14.9772 4.18799 15.0521C4.18579 15.0763 4.18141 15.1005 4.17703 15.1248C4.16826 15.1798 4.15949 15.2327 4.14415 15.2878C4.13757 15.3142 4.12881 15.3428 4.12223 15.3692C4.10469 15.4221 4.08497 15.475 4.06305 15.5256C4.05209 15.5521 4.04113 15.5785 4.03017 15.6027C3.99291 15.6776 3.95345 15.7503 3.90304 15.8186C3.84824 15.8957 3.78906 15.964 3.7255 16.0278C3.71673 16.0367 3.71015 16.0455 3.70139 16.0521C3.6422 16.1093 3.57864 16.1578 3.51288 16.2018C3.48877 16.2173 3.46466 16.2305 3.44055 16.2459C3.39014 16.2745 3.33972 16.3032 3.28712 16.323C3.26739 16.3318 3.24766 16.3406 3.22794 16.3472C3.1556 16.3737 3.08327 16.3935 3.00875 16.4045C3.00217 16.4045 2.99779 16.4045 2.99121 16.4067C2.99779 16.4155 3.00436 16.4265 3.01094 16.4353C3.01751 16.4441 3.02409 16.4507 3.02847 16.4596C3.07012 16.5124 3.11615 16.5631 3.17095 16.6071C3.22136 16.649 3.27397 16.682 3.32876 16.7107C3.33315 16.7129 3.33753 16.7151 3.34191 16.7173C3.39671 16.7437 3.45151 16.7657 3.5085 16.7811C3.51069 16.7811 3.51288 16.7833 3.51507 16.7833C3.57426 16.7988 3.63563 16.8076 3.697 16.812H3.69919C3.76276 16.8142 3.82632 16.812 3.88989 16.8032C3.9666 16.7922 4.04332 16.7723 4.12004 16.7437H4.12223C4.19237 16.7173 4.26251 16.6798 4.33046 16.638C4.33704 16.6336 4.34361 16.6314 4.35019 16.627C4.42033 16.5807 4.48608 16.53 4.54746 16.4684C4.54746 16.4684 4.54746 16.4684 4.54965 16.4662C4.61321 16.4045 4.67459 16.3318 4.72938 16.2547C4.7798 16.1842 4.82364 16.1093 4.85871 16.0322C4.85871 16.0322 4.85871 16.03 4.8609 16.03C4.89597 15.9552 4.92666 15.8759 4.94857 15.7988C4.95077 15.7988 4.95077 15.7966 4.95077 15.7944Z" fill="white"/>
<g id="Group_4">
<path id="Vector_38" d="M22.7381 30.9157C21.5106 30.158 20.8706 28.6602 21.0701 26.9619C21.081 26.8606 21.0986 26.7527 21.1205 26.6315C21.1249 26.6095 21.1293 26.5853 21.1336 26.5633L21.1402 26.528C21.1578 26.4465 21.1753 26.3716 21.1928 26.3011C21.2016 26.2637 21.2125 26.2263 21.2213 26.1888C21.241 26.1161 21.263 26.0434 21.2893 25.9619L21.3002 25.9267C21.3068 25.9069 21.3134 25.887 21.32 25.8672C21.3221 25.8606 21.3243 25.854 21.3265 25.8474C21.3287 25.843 21.3287 25.8364 21.3309 25.832C21.3397 25.8078 21.3506 25.7835 21.3594 25.7571C21.366 25.7395 21.3747 25.7196 21.3813 25.702L21.3945 25.669C21.4142 25.6183 21.4339 25.5677 21.4537 25.5192C21.4712 25.4796 21.4887 25.4421 21.5063 25.4025L21.5238 25.3628L21.5369 25.3364C21.5611 25.2857 21.583 25.2351 21.6093 25.1866C21.6137 25.18 21.6159 25.1712 21.6202 25.1646C21.6224 25.1602 21.6246 25.1536 21.6268 25.1492C21.6465 25.1117 21.6685 25.0743 21.6904 25.0368L21.7167 24.9928C21.7233 24.9796 21.732 24.9663 21.7386 24.9531C21.7496 24.9333 21.7605 24.9135 21.7715 24.8937C21.8285 24.7945 21.8898 24.702 21.9468 24.6139L21.9512 24.6095L21.9534 24.6051C22.0433 24.473 22.1463 24.3364 22.2734 24.1844C22.2822 24.1756 22.2888 24.1646 22.2953 24.1558C22.2997 24.1492 22.3041 24.1426 22.3085 24.1382C22.3107 24.1359 22.3151 24.1315 22.3173 24.1293C22.3238 24.1227 22.3304 24.1161 22.337 24.1095C22.4488 23.9818 22.565 23.8584 22.6855 23.7439C22.6921 23.7373 22.6987 23.7307 22.7052 23.7241C22.7074 23.7219 22.7096 23.7174 22.7118 23.7152C22.7337 23.6954 22.7556 23.6756 22.7776 23.658C22.7907 23.647 22.8039 23.6359 22.817 23.6227L22.8455 23.5963C22.8674 23.5765 22.8894 23.5567 22.9135 23.5368C22.9705 23.4884 23.0318 23.4421 23.0888 23.3981C23.0998 23.3893 23.1129 23.3804 23.1239 23.3716C23.1392 23.3584 23.1546 23.3474 23.1721 23.3342C23.1765 23.332 23.1787 23.3276 23.1874 23.3232C23.2028 23.3122 23.2203 23.3011 23.2379 23.2901C23.2532 23.2813 23.2664 23.2725 23.2817 23.2615L23.2905 23.2571C23.3518 23.2152 23.411 23.1756 23.4724 23.1382C23.4987 23.1227 23.5272 23.1073 23.5557 23.0919L23.6017 23.0655C23.6631 23.0302 23.7201 22.9994 23.7815 22.9685C23.788 22.9641 23.7968 22.9597 23.8034 22.9575C23.8078 22.9553 23.8121 22.9531 23.8165 22.9509C23.8516 22.9333 23.8889 22.9179 23.9239 22.9025L23.9678 22.8826C23.9809 22.876 23.9941 22.8716 24.0072 22.865C24.0248 22.8562 24.0445 22.8474 24.062 22.8408C24.1672 22.7989 24.2637 22.7637 24.3579 22.7329C24.5618 22.669 24.7678 22.6205 24.9717 22.5919C25.0922 22.5743 25.2128 22.5633 25.3443 22.5589C25.353 22.5589 25.3618 22.5589 25.3706 22.5589C25.3859 22.5589 25.3991 22.5589 25.4144 22.5589C25.4298 22.5589 25.4451 22.5589 25.4648 22.5589H25.5109C25.57 22.5589 25.638 22.5589 25.7059 22.5633C25.7366 22.5655 25.7695 22.5699 25.8002 22.5721L25.8462 22.5765C25.9186 22.5853 25.9887 22.5919 26.0588 22.6051C26.0983 22.6117 26.1377 22.6205 26.175 22.6293L26.2013 22.6359C26.2188 22.6404 26.2386 22.6426 26.2561 22.647C26.2802 22.6514 26.3043 22.6558 26.3284 22.6624C26.3723 22.6734 26.4139 22.6866 26.4556 22.6998C26.4906 22.7108 26.5257 22.7152 26.5586 22.7196L26.5674 22.7219C26.5783 22.7241 26.5893 22.7263 26.6002 22.7263C26.6156 22.7263 26.6309 22.7285 26.6463 22.7285C26.6748 22.7285 26.7055 22.7263 26.7318 22.7219C26.7866 22.713 26.8457 22.6954 26.9093 22.6668C26.9356 22.6558 26.9597 22.6426 26.9816 22.6293L26.9904 22.6249C27.0014 22.6183 27.0101 22.6139 27.0189 22.6073C27.0562 22.5809 27.0934 22.5522 27.1241 22.5214C27.1285 22.517 27.1329 22.5126 27.1351 22.5082L27.1394 22.5038C27.1767 22.4641 27.2096 22.4267 27.2359 22.3893L30.995 16.8518C30.9972 16.8496 30.9994 16.8452 30.9994 16.8452C31.0476 16.7725 31.0958 16.691 31.1462 16.5985C31.155 16.5809 31.1638 16.5655 31.1725 16.5478L31.1813 16.5324C31.2383 16.4179 31.2843 16.3144 31.3194 16.2174C31.3216 16.213 31.3216 16.2108 31.3216 16.2064C31.3545 16.1117 31.383 16.0104 31.4093 15.8937L31.4137 15.876C31.418 15.8606 31.4202 15.8452 31.4246 15.8298C31.4465 15.7241 31.4597 15.6183 31.4685 15.517C31.4685 15.5038 31.4706 15.4906 31.4706 15.4796V15.4597C31.4772 15.3584 31.4772 15.2593 31.4706 15.1668V15.1558C31.4706 15.147 31.4706 15.1404 31.4706 15.1315C31.4641 15.0346 31.4509 14.9355 31.429 14.8276C31.4246 14.8056 31.4202 14.7835 31.4158 14.7637C31.3917 14.658 31.3632 14.5633 31.3304 14.4752C31.3282 14.4663 31.3238 14.4597 31.3194 14.4509L31.315 14.4399C31.2821 14.3562 31.2405 14.2725 31.1945 14.191L31.1857 14.1756C31.1791 14.1646 31.1747 14.1558 31.1682 14.1448C31.166 14.1404 31.1616 14.1337 31.1594 14.1293L31.543 14.3452C31.5298 14.332 31.5189 14.3144 31.5035 14.3011C31.475 14.2769 31.4487 14.2505 31.4202 14.2263L30.6903 13.6514C31.486 14.5038 31.6043 15.8298 30.9139 16.7967C30.7868 16.8893 27.7378 21.7042 26.9137 22.5214C26.8107 22.6227 26.6309 22.5985 26.5871 22.5875C21.2235 21.2747 18.6393 29.4663 23.4724 31.5192C23.205 31.354 22.9573 31.1514 22.7381 30.9157Z" fill="white"/>
</g>
<g id="Group_5">
<path id="Vector_39" d="M12.4204 25.1242C12.405 25.1153 12.3875 25.1065 12.3721 25.0977L12.0543 24.9193H12.074C12.1683 24.9193 12.245 24.9127 12.3195 24.9017C12.3984 24.8907 12.4817 24.8708 12.5804 24.8422C12.6001 24.8356 12.622 24.829 12.6417 24.8224C12.736 24.7916 12.8171 24.7585 12.8938 24.7211C12.8982 24.7189 12.9026 24.7167 12.9113 24.7123C13.0056 24.666 13.102 24.6087 13.1963 24.5427L13.2072 24.536C13.2138 24.5316 13.2204 24.5272 13.227 24.5228C13.2971 24.4722 13.3673 24.4149 13.4374 24.351C13.4505 24.34 13.4637 24.3268 13.4747 24.3136L13.49 24.2982C13.536 24.2541 13.5821 24.2056 13.6237 24.1594L13.6434 24.1374C13.6697 24.1087 13.6938 24.0801 13.718 24.0493L15.0638 22.351C15.112 22.2916 15.1515 22.2255 15.1865 22.1462L15.1887 22.1418C15.1931 22.133 15.1953 22.1264 15.1997 22.1175C15.2282 22.0449 15.2479 21.9722 15.2589 21.8995C15.2611 21.8907 15.2611 21.8797 15.2611 21.8708V21.8642C15.2676 21.8026 15.2676 21.7409 15.2611 21.6792C15.2589 21.6594 15.2567 21.6396 15.2545 21.6219C15.2413 21.5405 15.2216 21.4722 15.1931 21.4127C14.8424 20.6484 14.7284 19.7541 14.8665 18.8246C14.8862 18.6924 14.9147 18.5515 14.9542 18.3863C14.963 18.3532 14.9717 18.3202 14.9805 18.2871L14.9871 18.2629C15.0156 18.1528 15.0506 18.0427 15.0857 17.9347C15.0901 17.9215 15.0945 17.9083 15.0989 17.8929C15.101 17.8819 15.1054 17.8708 15.1098 17.8598C15.112 17.8532 15.1142 17.8488 15.1164 17.8422C15.1208 17.8334 15.123 17.8268 15.1252 17.818C15.1449 17.7607 15.1668 17.7079 15.1909 17.6484L15.1975 17.6308L15.215 17.5889C15.2304 17.5515 15.2457 17.514 15.2611 17.4766C15.2852 17.4237 15.3093 17.373 15.3356 17.3202L15.3487 17.2916C15.3575 17.2739 15.3663 17.2563 15.3728 17.2387C15.3838 17.2167 15.3948 17.1924 15.4057 17.1704C15.4079 17.166 15.4101 17.1616 15.4123 17.1594C15.4167 17.1528 15.4189 17.1484 15.4211 17.1418C15.4342 17.1175 15.4474 17.0955 15.4605 17.0713L15.4824 17.0338C15.5153 16.9744 15.5526 16.9105 15.5898 16.8466C15.6096 16.8136 15.6293 16.7827 15.6512 16.7519L15.6644 16.7343C15.6731 16.7211 15.6819 16.7056 15.6907 16.6902C15.7038 16.6704 15.717 16.6484 15.7301 16.6286C15.7323 16.6242 15.7367 16.6197 15.7389 16.6153C15.7455 16.6065 15.752 16.5999 15.7564 16.5911C15.8551 16.4457 15.9603 16.3092 16.0655 16.1836C16.0699 16.177 16.0764 16.1704 16.0808 16.1638C16.083 16.1616 16.083 16.1594 16.0852 16.1572C16.0896 16.1528 16.094 16.1462 16.1006 16.1418C16.1093 16.133 16.1181 16.1242 16.1247 16.1153C16.2452 15.9788 16.3592 15.8598 16.4732 15.7519C16.4776 15.7475 16.4819 15.7431 16.4907 15.7343L16.4973 15.7277C16.5082 15.7167 16.5214 15.7079 16.5324 15.6968C16.5433 15.688 16.5521 15.6792 16.563 15.6704C16.62 15.6197 16.6814 15.5647 16.745 15.514C16.7647 15.4986 16.7866 15.4832 16.8063 15.4656L16.8414 15.4391C16.8546 15.4281 16.8699 15.4171 16.8831 15.4061C16.9094 15.3841 16.9379 15.3642 16.9664 15.3422C16.9707 15.34 16.9751 15.3356 16.9795 15.3334C16.9861 15.329 16.9927 15.3246 17.0014 15.3202C17.0606 15.2783 17.1242 15.2387 17.1834 15.2012C17.1965 15.1924 17.2097 15.1836 17.225 15.1748C17.2491 15.1594 17.2732 15.1418 17.2995 15.1286C17.3697 15.0867 17.442 15.0493 17.5143 15.0118C17.5275 15.0052 17.5428 14.9964 17.556 14.9898C17.5691 14.981 17.5845 14.9744 17.5976 14.9678C17.602 14.9656 17.6042 14.9656 17.6086 14.9634C17.6678 14.9347 17.7291 14.9105 17.7927 14.8819L17.8146 14.873C17.83 14.8664 17.8453 14.8598 17.8606 14.8532C17.8804 14.8444 17.9001 14.8356 17.9176 14.829C18.025 14.7871 18.1324 14.7519 18.2355 14.7211C18.4042 14.6726 18.573 14.6374 18.7396 14.6131C18.8382 14.5977 18.9456 14.5889 19.0618 14.5823C19.0837 14.5801 19.1035 14.5801 19.1254 14.5801H19.1604C19.1933 14.5801 19.2262 14.5779 19.2591 14.5779C19.2985 14.5779 19.3402 14.5779 19.3796 14.5801C19.4169 14.5823 19.4542 14.5845 19.4892 14.5867C19.5572 14.5911 19.6251 14.5999 19.6975 14.6087L19.7281 14.6131C19.7501 14.6153 19.7742 14.6197 19.7961 14.6219C19.8794 14.6352 19.9627 14.6528 20.046 14.6748C20.0547 14.677 20.0635 14.6792 20.0701 14.6792C20.0745 14.6792 20.0767 14.6814 20.081 14.6814L20.0854 14.6836H20.0898C20.1819 14.7079 20.2761 14.7387 20.3769 14.7761C20.3923 14.7827 20.4098 14.7893 20.4252 14.796L20.4559 14.8092C20.5282 14.8378 20.5918 14.8664 20.6531 14.8973C20.8438 14.9435 21.0323 15.0118 21.2142 15.0977L20.8657 14.8885C20.8263 14.8664 20.7846 14.8444 20.743 14.8224C20.7276 14.8158 20.7123 14.8092 20.697 14.8026C20.6312 14.7695 20.5633 14.7409 20.4931 14.7123C20.4646 14.7012 20.4383 14.688 20.4098 14.6792C20.3134 14.644 20.2147 14.6109 20.1139 14.5845C20.1117 14.5845 20.1095 14.5823 20.1073 14.5823C20.0942 14.5779 20.081 14.5779 20.0679 14.5735C19.9824 14.5515 19.8969 14.5338 19.8092 14.5184C19.7764 14.5118 19.7413 14.5096 19.7062 14.503C19.6361 14.4942 19.5638 14.4854 19.4914 14.481C19.4542 14.4788 19.4169 14.4766 19.3774 14.4744C19.3358 14.4722 19.2941 14.4722 19.2525 14.4722C19.2196 14.4722 19.1846 14.4722 19.1517 14.4744C19.1166 14.4744 19.0837 14.4744 19.0487 14.4766C18.9391 14.4832 18.8295 14.492 18.7155 14.5074C18.5445 14.5316 18.3714 14.5691 18.1982 14.6197C18.0886 14.6506 17.979 14.688 17.8716 14.7299C17.8365 14.7431 17.8015 14.7607 17.7642 14.7761C17.6941 14.8048 17.6217 14.8356 17.5516 14.8686C17.5472 14.8708 17.545 14.8708 17.5406 14.873C17.5121 14.8863 17.4836 14.9039 17.4551 14.9193C17.3806 14.9568 17.3061 14.9964 17.2338 15.0382C17.1943 15.0625 17.1549 15.0889 17.1154 15.1131C17.0518 15.1528 16.9905 15.1924 16.9291 15.2365C16.9181 15.2453 16.905 15.2519 16.894 15.2585C16.8502 15.2893 16.8085 15.3246 16.7669 15.3554C16.734 15.3797 16.7011 15.4039 16.6683 15.4303C16.6047 15.481 16.5433 15.536 16.4819 15.5911C16.46 15.6109 16.4359 15.6286 16.414 15.6506C16.4118 15.6528 16.4074 15.655 16.4052 15.6572C16.3986 15.6638 16.3943 15.6704 16.3877 15.6748C16.2628 15.7916 16.1444 15.9171 16.0326 16.0471C16.0195 16.0625 16.0063 16.0735 15.9931 16.0889C15.9866 16.0977 15.98 16.1065 15.9734 16.1153C15.8616 16.2475 15.7564 16.3863 15.6578 16.5294C15.649 16.5427 15.6381 16.5537 15.6293 16.5669C15.6052 16.6021 15.5855 16.6374 15.5613 16.6726C15.5372 16.7101 15.5109 16.7497 15.4868 16.7893C15.4496 16.851 15.4123 16.9149 15.3772 16.9788C15.3575 17.0162 15.3356 17.0515 15.3159 17.0889C15.3115 17.0999 15.3049 17.1087 15.2983 17.1197C15.2786 17.1594 15.2589 17.2012 15.2391 17.2409C15.2084 17.3026 15.1778 17.3642 15.1493 17.4281C15.1252 17.481 15.1054 17.5338 15.0835 17.5867C15.0572 17.6506 15.0309 17.7123 15.009 17.7783C15.0046 17.7938 14.998 17.807 14.9915 17.8202C14.9827 17.8444 14.9761 17.8708 14.9695 17.8951C14.9323 18.0052 14.8972 18.1175 14.8687 18.2299C14.8577 18.2717 14.8468 18.3136 14.8358 18.3554C14.8008 18.503 14.7679 18.6528 14.746 18.8048C14.5969 19.8026 14.7372 20.7079 15.0813 21.4545C15.1076 21.5118 15.123 21.5735 15.1339 21.6352C15.1361 21.6528 15.1383 21.6682 15.1405 21.6858C15.1449 21.7387 15.1471 21.7938 15.1405 21.8488C15.1405 21.8598 15.1405 21.8708 15.1383 21.8797C15.1295 21.9457 15.112 22.0096 15.0857 22.0713C15.0813 22.0801 15.0791 22.0889 15.0747 22.0977C15.0462 22.1616 15.0112 22.2233 14.9673 22.2783L13.6215 23.9766C13.593 24.014 13.5623 24.0471 13.5316 24.0801C13.49 24.1264 13.4484 24.1726 13.4045 24.2145C13.387 24.2321 13.3694 24.2475 13.3519 24.2651C13.2862 24.3246 13.2204 24.3797 13.1503 24.4303C13.1415 24.4369 13.1305 24.4435 13.1218 24.4501C13.0341 24.5118 12.942 24.5669 12.85 24.6131C12.8434 24.6153 12.839 24.6197 12.8324 24.6219C12.7535 24.6594 12.6724 24.6902 12.5935 24.7167C12.5738 24.7233 12.5541 24.7299 12.5365 24.7343C12.4554 24.7585 12.3721 24.7783 12.291 24.7916C12.2143 24.8026 12.1354 24.807 12.0587 24.807C12.0499 24.807 12.0412 24.807 12.0346 24.807C12.0258 24.807 12.017 24.807 12.0083 24.807C11.9338 24.8048 11.857 24.7982 11.7847 24.7871C11.7737 24.7849 11.7628 24.7827 11.7518 24.7805C11.7014 24.7717 11.651 24.7563 11.6006 24.7409C11.6532 24.7827 11.6883 24.8114 11.6883 24.8114C11.9184 24.992 12.1661 25.0845 12.4204 25.1242Z" fill="white"/>
</g>
<g id="Group_6">
<path id="Vector_40" d="M22.2411 3.41282C22.2433 3.4151 22.2456 3.4151 22.2479 3.41737C22.2229 3.39691 22.1979 3.38099 22.1729 3.36279C22.1956 3.37871 22.2183 3.39691 22.2411 3.41282Z" fill="white"/>
<path id="Vector_41" d="M6.93684 24.4206C6.4064 23.9756 5.83651 23.3236 5.56033 22.4338C5.14825 21.1056 5.47484 19.5703 6.52695 17.8655C8.71228 14.3325 15.4984 4.65184 15.5663 4.55492L15.5685 4.55272L15.5707 4.55052C16.3839 3.24435 17.7736 2.46682 19.2838 2.46682C19.7814 2.46682 20.2789 2.55272 20.7546 2.71571C20.6998 2.7069 20.6472 2.7069 20.5924 2.7025C21.1557 2.80162 21.6971 3.02849 22.1705 3.36329C21.296 2.69149 20.2811 2.35889 19.2838 2.35889C17.8043 2.35889 16.362 3.08356 15.4831 4.49325C15.4831 4.49325 8.6509 14.2333 6.44147 17.8104C3.96901 21.8104 6.04693 23.9734 7.29412 24.828C7.1648 24.6981 7.04643 24.5615 6.93684 24.4206Z" fill="white"/>
</g>
<g id="Group_7">
<path id="Vector_42" d="M2.09779 17.64L2.0671 17.6246C1.96846 17.5695 1.87421 17.5056 1.78654 17.4329C1.70982 17.3691 1.6331 17.292 1.54762 17.1928L1.53885 17.1818C1.5257 17.1686 1.51474 17.1532 1.50378 17.14C1.43145 17.0519 1.37008 16.9616 1.31747 16.8713C1.31309 16.8624 1.3087 16.8536 1.30432 16.847C1.29993 16.8382 1.29555 16.8294 1.29117 16.8228C1.24294 16.7347 1.19911 16.64 1.16184 16.5453C1.15746 16.5365 1.15527 16.5276 1.15089 16.5188C1.1465 16.51 1.14431 16.5012 1.13993 16.4924C1.10266 16.3911 1.07198 16.281 1.04567 16.1642C1.04129 16.1444 1.03691 16.1246 1.03471 16.1047L1.03252 16.0893C1.00841 15.9572 0.993068 15.8448 0.986493 15.7391V15.7347C0.979917 15.6268 0.982109 15.51 0.990877 15.3691V15.3536C0.993068 15.3338 0.993068 15.3118 0.99526 15.292C1.00622 15.1664 1.02376 15.0431 1.04787 14.9285C1.05006 14.9175 1.05225 14.9065 1.05444 14.8977C1.05663 14.8889 1.05883 14.8779 1.06102 14.8691C1.08513 14.7589 1.11801 14.6466 1.15527 14.5365C1.15965 14.5276 1.16184 14.5166 1.16404 14.5078C1.16404 14.5034 1.16623 14.499 1.16623 14.4946C1.16842 14.4902 1.16842 14.488 1.17061 14.4836C1.1728 14.477 1.175 14.4726 1.17719 14.466C1.18376 14.4484 1.19034 14.4329 1.19692 14.4175L1.20787 14.3889C1.23199 14.3294 1.2539 14.2788 1.27363 14.2303C1.28678 14.2017 1.29993 14.173 1.31528 14.1444C1.31966 14.1334 1.32624 14.1224 1.33062 14.1136C1.3372 14.1025 1.34158 14.0893 1.34816 14.0783C1.35035 14.0717 1.35473 14.0673 1.35912 14.0607C1.36569 14.0519 1.37008 14.0409 1.37665 14.0321C1.4183 13.955 1.46433 13.8757 1.51474 13.8008C1.52132 13.7898 1.52789 13.781 1.53228 13.7699C1.53666 13.7633 1.53885 13.7567 1.54324 13.7501C1.552 13.7347 1.56296 13.7215 1.57173 13.7083C1.63091 13.6246 1.69448 13.5431 1.76023 13.4638C1.76462 13.4594 1.76681 13.4572 1.77119 13.4528C1.83695 13.3757 1.90928 13.3008 1.986 13.2281C1.99038 13.2237 1.99477 13.2193 2.00134 13.2127L2.00353 13.2083C2.01011 13.2017 2.01669 13.1973 2.02326 13.1906C2.03422 13.1818 2.04299 13.1752 2.05395 13.1664C2.1219 13.1069 2.18546 13.0541 2.24903 13.0056C2.25779 12.999 2.26656 12.9924 2.27533 12.9836C2.27971 12.9792 2.28629 12.9748 2.29067 12.9704C2.30382 12.9616 2.31698 12.9528 2.33013 12.944C2.34109 12.9373 2.35205 12.9307 2.36301 12.9219C2.38712 12.9043 2.41342 12.8889 2.43972 12.8713C2.48575 12.8426 2.53397 12.814 2.59316 12.7832L2.61946 12.7677C2.63261 12.7611 2.64576 12.7545 2.65672 12.7479C2.6611 12.7457 2.66768 12.7435 2.67206 12.7391L2.67645 12.7369C2.68083 12.7347 2.68521 12.7325 2.6896 12.7325C2.70056 12.7281 2.70933 12.7259 2.72029 12.7215C2.80358 12.6818 2.89125 12.6488 2.97893 12.618C3.00742 12.6091 3.03373 12.6003 3.06222 12.5915C3.18278 12.5563 3.2836 12.5343 3.37785 12.5188C3.46991 12.5056 3.56197 12.499 3.65403 12.4968C3.67595 12.4968 3.69787 12.4946 3.71979 12.4924C3.76363 12.4858 3.80747 12.4726 3.85788 12.4506C3.87322 12.444 3.89076 12.4351 3.91049 12.4241C3.91925 12.4197 3.92802 12.4131 3.93679 12.4065C3.96748 12.3867 3.99159 12.3669 4.01351 12.347C4.0157 12.3448 4.01789 12.3426 4.02008 12.3404C4.04858 12.3118 4.07269 12.2854 4.09241 12.2545L7.90632 6.49241C8.15181 6.13338 8.55512 5.91091 8.96062 5.91091C9.10748 5.91091 9.24995 5.93955 9.38585 5.99682C9.5064 6.04748 9.61162 6.10034 9.70368 6.1532C9.97766 6.20166 10.2253 6.34704 10.381 6.58933H10.3832C10.3832 6.58933 10.1859 6.22149 9.42531 5.89549C9.27406 5.83162 9.11625 5.80078 8.96062 5.80078C8.51347 5.80078 8.07948 6.04968 7.82303 6.42633L4.01131 12.1928C3.99378 12.2193 3.97405 12.2413 3.95213 12.2633C3.94994 12.2655 3.94775 12.2677 3.94556 12.2699C3.92583 12.2876 3.90391 12.3052 3.88418 12.3184C3.87542 12.3228 3.86665 12.3294 3.86007 12.3338C3.84692 12.3404 3.83377 12.347 3.82062 12.3536C3.78555 12.3691 3.74829 12.3823 3.70883 12.3889C3.6913 12.3911 3.67376 12.3933 3.65623 12.3933C3.55978 12.3955 3.46553 12.4021 3.36909 12.4175C3.25949 12.4329 3.1499 12.4616 3.0403 12.4924C3.00962 12.5012 2.98112 12.51 2.95263 12.521C2.86276 12.5519 2.77289 12.5871 2.68521 12.629C2.66987 12.6356 2.65453 12.64 2.63918 12.6466C2.63261 12.651 2.62603 12.6554 2.61946 12.6576C2.59754 12.6686 2.57343 12.6818 2.55151 12.6951C2.4989 12.7237 2.44411 12.7545 2.3915 12.7854C2.3652 12.803 2.33889 12.8206 2.3104 12.8382C2.28629 12.8536 2.26218 12.8691 2.23807 12.8867C2.22272 12.8977 2.20957 12.9109 2.19423 12.9219C2.12409 12.9726 2.05833 13.0299 1.99257 13.0871C1.97504 13.1025 1.9575 13.1136 1.93997 13.129C1.93339 13.1356 1.92901 13.1422 1.92243 13.1488C1.84572 13.2215 1.77119 13.2986 1.70105 13.3801C1.69886 13.3845 1.69448 13.3867 1.69009 13.3911C1.69009 13.3911 1.69009 13.3911 1.69009 13.3933C1.62214 13.4726 1.55639 13.5563 1.49501 13.6444C1.48405 13.6598 1.47529 13.673 1.46433 13.6884C1.45337 13.7061 1.4446 13.7237 1.43364 13.7413C1.38323 13.8206 1.335 13.8999 1.29117 13.9814C1.2824 13.9968 1.27144 14.0122 1.26267 14.0299C1.25171 14.0519 1.24075 14.0761 1.22979 14.1003C1.21445 14.129 1.2013 14.1598 1.18815 14.1884C1.16404 14.2435 1.13993 14.2964 1.1202 14.3514C1.10924 14.3779 1.09828 14.4043 1.08951 14.4307C1.08513 14.4395 1.08074 14.4506 1.07855 14.4594C1.07417 14.4726 1.07198 14.488 1.0654 14.5034C1.02595 14.618 0.99526 14.7303 0.968958 14.847C0.964574 14.8691 0.957998 14.8889 0.953614 14.9109C0.927311 15.0365 0.909776 15.162 0.898817 15.2876C0.896625 15.314 0.894433 15.3426 0.892241 15.3691C0.87909 15.488 0.876898 15.6158 0.883473 15.7413C0.890049 15.8669 0.909776 15.9902 0.931695 16.1091C0.936079 16.1356 0.940463 16.1598 0.947039 16.1862C0.973341 16.303 1.00403 16.4175 1.04348 16.5276C1.05006 16.5453 1.05883 16.5629 1.0654 16.5805C1.10486 16.6796 1.14869 16.7765 1.19911 16.8713C1.20787 16.8889 1.21664 16.9065 1.2276 16.9241C1.28459 17.0232 1.35035 17.118 1.42268 17.2083C1.43802 17.2281 1.45556 17.2457 1.4709 17.2655C1.54762 17.3558 1.63091 17.4417 1.72297 17.5166C1.81722 17.5937 1.91805 17.662 2.02107 17.7215L2.39808 17.9065C2.29506 17.8316 2.19423 17.7435 2.09779 17.64Z" fill="white"/>
<path id="Vector_43" d="M3.00098 18.2095C3.01949 18.2164 3.04031 18.2234 3.05882 18.2303L3.02874 18.2141C3.01717 18.2118 3.01023 18.2118 3.00098 18.2095Z" fill="white"/>
</g>
<g id="Group_8">
<path id="Vector_44" d="M29.167 5.84619C29.1692 5.84839 29.1714 5.84839 29.1758 5.85059L29.1736 5.84839C29.1692 5.84839 29.167 5.84839 29.167 5.84619Z" fill="white"/>
<path id="Vector_45" d="M28.1242 5.11559C27.688 4.76984 27.3723 4.36683 27.2101 3.91536C26.98 3.27451 27.0392 2.55217 27.3877 1.77036C27.414 1.71311 27.4929 1.55675 27.506 1.53693C28.1001 0.576742 28.7839 0.109864 29.5949 0.109864C29.9369 0.109864 30.3073 0.202358 30.6996 0.374134C30.9561 0.41818 31.1994 0.508472 31.4208 0.645012C30.7939 0.239797 30.1802 0.00195312 29.5949 0.00195312C28.8058 0.00195312 28.0716 0.431393 27.4293 1.45985C27.4118 1.48627 27.3307 1.64043 27.3088 1.68888C26.5394 3.38682 27.1334 4.71038 28.545 5.53622C28.3872 5.4173 28.2469 5.27636 28.1242 5.11559Z" fill="white"/>
</g>
<path id="Vector_46" d="M35.2 9.01693C35.1496 8.9883 35.1014 8.95526 35.0532 8.91781L31.0814 5.73058C31.0179 5.67992 30.939 5.6645 30.8601 5.66671L31.0529 5.77464L34.5161 8.55438L34.058 8.29667L30.7943 5.67772C30.7746 5.68653 30.757 5.69314 30.7373 5.69975L34.0295 8.34072C34.0756 8.37816 34.1238 8.4112 34.1764 8.43984L35.2 9.01693Z" fill="white"/>
</g>
</g>
</g>
<defs>
<clipPath id="clip0_57_6519">
<rect width="81.6" height="32" fill="white" transform="translate(0.879883)"/>
</clipPath>
</defs>
</svg>
