<svg width="80" height="80" viewBox="0 0 80 80" fill="none" xmlns="http://www.w3.org/2000/svg">
<rect x="2" y="2" width="76" height="76" rx="38" fill="#D1F9FF"/>
<rect x="2" y="2" width="76" height="76" rx="38" stroke="#7FC829" stroke-width="4"/>
<path d="M4.74835 52.3215C4.74573 52.3169 4.74311 52.3122 4.7405 52.3076L75.2597 52.3076C75.2571 52.3122 75.2545 52.3169 75.2518 52.3215C74.7334 53.2404 74.0039 54.5035 73.16 55.8807C71.4549 58.6635 69.3412 61.8135 67.5773 63.5774C63.9558 67.1989 59.6565 70.0717 54.9248 72.0316C50.1931 73.9915 45.1217 75.0003 40.0001 75.0003C34.8786 75.0003 29.8071 73.9915 25.0754 72.0316C20.3437 70.0717 16.0444 67.1989 12.4229 63.5774C10.659 61.8135 8.54532 58.6635 6.84015 55.8807C5.99626 54.5035 5.26683 53.2404 4.74835 52.3215Z" fill="#8A6C46" stroke="#8A6C46" stroke-width="2"/>
<g clip-path="url(#clip0_1496_99871)">
<path d="M41.8106 66.112C38.9333 66.112 36.6016 64.1918 36.6016 61.8222V53.707C40.0475 54.2896 43.5751 54.2896 47.021 53.707V61.8236C47.021 64.1918 44.6878 66.112 41.8106 66.112Z" fill="#B3B3B3"/>
<path d="M52.8895 35.4841C54.3381 36.0927 55.5218 37.154 56.2423 38.4901C56.9628 39.8263 57.1764 41.3562 56.8472 42.8236C56.518 44.2911 55.6661 45.6069 54.4342 46.5507C53.2022 47.4944 51.665 48.0089 50.0801 48.0079H34.1991C32.6142 48.0089 31.077 47.4944 29.8451 46.5507C28.6131 45.6069 27.7612 44.2911 27.432 42.8236C27.1028 41.3562 27.3164 39.8263 28.0369 38.4901C28.7574 37.154 29.9411 36.0927 31.3897 35.4841C30.4641 34.5865 29.8305 33.4561 29.5642 32.2274C29.2979 30.9987 29.4102 29.7235 29.8877 28.5534C30.3651 27.3834 31.1877 26.3679 32.2575 25.6276C33.3273 24.8874 34.5992 24.4536 35.922 24.378C35.4288 23.4642 35.1721 22.4527 35.1731 21.4266C35.2461 19.7357 36.0071 18.137 37.2969 16.9651C38.5868 15.7931 40.3055 15.1387 42.0934 15.1387C43.8814 15.1387 45.6001 15.7931 46.8899 16.9651C48.1798 18.137 48.9408 19.7357 49.0138 21.4266C49.0147 22.4527 48.758 23.4642 48.2649 24.378C49.598 24.4332 50.8856 24.8528 51.972 25.5861C53.0584 26.3194 53.897 27.335 54.3864 28.5099C54.8758 29.6848 54.995 30.9688 54.7296 32.2066C54.4642 33.4443 53.8256 34.5827 52.8909 35.4841H52.8895Z" fill="#7FC829"/>
<path d="M39.7997 59.8151C39.5514 59.8151 39.3132 59.7217 39.1376 59.5555C38.9619 59.3893 38.8633 59.1638 38.8633 58.9288V32.3653C38.8633 32.1298 38.9621 31.904 39.138 31.7375C39.3139 31.5711 39.5524 31.4775 39.8012 31.4775C40.0499 31.4775 40.2885 31.5711 40.4644 31.7375C40.6403 31.904 40.7391 32.1298 40.7391 32.3653V58.9288C40.7391 59.0454 40.7148 59.1609 40.6675 59.2686C40.6203 59.3763 40.5511 59.4741 40.4638 59.5565C40.3765 59.6388 40.273 59.7041 40.159 59.7484C40.0451 59.7928 39.923 59.8155 39.7997 59.8151Z" fill="#2C3136"/>
<path d="M39.7197 42.679C39.5411 42.6797 39.366 42.6321 39.2151 42.5417C39.0642 42.4514 38.9438 42.3221 38.8679 42.1691C38.7921 42.0161 38.7641 41.8457 38.7872 41.6781C38.8102 41.5105 38.8835 41.3527 38.9982 41.2232L45.376 34.0326C45.455 33.9429 45.5519 33.8688 45.6612 33.8146C45.7704 33.7604 45.8899 33.727 46.0128 33.7165C46.1356 33.706 46.2595 33.7185 46.3773 33.7532C46.495 33.788 46.6044 33.8444 46.6992 33.9192C46.7939 33.994 46.8722 34.0857 46.9294 34.1891C46.9867 34.2925 47.022 34.4056 47.0331 34.5219C47.0442 34.6382 47.031 34.7554 46.9943 34.8669C46.9575 34.9784 46.8979 35.0819 46.8189 35.1716L40.4411 42.3635C40.3527 42.4631 40.2423 42.5429 40.1176 42.5975C39.9929 42.652 39.857 42.6798 39.7197 42.679Z" fill="#2C3136"/>
<path d="M39.8711 42.6788C39.7336 42.6795 39.5977 42.6514 39.473 42.5966C39.3483 42.5419 39.2379 42.4617 39.1496 42.362L32.7805 35.1687C32.6209 34.9876 32.5439 34.7539 32.5663 34.519C32.5888 34.2841 32.7089 34.0673 32.9002 33.9163C33.0916 33.7652 33.3385 33.6923 33.5866 33.7136C33.8348 33.7348 34.0638 33.8485 34.2234 34.0296L40.5839 41.223C40.6986 41.3525 40.7719 41.5103 40.7949 41.6779C40.818 41.8455 40.79 42.0158 40.7142 42.1689C40.6383 42.3219 40.5179 42.4512 40.367 42.5415C40.216 42.6319 40.041 42.6795 39.8624 42.6788H39.8711Z" fill="#2C3136"/>
<path d="M39.7993 67.0003C38.1695 66.9988 36.6069 66.3854 35.4544 65.2946C34.302 64.2038 33.6539 62.7248 33.6523 61.1822V53.7076C33.6521 53.5774 33.682 53.4487 33.7401 53.3307C33.7982 53.2127 33.883 53.1082 33.9886 53.0247C34.094 52.9422 34.2171 52.8822 34.3494 52.849C34.4816 52.8157 34.6199 52.81 34.7548 52.8321L35.8052 53.0097C38.4468 53.4589 41.1518 53.4589 43.7933 53.0097L44.8438 52.8321C44.9786 52.8094 45.117 52.8149 45.2493 52.8482C45.3816 52.8816 45.5046 52.942 45.6095 53.0252C45.7145 53.1084 45.7989 53.2124 45.8568 53.3298C45.9148 53.4472 45.9448 53.5753 45.9447 53.7048V61.1795C45.944 62.7223 45.2964 64.2018 44.1442 65.2932C42.992 66.3845 41.4293 66.9985 39.7993 67.0003ZM35.5253 54.7674V61.1863C35.5253 62.259 35.9755 63.2878 36.7769 64.0463C37.5783 64.8048 38.6652 65.231 39.7985 65.231C40.9319 65.231 42.0188 64.8048 42.8202 64.0463C43.6216 63.2878 44.0718 62.259 44.0718 61.1863V54.7674C41.245 55.2422 38.3519 55.2417 35.5253 54.766V54.7674Z" fill="#2C3136"/>
<path d="M47.7396 48.8949C46.5772 48.9004 45.4288 48.6547 44.3819 48.1765C44.2712 48.1255 44.1723 48.0543 44.0907 47.9671C44.009 47.8799 43.9464 47.7783 43.9063 47.6681C43.8661 47.558 43.8493 47.4414 43.8568 47.3251C43.8642 47.2089 43.8958 47.0951 43.9497 46.9903C44.0036 46.8856 44.0788 46.7919 44.171 46.7147C44.2631 46.6375 44.3704 46.5782 44.4868 46.5402C44.6032 46.5022 44.7263 46.4863 44.8492 46.4933C44.9721 46.5004 45.0923 46.5303 45.2029 46.5813C45.9954 46.9441 46.865 47.131 47.7454 47.1276C49.1165 47.13 50.4468 46.686 51.5131 45.8701C52.5794 45.0542 53.3168 43.916 53.6015 42.6465C53.8862 41.377 53.701 40.0535 53.0769 38.8979C52.4528 37.7423 51.4278 36.8251 50.1738 36.3001C50.036 36.2419 49.9151 36.153 49.8214 36.0411C49.7277 35.9291 49.6639 35.7974 49.6356 35.6571C49.6073 35.5168 49.6152 35.3721 49.6586 35.2353C49.7021 35.0985 49.7798 34.9737 49.8853 34.8715C50.6936 34.0924 51.246 33.1081 51.4757 32.038C51.7053 30.9678 51.6022 29.8576 51.179 28.8417C50.7558 27.8258 50.0305 26.9478 49.091 26.314C48.1515 25.6802 47.0381 25.3177 45.8854 25.2704C45.7291 25.2635 45.577 25.2196 45.4432 25.1427C45.3093 25.0659 45.198 24.9585 45.1194 24.8304C45.0407 24.7023 44.9972 24.5575 44.9929 24.4094C44.9886 24.2613 45.0236 24.1145 45.0947 23.9825C45.5219 23.194 45.7435 22.3202 45.7411 21.4341C45.7411 19.932 45.1107 18.4914 43.9885 17.4292C42.8663 16.3671 41.3443 15.7704 39.7573 15.7704C38.1702 15.7704 36.6482 16.3671 35.526 17.4292C34.4038 18.4914 33.7734 19.932 33.7734 21.4341C33.771 22.3202 33.9927 23.194 34.4198 23.9825C34.4905 24.1135 34.5257 24.2591 34.5221 24.4062C34.5185 24.5533 34.4763 24.6972 34.3993 24.825C34.3223 24.9527 34.2128 25.0604 34.0809 25.1381C33.949 25.2159 33.7987 25.2614 33.6435 25.2704C32.5 25.3357 31.4003 25.7106 30.4754 26.3504C29.5504 26.9902 28.8391 27.868 28.4261 28.8795C28.0131 29.8909 27.9158 30.9933 28.1457 32.0556C28.3756 33.1179 28.9231 34.0953 29.7231 34.8715C29.8288 34.9737 29.9068 35.0986 29.9504 35.2356C29.9941 35.3725 30.0021 35.5174 29.9737 35.6579C29.9454 35.7984 29.8815 35.9303 29.7876 36.0424C29.6937 36.1544 29.5726 36.2433 29.4345 36.3014C28.1805 36.8265 27.1555 37.7437 26.5314 38.8993C25.9073 40.0548 25.7221 41.3784 26.0068 42.6479C26.2915 43.9174 27.0289 45.0556 28.0952 45.8715C29.1615 46.6874 30.4918 47.1314 31.8629 47.129C32.7433 47.1324 33.6129 46.9456 34.4054 46.5827C34.5165 46.5281 34.6381 46.4951 34.7629 46.4857C34.8877 46.4764 35.0133 46.4908 35.1321 46.5281C35.2509 46.5655 35.3607 46.625 35.4548 46.7032C35.5489 46.7814 35.6254 46.8767 35.68 46.9833C35.7345 47.09 35.7659 47.206 35.7722 47.3243C35.7786 47.4427 35.7598 47.5611 35.7169 47.6724C35.6741 47.7838 35.6081 47.8859 35.5229 47.9727C35.4377 48.0595 35.3349 48.1293 35.2207 48.1779C34.1738 48.6561 33.0254 48.9018 31.8629 48.8962C30.167 48.8989 28.5158 48.3814 27.1565 47.4214C25.7973 46.4614 24.8031 45.1105 24.323 43.5709C23.8429 42.0314 23.9026 40.3861 24.4932 38.8813C25.0838 37.3765 26.1734 36.0934 27.5991 35.2239C26.8498 34.2266 26.3723 33.0696 26.2088 31.8556C26.0454 30.6417 26.2011 29.4084 26.6622 28.2651C27.1233 27.1218 27.8754 26.1039 28.8519 25.3018C29.8284 24.4997 30.999 23.9382 32.2598 23.667C32.0162 22.9433 31.8931 22.1881 31.8947 21.4286C31.8947 19.4563 32.7225 17.5649 34.1959 16.1703C35.6693 14.7757 37.6677 13.9922 39.7515 13.9922C41.8352 13.9922 43.8337 14.7757 45.3071 16.1703C46.7805 17.5649 47.6083 19.4563 47.6083 21.4286C47.6102 22.1833 47.489 22.9337 47.249 23.6534C48.5221 23.9097 49.7078 24.4619 50.6992 25.2602C51.6906 26.0585 52.4564 27.0777 52.9277 28.2261C53.399 29.3745 53.5609 30.6158 53.3988 31.8382C53.2367 33.0605 52.7557 34.2255 51.9992 35.228C53.4238 36.0975 54.5127 37.3803 55.1029 38.8843C55.6932 40.3884 55.753 42.0329 55.2735 43.5719C54.794 45.1108 53.8009 46.4615 52.4429 47.4217C51.0848 48.382 49.4348 48.9002 47.7396 48.899V48.8949Z" fill="#2C3136"/>
</g>
<defs>
<clipPath id="clip0_1496_99871">
<rect width="33" height="53" fill="white" transform="translate(24 14)"/>
</clipPath>
</defs>
</svg>
