<svg width="25" height="40" viewBox="0 0 25 40" fill="none" xmlns="http://www.w3.org/2000/svg">
<path d="M13.1075 39.3303C10.9897 39.3303 9.27344 37.8813 9.27344 36.0933V29.9697C11.8097 30.4093 14.4062 30.4093 16.9425 29.9697V36.0943C16.9425 37.8813 15.2252 39.3303 13.1075 39.3303Z" fill="#B3B3B3"/>
<path d="M21.2627 16.2185C22.3289 16.6777 23.2002 17.4785 23.7305 18.4868C24.2608 19.495 24.418 20.6495 24.1757 21.7568C23.9334 22.8641 23.3064 23.8569 22.3996 24.5691C21.4928 25.2813 20.3614 25.6695 19.1948 25.6687H7.50586C6.3393 25.6695 5.20788 25.2813 4.30111 24.5691C3.39435 23.8569 2.76731 22.8641 2.52502 21.7568C2.28274 20.6495 2.43991 19.495 2.97023 18.4868C3.50055 17.4785 4.37179 16.6777 5.43804 16.2185C4.75678 15.5412 4.2904 14.6882 4.0944 13.761C3.8984 12.8339 3.98104 11.8716 4.33247 10.9887C4.68391 10.1059 5.28935 9.33955 6.07675 8.78097C6.86415 8.2224 7.80035 7.8951 8.77396 7.83801C8.41097 7.14853 8.22204 6.38521 8.22275 5.61098C8.27647 4.33506 8.8366 3.12873 9.78596 2.24439C10.7353 1.36004 12.0004 0.866211 13.3164 0.866211C14.6324 0.866211 15.8974 1.36004 16.8468 2.24439C17.7961 3.12873 18.3563 4.33506 18.41 5.61098C18.4107 6.38521 18.2218 7.14853 17.8588 7.83801C18.84 7.87966 19.7877 8.19631 20.5873 8.74965C21.387 9.30298 22.0042 10.0693 22.3644 10.9559C22.7247 11.8425 22.8124 12.8114 22.6171 13.7453C22.4217 14.6793 21.9516 15.5383 21.2637 16.2185H21.2627Z" fill="#71AA0E"/>
<path d="M11.6287 34.5783C11.4459 34.5783 11.2706 34.5079 11.1413 34.3824C11.0121 34.257 10.9395 34.0869 10.9395 33.9095V13.8652C10.9395 13.6875 11.0122 13.5171 11.1416 13.3915C11.2711 13.2659 11.4467 13.1953 11.6298 13.1953C11.8129 13.1953 11.9885 13.2659 12.1179 13.3915C12.2474 13.5171 12.3201 13.6875 12.3201 13.8652V33.9095C12.3201 33.9975 12.3022 34.0846 12.2675 34.1659C12.2327 34.2472 12.1817 34.321 12.1175 34.3832C12.0533 34.4453 11.977 34.4945 11.8932 34.528C11.8093 34.5615 11.7194 34.5786 11.6287 34.5783Z" fill="white"/>
<path d="M11.5691 21.6475C11.4377 21.648 11.3088 21.6121 11.1977 21.5439C11.0867 21.4757 10.998 21.3782 10.9422 21.2627C10.8864 21.1472 10.8657 21.0187 10.8827 20.8922C10.8997 20.7658 10.9536 20.6467 11.0381 20.5489L15.7324 15.1231C15.7905 15.0554 15.8618 14.9995 15.9423 14.9586C16.0227 14.9177 16.1106 14.8925 16.201 14.8846C16.2915 14.8766 16.3826 14.886 16.4693 14.9123C16.556 14.9385 16.6365 14.9811 16.7063 15.0375C16.776 15.094 16.8336 15.1632 16.8758 15.2412C16.9179 15.3192 16.9438 15.4046 16.952 15.4923C16.9602 15.5801 16.9505 15.6685 16.9235 15.7526C16.8964 15.8368 16.8526 15.9149 16.7944 15.9825L12.1001 21.4095C12.0351 21.4845 11.9538 21.5448 11.862 21.586C11.7702 21.6271 11.6702 21.6481 11.5691 21.6475Z" fill="white"/>
<path d="M11.6802 21.6486C11.579 21.6491 11.4789 21.6279 11.3871 21.5866C11.2954 21.5452 11.2141 21.4848 11.1491 21.4095L6.46122 15.9816C6.34377 15.8449 6.28707 15.6686 6.3036 15.4913C6.32013 15.3141 6.40854 15.1505 6.54938 15.0365C6.69021 14.9226 6.87194 14.8676 7.05458 14.8836C7.23723 14.8996 7.40582 14.9854 7.52328 15.1221L12.2048 20.55C12.2893 20.6477 12.3432 20.7669 12.3602 20.8933C12.3771 21.0198 12.3565 21.1483 12.3007 21.2638C12.2449 21.3793 12.1562 21.4768 12.0451 21.545C11.9341 21.6132 11.8052 21.6491 11.6738 21.6486H11.6802Z" fill="white"/>
<path d="M11.6259 40.0002C10.4263 39.9991 9.2762 39.5363 8.42796 38.7132C7.57972 37.8901 7.10269 36.7741 7.10156 35.6101V29.9698C7.10135 29.8716 7.1234 29.7745 7.16617 29.6854C7.20893 29.5964 7.27136 29.5176 7.34902 29.4545C7.42665 29.3923 7.51724 29.347 7.61459 29.3219C7.71194 29.2969 7.81373 29.2925 7.91297 29.3092L8.68615 29.4432C10.6304 29.7821 12.6214 29.7821 14.5657 29.4432L15.3389 29.3092C15.4381 29.2921 15.54 29.2962 15.6373 29.3214C15.7347 29.3465 15.8252 29.3921 15.9025 29.4549C15.9798 29.5177 16.0419 29.5961 16.0845 29.6848C16.1271 29.7734 16.1492 29.87 16.1492 29.9678V35.608C16.1487 36.7722 15.672 37.8886 14.8239 38.7121C13.9759 39.5356 12.8257 39.9989 11.6259 40.0002ZM8.48011 30.7695V35.6131C8.48011 36.4226 8.81149 37.1989 9.40134 37.7712C9.9912 38.3436 10.7912 38.6651 11.6254 38.6651C12.4596 38.6651 13.2596 38.3436 13.8494 37.7712C14.4393 37.1989 14.7707 36.4226 14.7707 35.6131V30.7695C12.69 31.1278 10.5606 31.1274 8.48011 30.7685V30.7695Z" fill="white"/>
<path d="M17.4718 26.3369C16.6162 26.3411 15.7709 26.1557 15.0004 25.7948C14.9189 25.7563 14.8461 25.7026 14.786 25.6368C14.7259 25.571 14.6798 25.4943 14.6503 25.4112C14.6208 25.3281 14.6084 25.2402 14.6139 25.1524C14.6194 25.0647 14.6426 24.9788 14.6823 24.8998C14.722 24.8208 14.7773 24.7501 14.8451 24.6918C14.913 24.6335 14.9919 24.5888 15.0776 24.5601C15.1633 24.5314 15.2539 24.5194 15.3443 24.5248C15.4348 24.5301 15.5232 24.5526 15.6047 24.5911C16.188 24.8649 16.828 25.0059 17.476 25.0034C18.4852 25.0052 19.4644 24.6702 20.2492 24.0545C21.034 23.4388 21.5768 22.58 21.7864 21.622C21.9959 20.6641 21.8596 19.6653 21.4002 18.7934C20.9409 17.9214 20.1864 17.2293 19.2635 16.8331C19.162 16.7892 19.073 16.7221 19.004 16.6377C18.9351 16.5532 18.8882 16.4538 18.8673 16.3479C18.8464 16.2421 18.8523 16.1329 18.8842 16.0297C18.9162 15.9265 18.9735 15.8323 19.051 15.7551C19.646 15.1672 20.0526 14.4245 20.2216 13.617C20.3906 12.8095 20.3148 11.9717 20.0033 11.2052C19.6918 10.4386 19.158 9.7761 18.4665 9.29782C17.775 8.81954 16.9554 8.54601 16.107 8.51034C15.9919 8.50513 15.88 8.47201 15.7815 8.414C15.683 8.35599 15.6011 8.27495 15.5432 8.17828C15.4853 8.08162 15.4533 7.97241 15.4501 7.86065C15.4469 7.74888 15.4727 7.63813 15.525 7.53852C15.8394 6.94352 16.0026 6.28416 16.0008 5.6155C16.0008 4.48204 15.5368 3.39501 14.7108 2.59353C13.8848 1.79205 12.7646 1.34178 11.5965 1.34178C10.4284 1.34178 9.30811 1.79205 8.48214 2.59353C7.65617 3.39501 7.19214 4.48204 7.19214 5.6155C7.19038 6.28416 7.35353 6.94352 7.66794 7.53852C7.71998 7.63738 7.74584 7.74725 7.7432 7.85822C7.74056 7.9692 7.70949 8.07779 7.6528 8.17421C7.59611 8.27063 7.51558 8.35184 7.41848 8.41052C7.32137 8.4692 7.21073 8.5035 7.09655 8.51034C6.25485 8.5596 5.44545 8.84246 4.76466 9.32526C4.08386 9.80805 3.56033 10.4705 3.25634 11.2337C2.95236 11.9969 2.88072 12.8287 3.04996 13.6303C3.21919 14.4319 3.62217 15.1694 4.21095 15.7551C4.28876 15.8323 4.34618 15.9265 4.37831 16.0299C4.41043 16.1332 4.41631 16.2425 4.39544 16.3485C4.37457 16.4545 4.32757 16.5541 4.25846 16.6386C4.18934 16.7232 4.10017 16.7903 3.99854 16.8341C3.07559 17.2303 2.32114 17.9224 1.86177 18.7944C1.40241 19.6664 1.26607 20.6651 1.47564 21.6231C1.68522 22.581 2.22794 23.4399 3.01277 24.0555C3.79759 24.6712 4.77676 25.0062 5.78598 25.0044C6.43396 25.007 7.074 24.866 7.65732 24.5922C7.73911 24.551 7.82859 24.5261 7.92047 24.519C8.01234 24.5119 8.10474 24.5228 8.1922 24.551C8.27967 24.5792 8.36042 24.6241 8.42968 24.6831C8.49894 24.7421 8.5553 24.814 8.59544 24.8945C8.63557 24.975 8.65865 25.0625 8.66333 25.1518C8.66801 25.2411 8.65418 25.3305 8.62266 25.4145C8.59114 25.4985 8.54258 25.5756 8.47983 25.6411C8.41709 25.7066 8.34145 25.7592 8.25738 25.7959C7.48684 26.1567 6.64156 26.3421 5.78598 26.3379C4.53769 26.3399 3.32232 25.9495 2.32187 25.2251C1.32141 24.5007 0.589706 23.4813 0.236315 22.3196C-0.117077 21.1579 -0.0731362 19.9163 0.361554 18.7809C0.796244 17.6454 1.59829 16.6771 2.6476 16.021C2.09612 15.2685 1.74463 14.3954 1.62434 13.4794C1.50405 12.5634 1.61867 11.6328 1.95804 10.7701C2.29741 9.90734 2.85102 9.13928 3.56973 8.53402C4.28845 7.92876 5.15005 7.50504 6.07804 7.30046C5.89879 6.75435 5.80815 6.18452 5.80934 5.61138C5.80934 4.12315 6.41861 2.69587 7.50311 1.64354C8.58761 0.591198 10.0585 0 11.5922 0C13.1259 0 14.5968 0.591198 15.6814 1.64354C16.7659 2.69587 17.3751 4.12315 17.3751 5.61138C17.3765 6.18084 17.2873 6.7471 17.1107 7.29016C18.0477 7.48356 18.9205 7.90023 19.6501 8.5026C20.3798 9.10498 20.9435 9.87411 21.2904 10.7406C21.6373 11.6072 21.7564 12.5439 21.6371 13.4662C21.5178 14.3886 21.1638 15.2677 20.607 16.0241C21.6555 16.6803 22.457 17.6482 22.8914 18.7832C23.3259 19.9181 23.3699 21.159 23.017 22.3203C22.6641 23.4816 21.9331 24.5007 20.9336 25.2253C19.934 25.9499 18.7195 26.341 17.4718 26.34V26.3369Z" fill="white"/>
</svg>
