<svg width="24" height="40" viewBox="0 0 24 40" fill="none" xmlns="http://www.w3.org/2000/svg">
<g id="Group 45556">
<path id="Vector" d="M13.5295 39.3303C11.3437 39.3303 9.57227 37.8813 9.57227 36.0933V29.9697C12.1901 30.4093 14.87 30.4093 17.4878 29.9697V36.0943C17.4878 37.8813 15.7152 39.3303 13.5295 39.3303Z" fill="#A6A6A6"/>
<path id="Vector_2" d="M12.0024 34.5783C11.8138 34.5783 11.6328 34.5079 11.4994 34.3824C11.366 34.257 11.291 34.0869 11.291 33.9095V13.8652C11.291 13.6875 11.3661 13.5171 11.4997 13.3915C11.6333 13.2659 11.8146 13.1953 12.0035 13.1953C12.1925 13.1953 12.3737 13.2659 12.5074 13.3915C12.641 13.5171 12.716 13.6875 12.716 13.8652V33.9095C12.716 33.9975 12.6976 34.0846 12.6617 34.1659C12.6258 34.2472 12.5732 34.321 12.5069 34.3832C12.4406 34.4453 12.3619 34.4945 12.2754 34.528C12.1888 34.5615 12.096 34.5786 12.0024 34.5783Z" fill="white"/>
<path id="Vector_3" d="M11.9409 21.6475C11.8053 21.648 11.6723 21.6121 11.5577 21.5439C11.443 21.4757 11.3515 21.3782 11.2939 21.2627C11.2363 21.1472 11.215 21.0187 11.2325 20.8922C11.2501 20.7658 11.3057 20.6467 11.3929 20.5489L16.238 15.1231C16.298 15.0554 16.3716 14.9995 16.4546 14.9586C16.5376 14.9177 16.6284 14.8925 16.7217 14.8846C16.8151 14.8766 16.9091 14.886 16.9986 14.9123C17.0881 14.9385 17.1712 14.9811 17.2432 15.0375C17.3151 15.094 17.3746 15.1632 17.4181 15.2412C17.4616 15.3192 17.4884 15.4046 17.4968 15.4923C17.5053 15.5801 17.4953 15.6685 17.4673 15.7526C17.4394 15.8368 17.3942 15.9149 17.3341 15.9825L12.489 21.4095C12.4219 21.4845 12.338 21.5448 12.2432 21.586C12.1485 21.6271 12.0453 21.6481 11.9409 21.6475Z" fill="white"/>
<path id="Vector_4" d="M12.0561 21.6486C11.9517 21.6491 11.8484 21.6279 11.7537 21.5866C11.659 21.5452 11.5751 21.4848 11.508 21.4095L6.6695 15.9816C6.54827 15.8449 6.48975 15.6686 6.50681 15.4913C6.52388 15.3141 6.61513 15.1505 6.76049 15.0365C6.90585 14.9226 7.09342 14.8676 7.28193 14.8836C7.47044 14.8996 7.64445 14.9854 7.76568 15.1221L12.5976 20.55C12.6848 20.6477 12.7404 20.7669 12.758 20.8933C12.7755 21.0198 12.7542 21.1483 12.6966 21.2638C12.639 21.3793 12.5475 21.4768 12.4328 21.545C12.3182 21.6132 12.1852 21.6491 12.0495 21.6486H12.0561Z" fill="white"/>
<path id="Vector_5" d="M11.9998 40.0002C10.7617 39.9991 9.57458 39.5363 8.69909 38.7132C7.8236 37.8901 7.33124 36.7741 7.33008 35.6101V29.9698C7.32986 29.8716 7.35262 29.7745 7.39676 29.6854C7.4409 29.5964 7.50533 29.5176 7.58549 29.4545C7.66561 29.3923 7.75912 29.347 7.85959 29.3219C7.96007 29.2969 8.06513 29.2925 8.16756 29.3092L8.96558 29.4432C10.9723 29.7821 13.0273 29.7821 15.034 29.4432L15.832 29.3092C15.9344 29.2921 16.0396 29.2962 16.1401 29.3214C16.2406 29.3465 16.334 29.3921 16.4138 29.4549C16.4935 29.5177 16.5576 29.5961 16.6016 29.6848C16.6456 29.7734 16.6684 29.87 16.6684 29.9678V35.608C16.6678 36.7722 16.1759 37.8886 15.3006 38.7121C14.4253 39.5356 13.2381 39.9989 11.9998 40.0002ZM8.75292 30.7695V35.6131C8.75292 36.4226 9.09494 37.1989 9.70375 37.7712C10.3126 38.3436 11.1383 38.6651 11.9992 38.6651C12.8602 38.6651 13.6859 38.3436 14.2948 37.7712C14.9036 37.1989 15.2456 36.4226 15.2456 35.6131V30.7695C13.0981 31.1278 10.9003 31.1274 8.75292 30.7685V30.7695Z" fill="white"/>
<path id="Vector_6" d="M18.0331 26.3369C17.1501 26.3411 16.2776 26.1557 15.4823 25.7948C15.3982 25.7563 15.3231 25.7026 15.2611 25.6368C15.1991 25.571 15.1515 25.4943 15.121 25.4112C15.0905 25.3281 15.0777 25.2402 15.0834 25.1524C15.0891 25.0647 15.1131 24.9788 15.154 24.8998C15.195 24.8208 15.2521 24.7501 15.3221 24.6918C15.3921 24.6335 15.4736 24.5888 15.562 24.5601C15.6504 24.5314 15.744 24.5194 15.8373 24.5248C15.9307 24.5301 16.022 24.5526 16.106 24.5911C16.7081 24.8649 17.3687 25.0059 18.0375 25.0034C19.0792 25.0052 20.0898 24.6702 20.8998 24.0545C21.7099 23.4388 22.27 22.58 22.4863 21.622C22.7026 20.6641 22.5619 19.6653 22.0878 18.7934C21.6137 17.9214 20.835 17.2293 19.8824 16.8331C19.7777 16.7892 19.6858 16.7221 19.6146 16.6377C19.5434 16.5532 19.495 16.4538 19.4735 16.3479C19.452 16.2421 19.458 16.1329 19.491 16.0297C19.524 15.9265 19.5831 15.8323 19.6631 15.7551C20.2772 15.1672 20.6969 14.4245 20.8713 13.617C21.0458 12.8095 20.9675 11.9717 20.646 11.2052C20.3245 10.4386 19.7735 9.7761 19.0598 9.29782C18.3461 8.81954 17.5002 8.54601 16.6245 8.51034C16.5057 8.50513 16.3902 8.47201 16.2886 8.414C16.1869 8.35599 16.1023 8.27495 16.0426 8.17828C15.9828 8.08162 15.9498 7.97241 15.9465 7.86065C15.9432 7.74888 15.9698 7.63813 16.0238 7.53852C16.3483 6.94352 16.5167 6.28416 16.5149 5.6155C16.5149 4.48204 16.036 3.39501 15.1835 2.59353C14.331 1.79205 13.1747 1.34178 11.9691 1.34178C10.7634 1.34178 9.60718 1.79205 8.75466 2.59353C7.90215 3.39501 7.42322 4.48204 7.42322 5.6155C7.4214 6.28416 7.58979 6.94352 7.9143 7.53852C7.96802 7.63738 7.99471 7.74725 7.99198 7.85822C7.98926 7.9692 7.95719 8.07779 7.89868 8.17421C7.84017 8.27063 7.75705 8.35184 7.65683 8.41052C7.5566 8.4692 7.44241 8.5035 7.32456 8.51034C6.45582 8.5596 5.62041 8.84246 4.91774 9.32526C4.21507 9.80805 3.67472 10.4705 3.36097 11.2337C3.04722 11.9969 2.97328 12.8287 3.14795 13.6303C3.32262 14.4319 3.73855 15.1694 4.34624 15.7551C4.42655 15.8323 4.48582 15.9265 4.51898 16.0299C4.55214 16.1332 4.55821 16.2425 4.53667 16.3485C4.51513 16.4545 4.46662 16.5541 4.39528 16.6386C4.32394 16.7232 4.2319 16.7903 4.12701 16.8341C3.17441 17.2303 2.39572 17.9224 1.92159 18.7944C1.44746 19.6664 1.30675 20.6651 1.52305 21.6231C1.73936 22.581 2.29953 23.4399 3.10957 24.0555C3.91961 24.6712 4.93023 25.0062 5.97188 25.0044C6.64068 25.007 7.30129 24.866 7.90334 24.5922C7.98776 24.551 8.08012 24.5261 8.17494 24.519C8.26977 24.5119 8.36514 24.5228 8.45541 24.551C8.54569 24.5792 8.62903 24.6241 8.70052 24.6831C8.772 24.7421 8.83018 24.814 8.8716 24.8945C8.91302 24.975 8.93685 25.0625 8.94168 25.1518C8.9465 25.2411 8.93223 25.3305 8.8997 25.4145C8.86717 25.4985 8.81704 25.5756 8.75228 25.6411C8.68753 25.7066 8.60945 25.7592 8.52268 25.7959C7.72739 26.1567 6.85495 26.3421 5.97188 26.3379C4.68348 26.3399 3.42906 25.9495 2.39646 25.2251C1.36387 24.5007 0.608653 23.4813 0.243907 22.3196C-0.120838 21.1579 -0.075486 19.9163 0.37317 18.7809C0.821827 17.6454 1.64965 16.6771 2.73267 16.021C2.16347 15.2685 1.80069 14.3954 1.67653 13.4794C1.55237 12.5634 1.67068 11.6328 2.02095 10.7701C2.37122 9.90734 2.94262 9.13928 3.68443 8.53402C4.42624 7.92876 5.31551 7.50504 6.27332 7.30046C6.08832 6.75435 5.99476 6.18452 5.99599 5.61138C5.99599 4.12315 6.62483 2.69587 7.74418 1.64354C8.86353 0.591198 10.3817 0 11.9647 0C13.5477 0 15.0658 0.591198 16.1852 1.64354C17.3045 2.69587 17.9334 4.12315 17.9334 5.61138C17.9348 6.18084 17.8428 6.7471 17.6604 7.29016C18.6276 7.48356 19.5283 7.90023 20.2815 8.5026C21.0346 9.10498 21.6164 9.87411 21.9744 10.7406C22.3325 11.6072 22.4554 12.5439 22.3323 13.4662C22.2092 14.3886 21.8438 15.2677 21.269 16.0241C22.3513 16.6803 23.1785 17.6482 23.6269 18.7832C24.0753 19.9181 24.1208 21.159 23.7565 22.3203C23.3922 23.4816 22.6378 24.5007 21.6061 25.2253C20.5744 25.9499 19.3209 26.341 18.0331 26.34V26.3369Z" fill="white"/>
</g>
</svg>
