<svg width="420" height="400" viewBox="0 0 420 400" fill="none" xmlns="http://www.w3.org/2000/svg">
<path d="M391.682 284.945C385.305 299.792 376.227 313.08 366.911 326.091H37.7641C12.7901 285.234 -0.72575 236.412 0.0300735 187.647C0.332826 167.939 2.95809 148.003 10.4211 129.956C17.884 111.909 30.5636 95.8564 47.2891 87.4212C76.9293 72.4826 112.965 84.0647 139.758 104.186C166.55 124.307 187.394 152.094 212.49 174.546C237.587 196.998 270.058 214.576 302.258 208.003C323.177 203.72 343.214 189.518 364.093 194.013C380.978 197.645 394.011 213.641 398.205 231.433C402.399 249.225 398.844 268.267 391.682 284.945Z" fill="#477414"/>
<path d="M382.508 295.053C382.607 297.726 380.743 300.63 379.757 303.026C376.821 310.207 374.123 317.554 370.93 324.624C370.009 326.655 368.98 327.69 366.738 328.042C363.25 328.596 359.439 328.339 355.911 328.45C347.72 328.707 339.525 328.944 331.329 329.162C323.132 329.38 314.938 329.578 306.746 329.756C302.984 329.837 298.734 330.453 295.006 329.955C293.796 329.789 292.931 329.487 292.3 328.747C286.903 325.223 282.822 318.734 284.482 312.107C285.831 306.686 290.752 302.765 296.197 302.702C292.414 294.977 293.99 284.945 300.736 279.277C310.015 271.474 319.79 278.247 326.779 285.385C331.082 274.192 338.32 263.07 351.984 264.495C364.705 265.809 373.222 276.027 378.841 286.619C380.123 289.037 382.398 292.209 382.508 295.053Z" fill="#6BAD1D"/>
<path d="M418.182 331.091C418.182 334.358 324.567 337 209.094 337C153.965 337 103.82 336.397 66.4508 335.416C62.5317 335.313 58.7535 335.205 55.1162 335.093C20.8947 334.035 0 332.637 0 331.091C0 330.468 3.39739 329.87 9.69889 329.307C23.9355 328.039 52.983 326.953 91.1187 326.212C124.698 325.567 165.321 325.182 209.086 325.182C324.567 325.182 418.182 327.831 418.182 331.091Z" fill="#81BC5B"/>
<path d="M286.263 329.727H190.913C190.827 327.116 192.457 323.69 193.49 321.76C193.411 321.613 193.384 321.443 193.414 321.279C194.204 316.014 199.56 314.836 204.101 314.836C203.661 313.637 203.475 312.359 203.555 311.084C203.635 309.809 203.978 308.565 204.563 307.43C205.148 306.295 205.962 305.294 206.953 304.491C207.944 303.688 209.092 303.1 210.322 302.765C215.082 301.457 219.575 303.839 221.884 307.792C222.47 304.642 224.212 301.695 225.934 299.026C227.836 296.086 230.661 293.168 234.45 293.374C241.853 293.772 242.729 304.186 242.029 310.514C244.664 308.478 248.37 307.958 251.365 309.78C254.246 311.531 255.483 314.929 255.013 318.112C259.229 315.209 264.862 315.945 268.292 319.902C268.99 318.289 270.127 316.905 271.573 315.908C273.019 314.911 274.715 314.341 276.468 314.264C280.984 314.079 285.144 316.995 287.259 320.87C288.184 322.602 288.794 324.485 289.059 326.432V326.457C289.121 326.861 289.095 327.274 288.983 327.667C288.871 328.06 288.675 328.424 288.41 328.734C288.144 329.045 287.815 329.294 287.445 329.465C287.074 329.637 286.671 329.726 286.263 329.727Z" fill="#934637"/>
<path d="M70.8194 271.268C68.9456 279.573 64.4841 287.205 61.5358 295.178C59.0284 301.951 56.9759 308.883 55.3921 315.928C54.8524 318.332 54.9205 322.094 53.4123 324.11C51.9596 326.051 49.3317 325.369 47.2207 325.369C39.4226 325.308 31.7304 326.758 24.134 328.326C21.2008 328.925 17.042 330.659 14.061 329.995C11.8466 329.512 10.9942 327.226 9.95759 325.419C6.67894 319.764 2.61594 313.922 0.762241 307.604C-0.919959 301.901 0.278012 296.039 3.41291 291.053C6.11653 286.752 10.4544 282.264 15.7558 281.61C21.1101 280.945 26.5677 284.328 31.3092 287.001C29.0948 278.647 27.9044 269.934 28.2701 261.296C28.5829 253.77 30.4441 246.003 35.8362 240.443C40.555 235.583 47.3746 233.242 53.9697 235.376C59.8435 237.282 64.3882 241.893 67.6265 247.037C68.3251 247.037 69.0591 247.792 68.6227 248.598C68.611 248.617 68.6016 248.639 68.595 248.661C68.658 248.771 68.7261 248.882 68.7892 248.99C68.8673 249.129 68.9123 249.284 68.9207 249.442C68.9292 249.601 68.9008 249.76 68.8379 249.906C68.7749 250.052 68.6791 250.182 68.5578 250.285C68.4365 250.388 68.293 250.462 68.1385 250.5C67.9796 253.891 70.8774 258.124 71.3491 261.218C71.8434 264.542 71.5609 267.983 70.8194 271.268Z" fill="#6BAD1D"/>
<path d="M133.132 142.807L145.624 204.479L138.214 203.245L115.801 151.251L133.132 142.807Z" fill="#FFBE9D"/>
<path d="M110.104 85.9043C109.096 89.5918 108.315 93.3373 107.764 97.1197C107.537 98.6701 107.353 100.273 107.764 101.789C108.175 103.304 109.294 104.726 110.835 105.03C111.34 101.826 111.592 98.7809 112.096 95.5793C112.318 94.1749 112.538 92.7403 112.308 91.3383C111.973 89.3701 110.155 87.8952 110.104 85.9043Z" fill="#263238"/>
<path d="M116.881 120.682C112.056 120.813 107.358 119.136 103.711 115.98C107.075 112.238 109.524 104.111 109.764 99.0742C111.734 100.688 113.766 102.145 115.794 103.622C117.264 104.71 118.737 105.794 120.172 106.96C119.097 109.747 118.186 112.594 117.443 115.487C117.025 117.068 117.065 119.441 116.881 120.682Z" fill="#FFBE9D"/>
<path d="M117.443 115.489C109.988 110.685 110.102 102.562 110.102 102.562L115.789 103.625C117.259 104.712 118.732 105.797 120.167 106.962C119.094 109.749 118.184 112.596 117.443 115.489Z" fill="#EB996E"/>
<path d="M130.155 86.7109C131.181 88.3696 131.887 91.4931 129.557 94.6594C128.49 96.1174 126.99 97.2025 125.27 97.7602C126.301 94.9916 127.242 92.1777 128.273 89.4015C129.199 89.6306 129.206 86.8267 130.155 86.7109Z" fill="#263238"/>
<path d="M121.671 111.089C118.587 112.312 114.231 110.236 112.146 107.887C110.06 105.539 109.394 103.13 109.301 99.9665C109.301 99.7827 109.301 99.594 109.301 99.4027C109.487 99.0671 109.661 98.7214 109.82 98.3657C110.242 97.4194 110.577 96.4201 110.905 95.4436C111.47 93.8126 112.128 92.1514 113.354 90.8879C114.867 89.3375 114.567 85.2022 116.743 84.9883C120.852 85.0386 127.951 89.1714 129.424 89.4256C129.484 89.4351 129.541 89.4574 129.591 89.4908C129.642 89.5243 129.684 89.5682 129.716 89.6196C129.748 89.6709 129.768 89.7285 129.776 89.7884C129.783 89.8483 129.778 89.9092 129.76 89.9668L128.599 93.8202C128.401 94.365 128.232 94.9204 128.095 95.4838C127.389 98.3582 127.301 101.336 126.489 104.19C125.676 107.044 124.516 109.949 121.671 111.089Z" fill="#FFBE9D"/>
<path d="M117.876 91.1091C119.47 90.7845 120.814 90.5806 122.138 91.6125C122.509 91.8995 122.226 92.4406 121.613 92.3072C119.924 91.9397 119.404 91.7887 117.787 91.907C117.069 91.9473 116.95 91.2979 117.876 91.1091Z" fill="#263238"/>
<path d="M128.792 94.4923C128.437 93.7951 127.688 93.4654 127.027 93.2112C126.585 93.0425 126.099 93.3496 126.543 93.7674C127.768 94.9151 127.852 94.7314 128.361 95.3757C128.712 95.8313 129.198 95.2901 128.792 94.4923Z" fill="#263238"/>
<path d="M126.241 96.6544C126.359 96.6296 126.483 96.652 126.584 96.717C126.686 96.7819 126.759 96.8842 126.786 97.0017C126.823 97.2402 126.803 97.4841 126.727 97.7132C126.65 97.9422 126.52 98.1496 126.347 98.3181C126.256 98.3972 126.137 98.4377 126.017 98.4312C125.896 98.4246 125.783 98.3714 125.701 98.2828C125.631 98.2043 125.591 98.1036 125.588 97.9984C125.484 97.5026 125.767 96.8205 126.241 96.6544Z" fill="#263238"/>
<path d="M119.232 94.233C119.35 94.2075 119.474 94.2297 119.576 94.2947C119.678 94.3598 119.75 94.4624 119.777 94.5803C119.814 94.8188 119.794 95.0627 119.718 95.2918C119.641 95.5208 119.511 95.7282 119.338 95.8967C119.247 95.9764 119.128 96.0173 119.008 96.0107C118.887 96.0042 118.774 95.9505 118.692 95.8614C118.622 95.7839 118.583 95.6838 118.581 95.5795C118.475 95.0812 118.75 94.3991 119.232 94.233Z" fill="#263238"/>
<path d="M111.574 93.668C110.894 95.7479 110.369 97.8756 110.006 100.033C109.625 102.155 109.567 104.367 110.144 106.444C110.729 108.537 111.932 110.406 113.597 111.808C115.261 113.209 117.31 114.078 119.476 114.302C120.162 114.377 120.855 114.367 121.539 114.271C121.543 114.274 121.547 114.275 121.551 114.275C121.556 114.275 121.56 114.274 121.564 114.271C127.183 112.872 126.608 105.437 126.497 104.34C126.459 104.272 126.414 104.206 126.376 104.143C125.458 102.714 124.439 101.199 122.845 100.584C122.374 100.782 121.845 100.794 121.365 100.617C120.757 100.416 120.086 100.577 119.496 100.826C118.906 101.075 118.353 101.415 117.746 101.611C115.867 102.203 113.71 101.196 112.679 99.5248C111.647 97.8536 111.642 95.6966 112.288 93.8416L111.574 93.668Z" fill="#263238"/>
<path d="M120.954 100.532C120.891 100.58 121.012 100.756 121.274 100.885C121.644 101.069 122.066 101.123 122.47 101.036C122.48 101.033 122.49 101.033 122.5 101.036C122.776 100.975 123.034 100.854 123.257 100.681C123.474 100.531 123.639 100.316 123.728 100.067C123.748 99.981 123.728 99.9357 123.693 99.9181C123.673 99.9101 123.65 99.9101 123.63 99.9181C123.448 100 123.272 100.093 123.103 100.197C122.9 100.306 122.685 100.39 122.462 100.449C122.435 100.461 122.406 100.468 122.376 100.472C122.052 100.543 121.718 100.559 121.388 100.52C121.156 100.479 120.997 100.462 120.954 100.532Z" fill="#EB996E"/>
<path d="M119.276 102.441C120.742 103.365 122.716 103.974 123.564 104.027C123.627 104.026 123.689 104.041 123.745 104.071C123.801 104.101 123.848 104.144 123.883 104.196C123.918 104.249 123.939 104.309 123.945 104.372C123.95 104.435 123.94 104.498 123.914 104.556C121.569 108.681 118.588 104.86 118.732 102.768C118.759 102.464 118.989 102.26 119.276 102.441Z" fill="white"/>
<path d="M110.179 84.3045C109.894 85.5353 110.03 86.8215 110.167 88.0799C110.434 90.5213 110.535 92.993 110.802 95.4319C112.326 94.5273 113.618 93.281 114.576 91.7918C115.534 90.3025 116.131 88.6112 116.32 86.8517C119.162 88.2999 122.146 89.4504 125.226 90.2847C126.565 90.6472 127.967 90.9517 129.332 90.6975C131.16 90.3577 132.693 89.0288 133.637 87.4255C134.58 85.8222 134.991 84.0126 135.251 82.1752C132.669 81.7553 130.147 81.0295 127.738 80.0132C129.016 80.5166 130.192 80.8689 131.579 80.8312C132 80.8312 131.904 80.1718 131.485 80.1818C127.955 80.2775 124.424 76.5298 120.953 77.4283C120.548 77.4229 120.144 77.4789 119.755 77.5944C119.026 77.8116 118.4 78.2833 117.99 78.9234C118.015 78.5136 118.072 78.1063 118.159 77.7052C118.247 77.2924 117.594 77.2194 117.506 77.6271C117.381 78.2061 117.319 78.7968 117.322 79.389C117.049 79.1222 116.772 78.8604 116.484 78.6113C116.197 78.3621 115.766 78.863 116.083 79.1298C116.265 79.2883 116.444 79.4494 116.618 79.6155C115.339 79.6004 113.907 80.1189 112.865 80.7179C112.198 81.1038 111.616 81.6205 111.154 82.2369C110.693 82.8533 110.361 83.5567 110.179 84.3045ZM127.062 79.7162C126.683 79.545 126.305 79.3689 125.937 79.1851C126.325 79.3689 126.701 79.5501 127.062 79.7162Z" fill="#263238"/>
<path d="M111.498 94.824C111.667 94.23 111.168 92.9716 110.666 92.5059C110.164 92.0403 109.372 92.0932 108.767 92.3172C107.21 92.8935 106.794 94.9826 106.981 96.5783C107.168 98.1741 108.517 99.6892 110.202 100.2C110.719 98.4811 111.001 96.5506 111.498 94.824Z" fill="#FFBE9D"/>
<path d="M116.551 308.58C117.262 315.116 117.101 321.717 116.074 328.212C125.877 329.86 135.897 330.761 145.822 330.129C146.901 330.062 148.185 329.845 148.624 328.856C148.939 328.141 148.641 327.275 148.104 326.706C147.567 326.138 146.843 325.8 146.122 325.478C141.514 323.397 136.871 321.272 132.853 318.207C128.836 315.141 125.449 311.001 124.22 306.105C121.958 307.286 118.896 307.57 116.551 308.58Z" fill="#272528"/>
<path d="M70.4414 307.119C70.5692 312.468 70.6944 317.816 70.8172 323.162C70.8979 326.434 71.082 329.99 73.2383 332.447L73.2585 332.47C73.8061 333.066 74.4746 333.539 75.2194 333.857C75.9643 334.176 76.7686 334.333 77.5788 334.317H90.7917C91.2666 334.332 91.7395 334.251 92.1818 334.078C92.6241 333.905 93.0264 333.644 93.3642 333.31C93.5675 333.116 93.7278 332.881 93.8346 332.621C93.9415 332.361 93.9926 332.081 93.9846 331.8C93.9367 330.826 93.0792 330.121 92.3201 329.505C89.387 327.161 86.7893 324.34 85.0591 321.02C83.329 317.7 82.5018 313.847 83.0945 310.144C78.5195 309.384 74.913 308.342 70.4414 307.119Z" fill="#272528"/>
<path d="M134.089 147.545C129.148 152.146 122.419 155.65 116.182 158.262L114.074 154.235L105.738 138.265C105.738 138.265 119.319 118.787 119.786 119.434C122.384 123.015 132.759 135.791 134.089 147.545Z" fill="#708CD5"/>
<path d="M96.3263 183.789L96.2279 186.835C96.1596 185.819 96.1926 184.798 96.3263 183.789Z" fill="#311649"/>
<path d="M122.431 139.908C121.744 144.659 120.571 149.327 118.93 153.839C118.678 154.551 118.408 155.264 118.131 155.968L113.213 167.101L109.763 175.709L109.137 179.887C101.399 178.847 93.3491 176.262 85.5938 172.039C77.9016 167.848 70.5019 164.151 65.4629 158.266C65.4629 158.266 71.6192 145.772 74.5902 139.09L74.6053 139.03C75.8363 134.171 76.5132 129.19 76.6229 124.18C76.8423 116.299 79.7276 103.757 96.547 107.714H96.5622C96.774 107.774 96.9808 107.837 97.1927 107.908C98.3629 108.288 99.5508 108.718 100.741 109.204L100.779 109.224C103.21 109.979 106.095 111.764 106.095 111.764L116.395 118.164L116.648 118.29C116.648 118.29 119.195 118.909 119.795 119.438C123.704 124.494 123.412 132.853 122.431 139.908Z" fill="#708CD5"/>
<path d="M114.111 166.286C117.601 160.034 119.513 152.77 120.302 145.708C120.375 145.064 119.361 145.069 119.293 145.708C118.524 152.587 116.638 159.689 113.24 165.775C112.923 166.344 113.795 166.855 114.113 166.279L114.111 166.286Z" fill="#5067A5"/>
<path d="M132.915 311.305C128.178 312.946 122.67 313.92 116.774 313.993C116.539 313.993 116.3 313.993 116.06 313.993C114.799 313.993 113.561 313.948 112.345 313.875L110.635 302.775L107.379 281.633L106.623 276.743L92.7262 186.433L92.3176 183.79L91.7325 203.641L89.6165 275.122L89.3643 283.931L88.7262 305.496L88.5245 312.267C86.5585 312.495 84.5819 312.62 82.6027 312.642C82.3505 312.642 82.1311 312.642 81.8915 312.642C80.6305 312.642 79.3922 312.596 78.1765 312.521C75.5692 312.357 72.9778 312 70.4238 311.451C70.0707 311.376 69.7277 311.293 69.3822 311.199C67.9568 310.861 66.5494 310.451 65.1653 309.971C65.1653 304.452 65.1275 292.365 65.0973 277.251C64.9838 234.632 64.8299 167.997 64.8047 157.363C64.8042 157.268 64.8332 157.175 64.8876 157.098C64.942 157.02 65.0192 156.961 65.1085 156.929C65.1979 156.897 65.295 156.894 65.3865 156.919C65.4779 156.944 65.5593 156.997 65.6193 157.071C76.3052 170.597 93.6139 131.033 93.6139 131.033L117.379 136.754L118.744 137.084L114.663 157.579C115.788 167.143 123.772 234.511 128.882 277.45C130.809 293.78 132.345 306.566 132.915 311.305Z" fill="#4F4A5A"/>
<path d="M116.778 313.993C116.544 313.993 116.304 313.993 116.07 313.993C113.8 301.539 113.19 298.028 110.773 284.758C110.309 282.242 109.82 279.412 109.301 276.347C105.303 252.62 99.9691 214.665 97.6563 194.431C97.1772 190.198 97.1116 185.32 96.3474 181.134C95.1822 182.01 94.007 182.896 92.8342 183.749C92.8014 184.64 92.7686 185.531 92.7434 186.425C92.5416 192.002 92.3449 197.576 92.1532 203.145C92.144 203.278 92.0846 203.402 91.987 203.493C91.8894 203.584 91.7609 203.634 91.6274 203.634C91.4939 203.634 91.3654 203.584 91.2678 203.493C91.1702 203.402 91.1108 203.278 91.1016 203.145C91.3218 196.948 91.5421 190.751 91.7623 184.555C91.7623 184.102 91.7951 183.661 91.8103 183.216C91.9162 179.907 92.028 176.604 92.1457 173.307C92.1684 172.632 93.215 172.627 93.1974 173.307C93.0898 176.344 92.9813 179.381 92.872 182.418L96.128 179.999C96.3348 179.841 96.5416 179.687 96.7509 179.536C98.0473 178.575 99.331 177.618 100.627 176.649C101.172 176.246 101.689 177.152 101.162 177.553C99.7623 178.59 98.3625 179.639 96.9628 180.684C99.3537 193.757 102.9 231.599 105.301 244.671C107.306 255.615 108.902 265.922 110.494 276.221C112.1 286.671 113.712 297.111 115.749 308.224C116.567 312.656 116.234 311.002 116.778 313.993Z" fill="#2C3136"/>
<path d="M70.4236 165.064V311.449C70.0705 311.373 69.72 311.29 69.377 311.197V165.064C69.377 164.39 70.4236 164.39 70.4236 165.064Z" fill="#2C3136"/>
<path d="M80.7882 173.037C80.2106 175.1 79.4849 177.119 78.6168 179.078C78.5688 179.193 78.5134 179.312 78.4604 179.43C77.3576 181.891 76.0269 184.243 74.4857 186.457C74.2562 186.789 74.0191 187.117 73.777 187.444C72.786 188.794 71.7218 190.089 70.5891 191.322C70.1301 191.826 69.3836 191.071 69.8476 190.582C70.9787 189.342 72.0445 188.044 73.0405 186.694C73.3407 186.279 73.6408 185.861 73.9232 185.435C75.4365 183.208 76.7305 180.841 77.787 178.365C77.9005 178.114 78.009 177.842 78.1073 177.58C78.7538 176.006 79.3087 174.396 79.7693 172.758C79.956 172.103 80.9622 172.383 80.7882 173.037Z" fill="#2C3136"/>
<path d="M117.1 118.349C117.1 118.349 114.101 143.687 106.094 111.742C106.094 111.742 114.164 112.029 117.1 118.349Z" fill="#FFBE9D"/>
<path d="M199.662 213.085C199.138 213.186 198.643 213.398 198.208 213.706C197.773 214.013 197.409 214.41 197.14 214.869L177.321 248.525C177.051 248.985 176.881 249.496 176.824 250.026C176.767 250.556 176.824 251.092 176.991 251.598C177.291 252.521 177.941 253.29 178.802 253.74C195.495 262.368 213.677 263.69 228.115 258.462C228.951 258.161 229.656 257.577 230.106 256.812C230.556 256.047 230.723 255.149 230.579 254.274C228.113 239.145 218.095 223.945 202.411 213.606C201.597 213.081 200.611 212.894 199.662 213.085Z" fill="#B8D2D8"/>
<path d="M29.9437 136.616L186.27 228.29L182.739 234.295L26.4104 142.624C25.9676 142.364 25.6464 141.94 25.5173 141.444C25.3882 140.948 25.4618 140.421 25.7218 139.979L27.2931 137.306C27.5534 136.864 27.9786 136.543 28.4755 136.414C28.9724 136.285 29.5004 136.358 29.9437 136.616Z" fill="#A55846"/>
<path d="M182.325 226.602L179.175 231.961C179.038 232.194 178.948 232.452 178.91 232.72C178.873 232.988 178.889 233.26 178.957 233.522C179.025 233.784 179.144 234.03 179.308 234.246C179.471 234.461 179.675 234.643 179.909 234.78L200.154 246.64C200.626 246.916 201.189 246.993 201.718 246.855C202.248 246.718 202.701 246.376 202.978 245.905L206.131 240.546C206.407 240.075 206.485 239.514 206.347 238.986C206.209 238.458 205.866 238.006 205.394 237.73L185.15 225.87C184.916 225.733 184.658 225.643 184.389 225.606C184.121 225.568 183.848 225.584 183.586 225.652C183.323 225.72 183.077 225.839 182.861 226.002C182.644 226.165 182.462 226.369 182.325 226.602Z" fill="#CDE4E8"/>
<path d="M83.7703 123.946H61.9774L41.6548 148.05L37.6523 144.579L52.666 111.907C53.2885 110.739 54.1738 109.731 55.2525 108.962C56.3312 108.193 57.5738 107.684 58.8829 107.475L75.324 105.101C85.2382 104.062 91.1902 116.704 84.0705 123.666C83.9671 123.759 83.8712 123.852 83.7703 123.946Z" fill="#FFBE9D"/>
<path d="M98.7216 108.786C98.7216 108.786 90.636 102.048 68.669 106.043C68.669 106.043 65.3399 116.418 67.645 125.265L83.201 125.929L98.7216 108.786Z" fill="#708CD5"/>
<path d="M147.512 203.193C148.07 203.893 148.467 204.707 148.674 205.577C148.881 206.447 148.893 207.352 148.71 208.227C148.624 208.62 148.422 209.073 148.024 209.126C147.625 209.179 147.31 208.788 147.123 208.431C146.696 207.607 146.448 206.702 146.397 205.776C145.806 205.964 145.178 206.004 144.567 205.893C143.957 205.781 143.384 205.522 142.897 205.137C142.411 204.752 142.027 204.254 141.78 203.687C141.532 203.119 141.428 202.499 141.477 201.882C141.476 201.688 141.517 201.496 141.596 201.319C141.675 201.141 141.791 200.983 141.936 200.853C142.422 200.498 144.309 201.127 144.849 201.321C145.891 201.69 146.812 202.338 147.512 203.193Z" fill="#FFBE9D"/>
<path d="M138.322 208.29C138.876 210.088 140.11 211.601 141.763 212.506C143.416 213.411 145.357 213.637 147.175 213.137C146.302 211.446 145.354 209.744 143.878 208.539C142.403 207.333 139.954 207.306 138.322 208.29Z" fill="#FFBE9D"/>
<path d="M45.4061 142.512C44.8297 145.981 43.3298 149.231 41.0632 151.923C37.8577 151.507 34.6875 149.658 32.9473 146.934C35.8703 145.054 38.2933 142.495 40.009 139.477C41.782 140.267 43.9484 141.236 45.4061 142.512Z" fill="#FFBE9D"/>
<path d="M114.474 140.028L97.2989 134.797C96.7339 134.626 96.4616 135.5 97.0265 135.673L109.233 139.391C110.54 139.789 112.499 140.03 113.801 140.69C113.796 140.704 113.79 140.719 113.783 140.732C113.662 141.081 113.559 141.435 113.475 141.795L112.398 145.507C111.793 147.583 110.434 150.289 110.381 152.454C110.379 152.476 110.379 152.499 110.381 152.522C109.672 152.174 108.804 152.018 108.058 151.767L100.318 149.209C98.3707 148.568 95.879 147.213 93.8286 147.068C93.7447 147.06 93.6602 147.06 93.5764 147.068C93.6372 147.012 93.6914 146.949 93.7378 146.881C94.3355 145.978 94.5347 144.392 94.8626 143.358C95.5973 141.062 96.3329 138.767 97.0694 136.471C97.2484 135.907 96.3733 135.638 96.1917 136.199C95.0148 139.854 93.8437 143.509 92.6785 147.163C92.645 147.279 92.6577 147.404 92.7141 147.511C92.7706 147.618 92.8662 147.699 92.9812 147.737L110.529 153.526C110.646 153.561 110.772 153.55 110.879 153.493C110.987 153.436 111.068 153.34 111.105 153.224C112.33 149.012 113.555 144.801 114.779 140.589C114.809 140.474 114.794 140.352 114.737 140.248C114.681 140.144 114.587 140.065 114.474 140.028Z" fill="#2C3136"/>
<path d="M93.6016 131.025C93.6016 131.025 97.7251 120.383 97.1955 107.887C97.1955 107.887 100.063 107.051 102.996 110.082C102.996 110.082 101.435 127.748 98.3026 133.58L93.6016 131.025Z" fill="#4F4A5A"/>
<path d="M117.099 118.35C117.099 118.35 117.856 129.882 115.127 137.69L118.731 137.065C118.731 137.065 120.918 128.614 120.736 120.67C120.736 120.68 120.025 117.99 117.099 118.35Z" fill="#4F4A5A"/>
<path d="M232.631 259.802C230.336 265.128 225.091 263.225 220.551 263.366C222.21 266.52 221.56 270.534 217.842 272.175C214.397 273.685 211.007 271.606 210.127 268.387C206.834 270.567 202.294 271.75 199.502 268.103C196.455 264.141 198.551 259.372 200.892 255.611C196.463 254.189 191.265 251.448 192.299 246.019C193.308 240.734 198.909 239.526 203.547 239.727C202.571 236.561 201.318 233.183 202.662 229.992C203.832 227.223 206.677 225.418 209.61 225.066C215.749 224.311 219.825 229.798 219.981 235.37C224.334 233.608 229.877 232.35 233 236.74C236.324 241.398 232.654 246.475 229.143 249.807C232.258 252.131 234.336 255.876 232.631 259.802Z" fill="#A55846"/>
<path d="M229.138 268.499C229.139 269.073 228.968 269.634 228.649 270.112C228.33 270.59 227.876 270.962 227.345 271.182C226.813 271.402 226.229 271.46 225.664 271.348C225.1 271.236 224.582 270.96 224.175 270.555C223.768 270.149 223.491 269.632 223.378 269.069C223.266 268.506 223.323 267.922 223.543 267.392C223.763 266.861 224.136 266.408 224.614 266.089C225.093 265.77 225.655 265.6 226.23 265.6C227.001 265.6 227.74 265.905 228.286 266.449C228.831 266.992 229.137 267.73 229.138 268.499Z" fill="#A55846"/>
<path d="M197.531 258.484C197.531 259.262 197.3 260.022 196.867 260.668C196.434 261.315 195.819 261.819 195.099 262.116C194.38 262.414 193.587 262.492 192.823 262.34C192.059 262.188 191.357 261.814 190.806 261.264C190.255 260.714 189.88 260.014 189.728 259.251C189.576 258.489 189.654 257.698 189.952 256.98C190.25 256.261 190.755 255.647 191.403 255.215C192.051 254.783 192.813 254.553 193.592 254.553C194.637 254.553 195.639 254.967 196.377 255.704C197.116 256.441 197.531 257.441 197.531 258.484Z" fill="#A55846"/>
<path d="M210.73 274.264C210.73 274.739 210.589 275.204 210.325 275.598C210.06 275.993 209.684 276.301 209.245 276.483C208.805 276.665 208.321 276.712 207.855 276.619C207.388 276.527 206.959 276.298 206.623 275.962C206.286 275.626 206.057 275.199 205.964 274.733C205.871 274.267 205.919 273.784 206.101 273.346C206.283 272.907 206.592 272.532 206.987 272.268C207.383 272.004 207.848 271.863 208.324 271.863C208.962 271.864 209.574 272.117 210.025 272.567C210.476 273.017 210.729 273.628 210.73 274.264Z" fill="#A55846"/>
<path d="M209.21 292.494C210.754 292.494 212.005 291.245 212.005 289.705C212.005 288.165 210.754 286.916 209.21 286.916C207.667 286.916 206.416 288.165 206.416 289.705C206.416 291.245 207.667 292.494 209.21 292.494Z" fill="#A55846"/>
<path d="M217.331 282.57C217.331 282.906 217.231 283.234 217.044 283.514C216.857 283.793 216.591 284.011 216.28 284.14C215.969 284.268 215.626 284.302 215.296 284.236C214.966 284.171 214.662 284.009 214.424 283.771C214.186 283.534 214.024 283.231 213.958 282.901C213.893 282.572 213.927 282.23 214.055 281.92C214.184 281.609 214.402 281.344 214.682 281.157C214.962 280.971 215.291 280.871 215.628 280.871C216.08 280.871 216.513 281.05 216.832 281.369C217.151 281.687 217.331 282.119 217.331 282.57Z" fill="#A55846"/>
<path d="M67.6448 125.769L84.656 126.433C85.3092 126.459 85.3067 125.449 84.656 125.427L67.6423 124.762C66.9916 124.737 66.9916 125.749 67.6423 125.769H67.6448Z" fill="#5067A5"/>
<path d="M231.208 329.727H159.116C156.647 329.727 154.827 327.355 155.66 325.084C155.666 325.067 155.672 325.05 155.68 325.034C156.593 322.636 159.093 321.677 161.514 321.804C160.145 316.82 161.306 310.721 167.105 309.126C173.159 307.471 176.216 313.202 177.665 318.021C182.051 312.722 190.442 314.343 193.465 320.363C196.691 316.931 201.671 316.277 205.666 318.701C205.268 314.593 205.873 309.918 210.789 308.971C215.993 307.962 219.544 312.134 221.316 316.347C224.423 314.625 226.452 312.55 230.314 314.759C231.758 315.603 232.976 316.77 233.866 318.163C234.756 319.557 235.293 321.137 235.433 322.773C235.548 324.478 235.217 326.183 234.47 327.729C234.176 328.329 233.714 328.836 233.137 329.19C232.559 329.544 231.89 329.73 231.208 329.727Z" fill="#A55846"/>
<path d="M106.615 331.918C105.364 332.14 104.111 332.354 102.857 332.56C102.109 333.251 101.317 333.892 100.486 334.481C99.5933 335.115 98.7333 334.018 99.0536 333.182C92.0928 334.282 85.1521 335.15 78.151 335.407C73.5222 335.303 69.0599 335.195 64.764 335.082C50.4413 333.839 36.1615 332.817 21.7783 332.686C19.3496 332.658 15.8768 333.348 13.6221 332.183C12.4998 331.611 11.7255 330.456 11.1227 329.255C10.7772 328.573 10.4948 327.869 10.2375 327.242C8.35606 322.727 8.59817 317.678 11.4077 313.578C14.1063 309.649 18.8301 307.399 23.5766 307.597C28.719 307.806 33.2082 310.766 37.8992 312.631C35.9346 296.02 32.5096 269.657 50.1942 260.448C57.9066 256.421 65.5105 261.339 69.6895 267.999C73.8484 274.626 74.8446 282.662 75.0993 290.399C80.8369 282.176 91.1723 270.264 100.133 280.269C108.753 289.924 100.36 305.043 94.2592 314.607C99.2049 313.618 104.769 313.744 107.043 319.115C108.01 321.34 108.1 323.848 107.296 326.137C106.798 327.559 106.069 328.889 105.137 330.073C105.45 330.023 105.76 329.968 106.078 329.912C107.376 329.696 107.929 331.692 106.615 331.918Z" fill="#7FC829"/>
<path d="M97.0412 279.229C88.4209 268.98 78.0074 278.753 71.8384 286.765C71.1903 277.087 68.9331 266.662 60.8121 260.556C53.3923 254.979 44.6963 257.448 38.8704 264.017C28.1391 276.146 30.6964 295.325 32.5047 310.29C25.5263 307.27 18.5705 303.663 11.1506 307.925C4.39661 311.803 2.43698 319.825 5.07756 326.824C5.54161 328.06 7.54916 327.524 7.07753 326.273C4.38904 319.145 7.05484 311.103 14.7067 308.591C21.4027 306.392 27.4985 310.462 33.4631 312.931C34.0457 313.182 34.8502 312.553 34.7746 311.924C33.1806 298.451 30.5955 282.305 37.3647 269.788C41.4832 262.172 50.444 256.136 58.7238 261.601C67.8309 267.611 69.5207 279.722 69.9015 289.697C69.9419 290.767 71.2508 291.049 71.8359 290.22C77.2079 282.597 89.6693 268.99 97.0311 282.891C102.242 292.732 94.3855 305.209 89.2128 313.381C88.4965 314.511 90.2922 315.553 91.0059 314.428C97.0614 304.889 105.894 289.752 97.0412 279.229Z" fill="#AAE286"/>
<path d="M308.075 207.13C307.477 205.535 306.877 203.919 306.705 202.225C306.534 200.531 306.836 198.724 307.893 197.385C308.95 196.046 310.554 195.371 312.112 194.735C314.781 193.661 317.471 192.649 320.183 191.699C319.731 195.668 321.156 199.474 320.619 203.433C320.513 204.468 320.168 205.464 319.61 206.343C318.506 207.959 316.46 208.726 314.498 208.777C312.536 208.827 309.954 207.702 308.075 207.13Z" fill="#7FC829"/>
<path d="M293.835 212.482C294.558 208.634 292.238 204.428 288.586 202.991C285.328 201.705 281.525 202.487 278.281 201.166C278.019 203.19 278.277 205.248 279.033 207.144C279.789 209.04 281.017 210.713 282.602 212.004C285.774 214.526 290.813 215.183 293.835 212.482Z" fill="#7FC829"/>
<path d="M332.844 248.727L323.442 256.182C322.387 257.167 321.014 257.746 319.571 257.815C317.876 257.896 299.225 254.855 299.225 254.855L299.004 250.723L298.953 249.655L317.649 247.856L324.234 240.26C325.778 243.514 329.692 246.927 332.844 248.727Z" fill="#F9938F"/>
<path d="M334.556 230.56C334.556 230.56 328.438 229.287 322.176 242.626C322.176 242.626 324.047 246.832 327.951 248.606L334.556 230.56Z" fill="#A2A2EA"/>
<path d="M324.439 279.096L326.394 311.969L326.845 319.54H336.85V279.096H324.439Z" fill="#FFBE9D"/>
<path d="M341.775 279.096L347.801 311.997L349.185 319.54H359.19L358.595 313.333L355.299 279.096H341.775Z" fill="#FFBE9D"/>
<path d="M358.595 313.333C355.028 312.666 351.423 312.219 347.801 311.996L349.185 319.547H359.19L358.595 313.333Z" fill="#EDEDED"/>
<path d="M326.395 311.969L326.846 319.543H336.843V311.67C333.701 311.675 330.22 311.766 326.395 311.969Z" fill="#EDEDED"/>
<path d="M323.322 289.565C327.242 290.823 330.359 291.578 335.529 291.578C336.434 291.578 337.33 291.558 338.212 291.508V291.296C338.235 288.689 337.847 284.501 337.867 283.119C338.24 284.334 339.38 290.337 339.602 291.578C341.486 291.923 345.173 292.112 347.266 292.112C351.314 292.112 355.067 291.42 358.152 290.232C357.672 286.192 356.638 273.889 355.995 268.453C355.677 265.78 355.466 263.821 355.471 263.467C355.471 262.905 355.087 262.518 354.633 262.618C349.667 263.67 344.684 263.489 339.685 263.25C334.984 263.016 330.276 262.762 325.59 262.223C325.244 261.748 324.399 261.891 324.349 262.727C324.238 264.375 324.139 266.029 324.049 267.675C323.89 270.511 323.322 288.533 323.322 289.565Z" fill="#364F8A"/>
<path d="M333.649 278.519L337.432 282.043C337.138 280.067 336.704 278.114 336.133 276.199C335.972 275.695 336.777 275.466 336.938 275.977C338.512 280.983 338.517 286.297 340.217 291.28C340.391 291.783 339.586 292.007 339.412 291.502C338.504 288.844 338.08 286.085 337.647 283.329C337.599 283.311 337.554 283.285 337.516 283.251L333.059 279.108C332.666 278.743 333.258 278.157 333.649 278.519Z" fill="#1F3666"/>
<path d="M349.824 267.717C350.162 269.174 350.49 270.695 351.294 271.981C352.051 273.206 353.214 274.062 354.394 274.86C353.837 271.883 352.964 268.981 352.661 265.963C352.608 265.429 353.441 265.434 353.494 265.963C353.844 269.456 355.078 272.791 355.489 276.282C355.97 280.395 356.074 284.52 356.982 288.577C357.098 289.098 356.293 289.332 356.177 288.799C355.33 285.023 355.168 281.167 354.767 277.319C354.719 276.861 354.656 276.405 354.586 275.952C354.549 275.942 354.513 275.928 354.48 275.91C353.158 275.031 351.799 274.125 350.861 272.819C349.827 271.379 349.411 269.627 349.022 267.931C348.901 267.418 349.706 267.194 349.824 267.717Z" fill="#1F3666"/>
<path d="M315.692 327.002C315.191 327.248 314.734 327.573 314.337 327.964C314.141 328.161 313.996 328.404 313.914 328.67C313.833 328.936 313.818 329.218 313.871 329.492C313.951 329.737 314.086 329.96 314.266 330.145C314.446 330.33 314.667 330.472 314.91 330.559C315.397 330.729 315.907 330.82 316.423 330.831C323.215 331.296 330.042 331.017 336.821 330.415C337.505 330.355 338.299 330.222 338.617 329.615C338.829 329.215 338.756 328.727 338.675 328.281C338.063 324.821 337.448 321.36 336.831 317.899C336.857 318.042 331.825 318.163 331.366 318.15C330.428 318.11 329.494 318.026 328.564 317.899C327.961 317.816 327.288 317.592 326.743 317.954C326.269 318.266 325.951 318.946 325.608 319.381C325.117 320.001 324.588 320.589 324.025 321.143C322.893 322.246 321.667 323.248 320.36 324.138C318.862 325.185 317.286 326.114 315.692 327.002Z" fill="#272528"/>
<path d="M348.319 323.267C347.582 325.424 346.432 327.41 345.292 329.383C344.854 330.139 344.445 331.178 345.063 331.795C345.398 332.132 345.92 332.185 346.397 332.215C350.402 332.461 354.422 332.346 358.407 331.873C359.499 331.742 360.76 331.467 361.234 330.476C361.542 329.836 361.416 329.084 361.282 328.387C360.682 325.229 360.082 322.069 359.484 318.908C359.418 318.571 359.333 318.198 359.048 318.004C358.763 317.811 358.291 317.886 357.92 317.979C354.669 318.775 351.792 317.914 348.755 316.93C348.389 317.451 348.682 322.22 348.319 323.267Z" fill="#272528"/>
<path d="M358.424 247.769C357.149 251.207 356.454 254.832 356.369 258.496C356.291 262.893 356.172 268.126 356.044 269.279C351.179 270.364 346.194 270.815 341.214 270.62C335.431 270.424 328.296 269.39 323.693 267.867C323.756 267.195 324.145 264.678 324.667 261.393C324.959 259.579 325.292 257.525 325.623 255.426C326.319 251.092 327.055 246.546 327.545 243.435C327.91 241.122 328.218 239.182 328.392 238.004C328.621 236.493 328.551 233.954 329.673 232.718C330.248 232.153 330.943 231.723 331.706 231.46C332.521 231.153 333.383 230.923 334.087 230.705C334.101 230.695 334.118 230.69 334.135 230.689C334.276 230.649 334.42 230.601 334.553 230.571C334.894 230.468 335.234 230.382 335.562 230.302C339.027 229.493 342.617 229.369 346.129 229.939C346.25 229.732 346.448 229.58 346.679 229.515C346.911 229.45 347.159 229.478 347.37 229.592C347.424 229.617 347.473 229.652 347.514 229.695C347.615 229.788 347.733 229.884 347.837 229.98C348.157 229.772 348.532 229.665 348.914 229.67C362.397 231.178 360.656 241.678 358.424 247.769Z" fill="#A2A2EA"/>
<path d="M334.573 233.55C334.712 235.095 335.077 236.804 336.013 237.856C336.287 238.178 336.626 238.44 337.007 238.623C337.389 238.806 337.804 238.908 338.228 238.921C340.225 238.989 342.689 237.255 345.884 233.515C346.671 232.603 347.493 231.569 348.366 230.409C348.378 230.388 348.394 230.369 348.412 230.353L348.949 229.661L348.722 229.633C348.279 229.572 347.832 229.548 347.385 229.563C347.383 229.569 347.383 229.577 347.385 229.583C347.175 229.469 346.928 229.44 346.698 229.504C346.467 229.568 346.27 229.719 346.149 229.925C342.635 229.357 339.043 229.484 335.577 230.298C335.236 230.373 334.891 230.464 334.568 230.55C334.486 231.548 334.488 232.552 334.573 233.55Z" fill="white"/>
<path d="M335.683 230.352C335.683 230.352 334.076 247.588 347.524 229.695L346.782 228.135C346.782 228.135 338.987 228.782 335.683 230.352Z" fill="#FFBE9D"/>
<path d="M333 194.508C333 194.508 327.33 201.052 328.629 207.11L335.186 197.87L333 194.508Z" fill="#263238"/>
<path d="M347.855 220.16L347.525 229.689C347.525 229.689 340.284 232.855 335.686 230.346L335.558 229.566L335.412 228.645L334.236 221.215L344.143 220.445L347.855 220.16Z" fill="#FFBE9D"/>
<path d="M347.48 222.369C347.48 222.369 341.946 229.069 335.558 229.565L335.412 228.644L334.236 221.214L344.143 220.443L347.48 222.369Z" fill="#EB996E"/>
<path d="M326.966 220.583C328.827 225.574 335.289 227.631 340.139 226.526C343.19 225.824 345.753 224.18 347.826 222.021C350.512 219.728 352.325 214.958 352.325 214.958C352.921 213.492 353.421 211.989 353.821 210.458C354.121 209.328 354.83 207.674 354.494 206.494C354.212 205.487 352.981 204.772 352.224 204.183C348.334 201.167 343.762 199.152 338.908 198.314C336.638 197.923 335.052 196.605 333.067 197.883C332.965 197.863 332.858 197.878 332.766 197.927C332.674 197.976 332.602 198.056 332.562 198.153C330.845 201.825 328.56 206.73 327.425 210.621C326.482 213.833 325.745 217.339 326.966 220.583Z" fill="#FFBE9D"/>
<path d="M334.293 215.47C334.311 215.546 334.114 215.601 333.844 215.541C333.46 215.455 333.117 215.241 332.871 214.934C332.867 214.925 332.861 214.917 332.853 214.911C332.687 214.7 332.569 214.456 332.508 214.194C332.436 213.954 332.444 213.697 332.53 213.462C332.566 213.384 332.601 213.356 332.644 213.371C332.665 213.374 332.685 213.385 332.699 213.401C332.783 213.571 332.856 213.746 332.919 213.925C333.004 214.125 333.112 214.315 333.241 214.491C333.255 214.515 333.272 214.537 333.292 214.557C333.489 214.804 333.726 215.017 333.993 215.186C334.177 215.312 334.303 215.392 334.293 215.47Z" fill="#EB996E"/>
<path d="M340.848 207.952C341.467 208.053 342.054 208.294 342.566 208.655C343.078 209.016 343.502 209.488 343.804 210.036C344.024 210.471 344.034 210.818 343.87 210.919C343.542 211.118 342.748 210.484 341.756 209.797C340.765 209.109 339.9 208.568 339.991 208.178C340.046 207.987 340.374 207.886 340.848 207.952Z" fill="#263238"/>
<path d="M334.732 205.495C334.296 205.191 333.781 205.021 333.249 205.006C332.693 204.972 332.137 205.081 331.635 205.323C331.232 205.527 331.007 205.787 331.045 205.963C331.118 206.31 331.998 206.297 333.03 206.365C334.061 206.433 334.927 206.534 335.111 206.177C335.194 206.008 335.063 205.741 334.732 205.495Z" fill="#263238"/>
<path d="M357.568 208.707C355.835 212.76 353.46 215.586 349.987 218.307C349.987 218.307 343.513 212.979 350.759 205.179C346.632 205.27 342.518 204.675 338.587 203.417C336.317 202.715 333.924 201.715 332.658 199.697C331.629 198.051 331.52 195.987 331.737 194.062C332.044 191.368 332.925 188.771 334.322 186.445C337.067 186.868 339.768 187.537 342.393 188.444C355.482 193.108 354.794 201.63 354.794 201.63C356.494 202.717 357.919 203.195 358.257 205.181C358.443 206.377 358.042 207.587 357.568 208.707Z" fill="#263238"/>
<path d="M352.716 220.616C351.546 221.814 349.223 222.468 347.71 221.484C347.1 221.094 347.291 220.618 347.556 220.052C347.98 219.148 348.419 218.245 348.857 217.346L349.914 215.869C350.789 214.756 352.456 214.532 353.412 215.781C354.497 217.21 353.874 219.433 352.716 220.616Z" fill="#FFBE9D"/>
<path d="M349.667 218.039C350.346 217.355 351.232 216.912 352.189 216.781C352.587 216.726 352.736 217.337 352.335 217.392C351.487 217.504 350.702 217.897 350.105 218.507C349.813 218.787 349.384 218.326 349.667 218.039Z" fill="#EB996E"/>
<path d="M340.486 211.364C340.622 211.339 340.762 211.37 340.877 211.448C340.991 211.526 341.07 211.646 341.096 211.782C341.13 212.057 341.097 212.336 341 212.596C340.903 212.855 340.745 213.088 340.539 213.274C340.431 213.361 340.294 213.403 340.156 213.391C340.018 213.379 339.89 213.313 339.8 213.209C339.723 213.116 339.682 212.999 339.684 212.879C339.583 212.305 339.926 211.532 340.486 211.364Z" fill="#263238"/>
<path d="M331.907 208.393C332.044 208.369 332.185 208.399 332.3 208.478C332.414 208.556 332.493 208.677 332.52 208.813C332.552 209.088 332.519 209.367 332.422 209.627C332.325 209.886 332.168 210.119 331.962 210.306C331.855 210.393 331.717 210.434 331.579 210.422C331.441 210.409 331.313 210.343 331.223 210.238C331.147 210.145 331.105 210.028 331.107 209.908C331.007 209.334 331.35 208.564 331.907 208.393Z" fill="#263238"/>
<path d="M336.379 217.959C334.109 217.79 331.61 216.854 330.717 216.217C330.647 216.168 330.566 216.137 330.481 216.126C330.397 216.114 330.31 216.124 330.23 216.153C330.15 216.183 330.078 216.231 330.02 216.295C329.963 216.358 329.921 216.434 329.9 216.517C328.581 223.005 334.916 221.196 336.626 218.757C336.873 218.404 336.825 217.992 336.379 217.959Z" fill="white"/>
<path d="M324.163 267.883L328.733 239.487C328.829 238.895 327.893 238.87 327.8 239.454C326.276 248.919 324.752 258.385 323.227 267.85C323.134 268.441 324.067 268.467 324.163 267.883Z" fill="#7B7BD6"/>
<path d="M314.843 197.45C314.508 197.175 311.718 199.715 308.538 204.862C306.695 207.893 305.168 211.105 303.981 214.447C303.476 215.861 303.01 217.354 302.604 218.904C300.707 217.072 298.851 215.471 297.126 214.059C294.325 211.77 291.399 209.637 288.362 207.671C286.21 206.299 284.937 205.657 284.793 205.844C284.649 206.03 285.64 207.059 287.522 208.766C289.403 210.472 292.185 212.868 295.466 215.944C297.451 217.812 299.623 219.946 301.819 222.38C301.514 223.93 301.27 225.526 301.09 227.162C300.647 231.502 300.718 235.879 301.302 240.202C301.772 243.718 302.605 247.177 303.789 250.522C305.829 256.22 308.046 259.273 308.427 259.079C308.931 258.845 307.542 255.45 306.2 249.822C304.858 244.194 303.713 236.251 304.626 227.547C304.684 227.003 304.747 226.462 304.818 225.929C305 224.539 305.224 223.186 305.491 221.869C306.588 216.41 308.354 211.106 310.75 206.078C313.234 200.825 315.274 197.785 314.843 197.45Z" fill="#A55846"/>
<path d="M351.821 251.07L342.257 261.337C341.706 261.93 341.022 262.385 340.261 262.664C339.5 262.944 338.684 263.04 337.879 262.945L324.666 261.395C324.959 259.58 325.291 257.526 325.622 255.427L351.821 251.07Z" fill="#7B7BD6"/>
<path d="M317.972 247.745C316.206 244.826 313.884 242.304 311.712 239.671C311.245 239.105 310.792 238.539 310.345 237.955C308.3 235.294 306.633 232.236 306.083 228.969C306.03 228.643 305.863 228.346 305.611 228.132C305.359 227.917 305.039 227.799 304.708 227.799C304.048 227.799 303.375 227.824 302.691 227.874C302.007 227.927 301.336 228.005 300.673 228.106C300.346 228.157 300.048 228.323 299.832 228.573C299.615 228.823 299.495 229.142 299.493 229.473C299.45 232.782 298.267 236.059 296.65 238.999C296.305 239.636 295.937 240.258 295.561 240.897C293.816 243.829 291.896 246.686 290.605 249.834C289.031 253.66 288.492 258.196 290.456 261.84C292.202 265.072 295.667 267.085 299.243 267.934C299.546 268.009 299.858 268.075 300.166 268.127C303.888 268.827 307.729 268.533 311.301 267.277C311.599 267.179 311.896 267.065 312.184 266.947C315.588 265.565 318.706 263.048 319.941 259.59C321.336 255.689 320.11 251.289 317.972 247.745Z" fill="#364F8A"/>
<path d="M351.821 251.067L342.154 258.18C341.064 259.127 339.672 259.656 338.227 259.672C336.53 259.692 318.003 255.98 318.003 255.98L317.93 251.842V250.775L336.679 249.647L343.45 240.977C344.86 244.294 348.734 249.167 351.821 251.067Z" fill="#FFBE9D"/>
<path d="M320.8 252.754C320.828 253.583 320.562 254.394 320.05 255.047C319.537 255.699 318.811 256.15 317.998 256.321C317.012 256.532 316.063 256.739 315.526 256.897C314.77 257.119 313.993 257.333 313.219 257.212C313.076 257.192 312.935 257.161 312.797 257.119C311.536 257.119 310.038 256.759 309.587 255.566C309.531 255.42 309.494 255.268 309.476 255.113C309.31 255.08 309.152 255.017 309.009 254.926C308.548 254.572 308.533 253.988 308.472 253.436C308.33 253.411 308.195 253.357 308.074 253.278C307.954 253.199 307.851 253.096 307.771 252.976C307.646 252.812 307.56 252.621 307.519 252.42C307.446 252.073 307.404 251.721 307.395 251.368C307.309 251.224 307.216 251.081 307.143 250.932C307.068 250.797 307.002 250.658 306.946 250.514C306.732 249.963 306.671 249.324 307.125 249.022C307.139 249.015 307.151 249.005 307.161 248.994C307.404 248.878 307.675 248.834 307.943 248.866L315.625 248.992C313.814 246.978 313.43 246.397 313.675 245.244C313.688 245.195 313.712 245.15 313.746 245.112C313.78 245.075 313.823 245.046 313.871 245.029C313.918 245.011 313.97 245.006 314.02 245.013C314.07 245.019 314.118 245.038 314.159 245.068C315.4 245.959 317.226 247.295 318.757 248.652C319.941 249.674 320.675 251.121 320.797 252.679C320.797 252.707 320.797 252.732 320.8 252.754Z" fill="#FFBE9D"/>
<path d="M289.625 252.22C289.3 251.35 289.155 250.424 289.199 249.498C289.243 248.571 289.474 247.663 289.88 246.828C290.285 245.993 290.856 245.249 291.558 244.64C292.26 244.031 293.078 243.571 293.963 243.287C294.301 243.539 294.644 244.042 294.599 244.47C294.575 244.684 294.498 244.889 294.374 245.065C294.25 245.241 294.084 245.383 293.89 245.477C294.094 245.69 294.233 245.957 294.292 246.246C294.351 246.535 294.327 246.834 294.223 247.11C294.113 247.379 293.929 247.611 293.691 247.778C293.453 247.945 293.172 248.04 292.881 248.052C293.385 248.374 293.479 249.144 293.272 249.695C293.162 249.97 292.965 250.201 292.711 250.353C292.456 250.506 292.159 250.571 291.865 250.538C292.293 250.954 292.003 251.719 291.489 252.023C290.974 252.328 290.22 252.265 289.625 252.22Z" fill="#FFBE9D"/>
<path d="M337.062 249.897L346.053 238.319C346.422 237.844 345.627 237.35 345.264 237.816C342.265 241.675 339.268 245.535 336.273 249.394C335.905 249.867 336.697 250.36 337.062 249.897Z" fill="#7B7BD6"/>
<path d="M409.825 312.992C406.311 319.896 402.39 326.587 398.083 333.029H324.159C323.858 331.487 323.793 329.909 323.965 328.347C324.721 321.803 334.653 320.751 340.547 320.731C337.713 314.24 336.424 307.185 337.13 300.092C337.712 294.271 339.483 287.415 345.342 284.792C350.353 282.547 356.439 284.155 360.597 287.458C364.915 290.881 367.455 295.859 369.594 300.873C371.766 291.949 376.368 283.798 382.89 277.319C388.363 271.9 396.963 265.238 405.175 266.459C412.917 267.619 418.105 275.339 418.93 282.658C420.118 293.259 414.481 303.848 409.825 312.992Z" fill="#7FC829"/>
<path d="M414.568 279.628C412.775 272.656 407.315 266.14 399.809 265.362C391.297 264.479 383.37 270.648 377.656 276.24C371.548 282.251 367.034 289.684 364.521 297.868C362.079 292.691 358.909 287.692 353.749 284.894C348.884 282.256 342.624 281.73 337.964 285.07C333.747 288.09 332.14 293.418 331.454 298.314C330.43 305.613 331.525 312.897 334.178 319.725C330.188 319.841 325.941 320.324 322.458 322.27C318.138 324.681 317.606 328.723 318.304 333.304C318.506 334.618 320.506 334.059 320.307 332.753C319.523 327.618 321.197 324.518 326.145 322.977C329.222 322.018 332.491 321.802 335.696 321.767C336.299 321.767 336.957 321.097 336.705 320.455C334.312 314.77 332.945 308.787 333.157 302.585C333.328 297.614 334.221 291.584 337.87 287.874C342.239 283.434 349.192 284.264 354.011 287.463C358.904 290.718 361.595 296.162 363.847 301.385C364.211 302.225 365.54 301.938 365.744 301.133C367.784 293.162 371.593 285.78 377.181 279.691C382.142 274.295 388.823 268.519 396.349 267.497C404.419 266.397 410.664 272.805 412.576 280.169C414.813 288.795 411.166 297.891 407.532 305.59C406.962 306.788 408.752 307.84 409.322 306.635C413.219 298.397 416.951 288.855 414.568 279.628Z" fill="#AAE286"/>
</svg>
