<svg width="360" height="332" viewBox="0 0 360 332" fill="none" xmlns="http://www.w3.org/2000/svg">
<g clip-path="url(#clip0_1638_3506)">
<path d="M471.917 359.149C495.581 369.324 514.917 387.065 526.687 409.401C538.457 431.738 541.945 457.313 536.568 481.844C531.191 506.375 517.274 528.371 497.15 544.149C477.025 559.926 451.915 568.526 426.024 568.509H166.6C140.71 568.526 115.599 559.926 95.4747 544.149C75.3501 528.371 61.4337 506.375 56.0564 481.844C50.6791 457.313 54.1675 431.738 65.9372 409.401C77.707 387.065 97.0433 369.324 120.708 359.149C105.588 344.144 95.2368 325.247 90.8869 304.707C86.5369 284.167 88.3709 262.849 96.1707 243.29C103.97 223.73 117.408 206.753 134.883 194.379C152.358 182.004 173.136 174.753 194.744 173.488C186.688 158.214 182.495 141.303 182.511 124.151C183.703 95.884 196.135 69.159 217.205 49.5672C238.275 29.9755 266.351 19.0352 295.558 19.0352C324.765 19.0352 352.841 29.9755 373.911 49.5672C394.981 69.159 407.413 95.884 408.605 124.151C408.621 141.303 404.428 158.214 396.372 173.488C418.148 174.411 439.182 181.426 456.929 193.685C474.676 205.943 488.375 222.92 496.37 242.562C504.364 262.203 506.312 283.668 501.976 304.359C497.641 325.05 487.208 344.081 471.94 359.149H471.917Z" fill="#71AA0E" fill-opacity="0.12"/>
<path d="M258.081 765.891C254.024 765.891 250.133 764.33 247.264 761.551C244.395 758.772 242.783 755.003 242.783 751.074V307.012C242.783 303.076 244.397 299.302 247.271 296.518C250.144 293.735 254.041 292.172 258.104 292.172C262.168 292.172 266.065 293.735 268.938 296.518C271.811 299.302 273.426 303.076 273.426 307.012V751.074C273.426 753.023 273.028 754.954 272.257 756.755C271.485 758.555 270.354 760.191 268.928 761.567C267.503 762.944 265.811 764.034 263.949 764.776C262.088 765.518 260.094 765.897 258.081 765.891Z" fill="white" fill-opacity="0.12"/>
<path d="M256.795 479.433C253.878 479.444 251.018 478.648 248.553 477.138C246.088 475.627 244.12 473.466 242.881 470.908C241.643 468.35 241.185 465.502 241.562 462.7C241.939 459.899 243.135 457.26 245.009 455.095L349.194 334.89C350.484 333.391 352.067 332.153 353.852 331.246C355.637 330.34 357.589 329.782 359.596 329.606C361.603 329.43 363.626 329.639 365.55 330.221C367.474 330.802 369.261 331.745 370.808 332.995C372.356 334.245 373.634 335.778 374.57 337.507C375.506 339.236 376.081 341.126 376.263 343.07C376.445 345.015 376.229 346.974 375.629 348.838C375.029 350.701 374.056 352.432 372.765 353.931L268.58 474.159C267.137 475.822 265.332 477.157 263.295 478.069C261.258 478.98 259.039 479.446 256.795 479.433Z" fill="white" fill-opacity="0.12"/>
<path d="M259.282 479.445C257.036 479.456 254.816 478.986 252.779 478.071C250.742 477.155 248.938 475.816 247.496 474.148L143.453 353.898C140.847 350.87 139.588 346.964 139.955 343.037C140.322 339.111 142.284 335.487 145.41 332.962C148.536 330.437 152.569 329.218 156.622 329.573C160.676 329.929 164.418 331.829 167.025 334.857L270.926 455.107C272.8 457.272 273.996 459.911 274.373 462.713C274.75 465.514 274.293 468.362 273.054 470.92C271.815 473.478 269.847 475.64 267.382 477.15C264.917 478.661 262.057 479.457 259.14 479.445H259.282Z" fill="white" fill-opacity="0.12"/>
<path d="M387.807 583.298C368.818 583.391 350.059 579.283 332.957 571.289C331.149 570.436 329.533 569.247 328.2 567.789C326.867 566.331 325.843 564.633 325.188 562.791C324.532 560.95 324.257 559.002 324.379 557.058C324.501 555.113 325.017 553.212 325.898 551.461C326.778 549.71 328.006 548.144 329.512 546.853C331.017 545.561 332.77 544.57 334.671 543.935C336.572 543.3 338.584 543.034 340.591 543.152C342.598 543.27 344.561 543.77 346.369 544.623C359.315 550.688 373.52 553.812 387.901 553.755C410.3 553.796 432.031 546.374 449.45 532.734C466.868 519.094 478.913 500.067 483.564 478.845C488.216 457.623 485.19 435.497 474.995 416.179C464.799 396.862 448.055 381.528 427.572 372.752C425.32 371.779 423.345 370.293 421.814 368.422C420.283 366.55 419.242 364.348 418.779 362.003C418.316 359.658 418.445 357.239 419.155 354.952C419.865 352.666 421.135 350.579 422.857 348.87C436.062 335.845 445.086 319.392 448.837 301.502C452.588 283.612 450.905 265.053 443.992 248.07C437.078 231.088 425.231 216.411 409.884 205.815C394.536 195.219 376.347 189.159 357.518 188.369C354.964 188.254 352.48 187.52 350.294 186.235C348.108 184.95 346.289 183.154 345.004 181.013C343.719 178.871 343.009 176.452 342.939 173.976C342.869 171.5 343.44 169.046 344.601 166.839C351.579 153.658 355.2 139.05 355.161 124.237C355.161 99.1262 344.863 75.044 326.531 57.288C308.199 39.5321 283.336 29.5569 257.412 29.5569C231.487 29.5569 206.624 39.5321 188.292 57.288C169.961 75.044 159.662 99.1262 159.662 124.237C159.623 139.05 163.244 153.658 170.222 166.839C171.377 169.029 171.951 171.463 171.893 173.922C171.834 176.381 171.144 178.786 169.886 180.922C168.628 183.058 166.841 184.858 164.686 186.158C162.53 187.458 160.075 188.217 157.541 188.369C138.86 189.46 120.897 195.727 105.787 206.423C90.6777 217.118 79.0584 231.793 72.3118 248.701C65.5653 265.609 63.9754 284.039 67.7313 301.797C71.4873 319.555 80.4309 335.894 93.4983 348.87C95.2252 350.579 96.4995 352.667 97.2126 354.956C97.9256 357.245 98.0561 359.668 97.5929 362.016C97.1297 364.365 96.0866 366.57 94.5527 368.443C93.0188 370.317 91.0395 371.803 88.784 372.774C68.3003 381.551 51.5561 396.885 41.361 416.202C31.1658 435.52 28.14 457.646 32.7913 478.868C37.4425 500.09 49.4877 519.117 66.906 532.757C84.3243 546.396 106.056 553.819 128.454 553.778C142.835 553.836 157.04 550.712 169.986 544.646C171.802 543.733 173.788 543.182 175.827 543.025C177.866 542.868 179.917 543.109 181.858 543.734C183.799 544.358 185.591 545.354 187.128 546.661C188.665 547.968 189.916 549.56 190.807 551.344C191.698 553.127 192.21 555.065 192.314 557.044C192.418 559.023 192.111 561.002 191.411 562.863C190.712 564.725 189.634 566.432 188.241 567.883C186.849 569.334 185.17 570.5 183.304 571.312C166.203 579.307 147.443 583.414 128.454 583.321C100.75 583.365 73.7761 574.715 51.5722 558.667C29.3682 542.619 13.1289 520.035 5.28575 494.299C-2.55736 468.562 -1.58216 441.057 8.06529 415.902C17.7127 390.747 35.5133 369.296 58.8016 354.761C46.562 338.089 38.7612 318.748 36.0914 298.454C33.4217 278.161 35.9656 257.543 43.4975 238.431C51.0293 219.318 63.3161 202.302 79.2672 188.894C95.2184 175.485 114.34 166.098 134.936 161.565C130.958 149.467 128.946 136.843 128.973 124.145C128.973 91.1753 142.495 59.5554 166.564 36.2419C190.633 12.9284 223.278 -0.168945 257.317 -0.168945C291.357 -0.168945 324.002 12.9284 348.071 36.2419C372.14 59.5554 385.662 91.1753 385.662 124.145C385.693 136.761 383.714 149.306 379.793 161.337C400.59 165.622 419.959 174.853 436.153 188.198C452.348 201.543 464.858 218.582 472.557 237.779C480.256 256.976 482.9 277.728 480.252 298.162C477.604 318.596 469.747 338.07 457.389 354.829C480.661 369.365 498.449 390.809 508.091 415.953C517.732 441.096 518.71 468.588 510.877 494.315C503.044 520.041 486.822 542.62 464.637 558.672C442.453 574.725 415.499 583.388 387.807 583.367V583.298Z" fill="white" fill-opacity="0.12"/>
</g>
<defs>
<clipPath id="clip0_1638_3506">
<rect width="540" height="886" fill="white"/>
</clipPath>
</defs>
</svg>
