<svg width="300" height="432" viewBox="0 0 300 432" fill="none" xmlns="http://www.w3.org/2000/svg">
<rect x="1" y="1" width="298" height="430" stroke="#E0C858" stroke-width="2"/>
<g opacity="0.82">
<rect x="68.5" y="136.5" width="163" height="113.627" rx="5.5" fill="#FFF4BE" stroke="#E0C858"/>
<rect x="78.9336" y="146.918" width="142.133" height="92.7932" fill="#E6D172"/>
<ellipse cx="219.144" cy="148.456" rx="10.9333" ry="10.9168" fill="#FFF4BE"/>
<ellipse cx="80.4743" cy="148.456" rx="10.9333" ry="10.9168" fill="#FFF4BE"/>
<ellipse cx="80.4743" cy="237.686" rx="10.9333" ry="10.9168" fill="#FFF4BE"/>
<ellipse cx="219.144" cy="237.686" rx="10.9333" ry="10.9168" fill="#FFF4BE"/>
<rect x="125.4" y="155.105" width="49.2" height="5.45842" rx="1" fill="#FFF4BE"/>
<rect x="109" y="166.021" width="82" height="5.45842" rx="1" fill="#FFF4BE"/>
<rect x="98.0664" y="176.938" width="103.867" height="5.45842" rx="1" fill="#FFF4BE"/>
<ellipse cx="150.001" cy="228.452" rx="14.0083" ry="13.9872" fill="#E0C858"/>
<ellipse cx="144.192" cy="222.653" rx="14.35" ry="14.3284" fill="#FFF4BE"/>
<path d="M155.113 284.73L145.033 294.794V242.939H165.9V294.794L155.82 284.73L155.467 284.377L155.113 284.73Z" fill="#E0C858" stroke="#E0C858"/>
<path d="M144.18 269.036L134.1 279.101V245.668H154.966V279.101L144.886 269.036L144.533 268.683L144.18 269.036Z" fill="#FFF4BE" stroke="#E0C858"/>
<mask id="path-15-inside-1_1515_2901" fill="white">
<path fill-rule="evenodd" clip-rule="evenodd" d="M157.483 203.702C152.945 200.711 147.058 200.711 142.52 203.702C141.075 204.654 139.458 205.323 137.762 205.669C132.445 206.757 128.275 210.915 127.185 216.232C126.837 217.926 126.168 219.539 125.215 220.981C122.22 225.511 122.22 231.392 125.215 235.922C126.168 237.365 126.837 238.977 127.185 240.671C128.275 245.988 132.445 250.147 137.762 251.234C139.458 251.581 141.075 252.249 142.52 253.201C147.058 256.192 152.945 256.192 157.483 253.201C158.928 252.249 160.545 251.581 162.24 251.234C167.558 250.147 171.728 245.988 172.818 240.671C173.166 238.977 173.834 237.365 174.788 235.922C177.783 231.392 177.783 225.511 174.788 220.981C173.834 219.539 173.166 217.926 172.818 216.232C171.728 210.915 167.558 206.757 162.24 205.669C160.545 205.323 158.928 204.654 157.483 203.702ZM150 242.439C157.736 242.439 164.008 236.177 164.008 228.452C164.008 220.727 157.736 214.465 150 214.465C142.263 214.465 135.991 220.727 135.991 228.452C135.991 236.177 142.263 242.439 150 242.439Z"/>
</mask>
<path fill-rule="evenodd" clip-rule="evenodd" d="M157.483 203.702C152.945 200.711 147.058 200.711 142.52 203.702C141.075 204.654 139.458 205.323 137.762 205.669C132.445 206.757 128.275 210.915 127.185 216.232C126.837 217.926 126.168 219.539 125.215 220.981C122.22 225.511 122.22 231.392 125.215 235.922C126.168 237.365 126.837 238.977 127.185 240.671C128.275 245.988 132.445 250.147 137.762 251.234C139.458 251.581 141.075 252.249 142.52 253.201C147.058 256.192 152.945 256.192 157.483 253.201C158.928 252.249 160.545 251.581 162.24 251.234C167.558 250.147 171.728 245.988 172.818 240.671C173.166 238.977 173.834 237.365 174.788 235.922C177.783 231.392 177.783 225.511 174.788 220.981C173.834 219.539 173.166 217.926 172.818 216.232C171.728 210.915 167.558 206.757 162.24 205.669C160.545 205.323 158.928 204.654 157.483 203.702ZM150 242.439C157.736 242.439 164.008 236.177 164.008 228.452C164.008 220.727 157.736 214.465 150 214.465C142.263 214.465 135.991 220.727 135.991 228.452C135.991 236.177 142.263 242.439 150 242.439Z" fill="#FFF4BE"/>
<path d="M142.52 203.702L141.97 202.867L141.97 202.867L142.52 203.702ZM157.483 203.702L158.033 202.867L157.483 203.702ZM137.762 205.669L137.562 204.69L137.762 205.669ZM127.185 216.232L126.205 216.031H126.205L127.185 216.232ZM125.215 220.981L126.049 221.533L125.215 220.981ZM125.215 235.922L126.049 235.371L125.215 235.922ZM127.185 240.671L126.205 240.872H126.205L127.185 240.671ZM137.762 251.234L137.963 250.254L137.762 251.234ZM142.52 253.201L143.07 252.366L142.52 253.201ZM157.483 253.201L158.033 254.036L157.483 253.201ZM162.24 251.234L162.04 250.254L162.24 251.234ZM172.818 240.671L171.839 240.47L172.818 240.671ZM174.788 235.922L173.954 235.371L174.788 235.922ZM174.788 220.981L173.954 221.533V221.533L174.788 220.981ZM172.818 216.232L171.839 216.433V216.433L172.818 216.232ZM162.24 205.669L162.04 206.649V206.649L162.24 205.669ZM143.07 204.537C147.275 201.766 152.728 201.766 156.933 204.537L158.033 202.867C153.161 199.656 146.842 199.656 141.97 202.867L143.07 204.537ZM137.963 206.649C139.783 206.277 141.519 205.56 143.07 204.537L141.97 202.867C140.631 203.749 139.133 204.369 137.562 204.69L137.963 206.649ZM128.164 216.433C129.174 211.509 133.036 207.656 137.963 206.649L137.562 204.69C131.853 205.857 127.376 210.321 126.205 216.031L128.164 216.433ZM126.049 221.533C127.073 219.984 127.791 218.252 128.164 216.433L126.205 216.031C125.883 217.6 125.264 219.094 124.381 220.43L126.049 221.533ZM126.049 235.371C123.275 231.175 123.275 225.728 126.049 221.533L124.381 220.43C121.165 225.294 121.165 231.609 124.381 236.474L126.049 235.371ZM128.164 240.47C127.791 238.651 127.073 236.92 126.049 235.371L124.381 236.474C125.264 237.81 125.883 239.303 126.205 240.872L128.164 240.47ZM137.963 250.254C133.036 249.247 129.174 245.394 128.164 240.47L126.205 240.872C127.376 246.582 131.853 251.046 137.562 252.214L137.963 250.254ZM143.07 252.366C141.519 251.344 139.783 250.626 137.963 250.254L137.562 252.214C139.133 252.535 140.631 253.154 141.97 254.036L143.07 252.366ZM156.933 252.366C152.728 255.137 147.275 255.137 143.07 252.366L141.97 254.036C146.842 257.247 153.161 257.247 158.033 254.036L156.933 252.366ZM162.04 250.254C160.22 250.626 158.484 251.344 156.933 252.366L158.033 254.036C159.371 253.154 160.87 252.535 162.441 252.214L162.04 250.254ZM171.839 240.47C170.829 245.394 166.967 249.247 162.04 250.254L162.441 252.214C168.15 251.046 172.627 246.582 173.798 240.872L171.839 240.47ZM173.954 235.371C172.93 236.92 172.212 238.651 171.839 240.47L173.798 240.872C174.12 239.303 174.739 237.81 175.622 236.474L173.954 235.371ZM173.954 221.533C176.727 225.728 176.727 231.175 173.954 235.371L175.622 236.474C178.838 231.609 178.838 225.294 175.622 220.43L173.954 221.533ZM171.839 216.433C172.212 218.252 172.93 219.984 173.954 221.533L175.622 220.43C174.739 219.094 174.12 217.6 173.798 216.031L171.839 216.433ZM162.04 206.649C166.967 207.656 170.829 211.509 171.839 216.433L173.798 216.031C172.627 210.321 168.15 205.857 162.441 204.69L162.04 206.649ZM156.933 204.537C158.484 205.56 160.22 206.277 162.04 206.649L162.441 204.69C160.87 204.369 159.371 203.749 158.033 202.867L156.933 204.537ZM163.008 228.452C163.008 235.623 157.185 241.439 150 241.439V243.439C158.287 243.439 165.008 236.731 165.008 228.452H163.008ZM150 215.465C157.185 215.465 163.008 221.281 163.008 228.452H165.008C165.008 220.173 158.287 213.465 150 213.465V215.465ZM136.991 228.452C136.991 221.281 142.814 215.465 150 215.465V213.465C141.712 213.465 134.991 220.173 134.991 228.452H136.991ZM150 241.439C142.814 241.439 136.991 235.623 136.991 228.452H134.991C134.991 236.731 141.712 243.439 150 243.439V241.439Z" fill="#E0C858" mask="url(#path-15-inside-1_1515_2901)"/>
<rect x="98.0664" y="226.064" width="16.4" height="5.45842" rx="1" fill="#FFF4BE"/>
<rect x="185.533" y="226.064" width="16.4" height="5.45842" rx="1" fill="#FFF4BE"/>
</g>
</svg>
