<svg width="32" height="26" viewBox="0 0 32 26" fill="none" xmlns="http://www.w3.org/2000/svg">
<g id="Toshkent shahar hokimligi">
<path d="M3.0133 1.50219V7.19185H1.97648V1.50219H0.911133V0.536378H4.07865V1.50219H3.0133Z" fill="white"/>
<path d="M6.73103 2.162C6.73103 1.97712 6.68981 1.81137 6.60737 1.66475C6.53127 1.51812 6.38225 1.44481 6.1603 1.44481C6.03982 1.44481 5.94153 1.4735 5.86543 1.53087C5.78933 1.58187 5.72909 1.64881 5.6847 1.73169C5.64665 1.80819 5.61812 1.89744 5.59909 1.99943C5.58641 2.09506 5.58007 2.18431 5.58007 2.26718V5.61404C5.58007 5.78617 5.62129 5.94236 5.70372 6.0826C5.7925 6.21648 5.94153 6.28342 6.15079 6.28342C6.36006 6.28342 6.50908 6.21329 6.59786 6.07304C6.68664 5.92642 6.73103 5.75111 6.73103 5.54711V2.162ZM7.76784 5.48973C7.76784 6.06985 7.63784 6.50973 7.37785 6.80935C7.11785 7.1026 6.70883 7.24922 6.15079 7.24922C5.59275 7.24922 5.1869 7.10897 4.93325 6.82848C4.67959 6.5416 4.55277 6.13042 4.55277 5.59492V2.24806C4.55277 1.98668 4.5813 1.74762 4.63837 1.53087C4.70179 1.31413 4.79691 1.12925 4.92374 0.976252C5.05056 0.816877 5.21544 0.695753 5.41836 0.612878C5.62763 0.523629 5.87494 0.479004 6.1603 0.479004C6.46469 0.479004 6.71835 0.520441 6.92127 0.603316C7.13053 0.679815 7.29541 0.794565 7.4159 0.947564C7.54272 1.10056 7.6315 1.28544 7.68223 1.50219C7.73931 1.71894 7.76784 1.96437 7.76784 2.2385V5.48973Z" fill="white"/>
<path d="M11.8075 5.29848C11.8075 5.59811 11.779 5.86904 11.7219 6.11129C11.6712 6.34717 11.5824 6.55117 11.4556 6.72329C11.3287 6.88904 11.1575 7.01973 10.9419 7.11535C10.7326 7.2046 10.4726 7.24922 10.1619 7.24922C9.87655 7.24922 9.62923 7.20779 9.41997 7.12491C9.21704 7.04204 9.049 6.92729 8.91583 6.78066C8.78266 6.63404 8.68437 6.46192 8.62095 6.26429C8.56388 6.06667 8.53535 5.85629 8.53535 5.63317L9.55314 5.43236C9.56582 5.68098 9.61338 5.88498 9.69582 6.04435C9.77826 6.19735 9.93996 6.27385 10.1809 6.27385C10.3204 6.27385 10.4314 6.24835 10.5139 6.19735C10.5963 6.13998 10.6565 6.06667 10.6946 5.97742C10.739 5.88817 10.7643 5.78617 10.7707 5.67142C10.7834 5.55667 10.7897 5.43554 10.7897 5.30805C10.7897 5.14867 10.7802 5.0148 10.7612 4.90642C10.7421 4.79805 10.7041 4.70561 10.647 4.62911C10.5963 4.55261 10.5202 4.48567 10.4187 4.4283C10.3236 4.37092 10.1968 4.30717 10.0383 4.23705C9.72118 4.10318 9.46436 3.96611 9.26778 3.82586C9.07753 3.68562 8.93168 3.53899 8.83022 3.38599C8.72876 3.22662 8.66217 3.06087 8.63047 2.88874C8.59876 2.71024 8.58291 2.51581 8.58291 2.30543C8.58291 2.03768 8.61461 1.79225 8.67803 1.56912C8.74144 1.346 8.83973 1.15475 8.9729 0.995377C9.10607 0.829627 9.27412 0.702128 9.47704 0.612878C9.68631 0.523629 9.93362 0.479004 10.219 0.479004C10.5297 0.479004 10.7865 0.530004 10.9895 0.632003C11.1924 0.727628 11.3541 0.85194 11.4746 1.00494C11.5951 1.15794 11.6807 1.32688 11.7314 1.51175C11.7821 1.69662 11.8075 1.87512 11.8075 2.04725L10.7897 2.28631C10.7897 2.04406 10.7485 1.84644 10.666 1.69344C10.5836 1.54044 10.4219 1.46394 10.1809 1.46394C10.0541 1.46394 9.95264 1.48944 9.87655 1.54044C9.80679 1.59144 9.74972 1.65837 9.70533 1.74125C9.66094 1.82412 9.6324 1.91337 9.61972 2.009C9.60704 2.10462 9.6007 2.20025 9.6007 2.29587C9.6007 2.41062 9.60704 2.51262 9.61972 2.60187C9.6324 2.68474 9.66728 2.76443 9.72435 2.84093C9.78777 2.91743 9.87972 2.99393 10.0002 3.07043C10.1207 3.14693 10.2856 3.22662 10.4948 3.30949C10.7865 3.42424 11.018 3.54855 11.1892 3.68243C11.3668 3.80993 11.4999 3.95336 11.5887 4.11274C11.6775 4.26574 11.7346 4.44105 11.7599 4.63867C11.7916 4.82992 11.8075 5.04986 11.8075 5.29848Z" fill="white"/>
<path d="M14.8146 7.19185V4.28486H13.6256V7.19185H12.6078V0.536378H13.6256V3.31905H14.8146V0.536378H15.8324V7.19185H14.8146Z" fill="white"/>
<path d="M19.3457 7.19185L18.2804 4.32311C18.2106 4.47611 18.1377 4.6323 18.0616 4.79167C17.9918 4.94467 17.9189 5.09767 17.8428 5.25067V7.19185H16.825V0.536378H17.8428V3.22343H17.8904L19.1365 0.536378H20.2018C19.9799 0.989002 19.7579 1.43844 19.536 1.88469C19.314 2.33093 19.0921 2.78037 18.8701 3.23299L20.3921 7.19185H19.3457Z" fill="white"/>
<path d="M20.9122 7.19185V0.536378H23.8515V1.51175H21.9395V3.31905H23.6042V4.30399H21.9395V6.21648H23.8515V7.19185H20.9122Z" fill="white"/>
<path d="M25.515 3.31905V7.19185H24.4972V0.536378H25.4199L26.2189 2.51581C26.2823 2.68156 26.3457 2.84412 26.4091 3.00349C26.4725 3.16287 26.5391 3.32543 26.6089 3.49118L26.9418 4.40917C26.9545 4.40917 26.9608 4.40917 26.9608 4.40917C26.9671 4.4028 26.9767 4.39961 26.9893 4.39961V0.536378H27.9976V7.19185H27.094L26.295 5.22198C26.1681 4.89686 26.0413 4.57811 25.9145 4.26574C25.794 3.95336 25.6735 3.6378 25.553 3.31905H25.515Z" fill="white"/>
<path d="M30.5927 1.50219V7.19185H29.5559V1.50219H28.4905V0.536378H31.6581V1.50219H30.5927Z" fill="white"/>
<path d="M4.48767 14.4344C4.48767 14.734 4.45913 15.0049 4.40206 15.2472C4.35133 15.483 4.26255 15.687 4.13572 15.8592C4.00889 16.0249 3.83768 16.1556 3.62207 16.2512C3.41281 16.3405 3.15281 16.3851 2.84208 16.3851C2.55672 16.3851 2.30941 16.3437 2.10014 16.2608C1.89722 16.1779 1.72917 16.0632 1.596 15.9165C1.46283 15.7699 1.36454 15.5978 1.30113 15.4002C1.24405 15.2025 1.21552 14.9922 1.21552 14.769L2.23331 14.5682C2.24599 14.8169 2.29355 15.0209 2.37599 15.1802C2.45843 15.3332 2.62013 15.4097 2.86111 15.4097C3.00062 15.4097 3.11159 15.3842 3.19403 15.3332C3.27647 15.2759 3.33671 15.2025 3.37476 15.1133C3.41915 15.024 3.44451 14.922 3.45085 14.8073C3.46354 14.6925 3.46988 14.5714 3.46988 14.4439C3.46988 14.2845 3.46037 14.1507 3.44134 14.0423C3.42232 13.9339 3.38427 13.8415 3.3272 13.765C3.27647 13.6885 3.20037 13.6215 3.09891 13.5642C3.00379 13.5068 2.87696 13.443 2.71842 13.3729C2.40136 13.239 2.14453 13.102 1.94795 12.9617C1.75771 12.8215 1.61185 12.6749 1.51039 12.5219C1.40893 12.3625 1.34235 12.1967 1.31064 12.0246C1.27893 11.8461 1.26308 11.6517 1.26308 11.4413C1.26308 11.1736 1.29479 10.9281 1.3582 10.705C1.42161 10.4819 1.5199 10.2906 1.65307 10.1312C1.78624 9.9655 1.95429 9.838 2.15721 9.74875C2.36648 9.6595 2.61379 9.61488 2.89915 9.61488C3.20988 9.61488 3.46671 9.66588 3.66963 9.76788C3.87255 9.8635 4.03426 9.98781 4.15475 10.1408C4.27523 10.2938 4.36084 10.4627 4.41157 10.6476C4.4623 10.8325 4.48767 11.011 4.48767 11.1831L3.46988 11.4222C3.46988 11.1799 3.42866 10.9823 3.34622 10.8293C3.26378 10.6763 3.10208 10.5998 2.86111 10.5998C2.73428 10.5998 2.63282 10.6253 2.55672 10.6763C2.48696 10.7273 2.42989 10.7942 2.3855 10.8771C2.34111 10.96 2.31258 11.0492 2.29989 11.1449C2.28721 11.2405 2.28087 11.3361 2.28087 11.4317C2.28087 11.5465 2.28721 11.6485 2.29989 11.7377C2.31258 11.8206 2.34745 11.9003 2.40453 11.9768C2.46794 12.0533 2.55989 12.1298 2.68038 12.2063C2.80086 12.2828 2.96574 12.3625 3.175 12.4454C3.46671 12.5601 3.69817 12.6844 3.86938 12.8183C4.04694 12.9458 4.18011 13.0892 4.26889 13.2486C4.35767 13.4016 4.41474 13.5769 4.44011 13.7745C4.47181 13.9658 4.48767 14.1857 4.48767 14.4344Z" fill="white"/>
<path d="M7.49474 16.3277V13.4207H6.30573V16.3277H5.28794V9.67225H6.30573V12.4549H7.49474V9.67225H8.51253V16.3277H7.49474Z" fill="white"/>
<path d="M11.8832 16.3277L11.6264 14.9412H10.4089C10.3645 15.1707 10.3201 15.4034 10.2757 15.6392C10.2376 15.8687 10.1996 16.0982 10.1615 16.3277H9.11521C9.33716 15.2121 9.55911 14.1029 9.78105 13C10.003 11.8971 10.225 10.7879 10.4469 9.67225H11.5883L12.9295 16.3277H11.8832ZM10.9891 11.2118C10.9257 11.6708 10.8591 12.1298 10.7893 12.5888C10.7196 13.0414 10.6435 13.5036 10.561 13.9754H11.4647L11.0366 11.2118H10.9891Z" fill="white"/>
<path d="M15.7249 16.3277V13.4207H14.5359V16.3277H13.5181V9.67225H14.5359V12.4549H15.7249V9.67225H16.7427V16.3277H15.7249Z" fill="white"/>
<path d="M20.1134 16.3277L19.8566 14.9412H18.639C18.5946 15.1707 18.5502 15.4034 18.5058 15.6392C18.4678 15.8687 18.4297 16.0982 18.3917 16.3277H17.3454C17.5673 15.2121 17.7893 14.1029 18.0112 13C18.2332 11.8971 18.4551 10.7879 18.6771 9.67225H19.8185L21.1597 16.3277H20.1134ZM19.2192 11.2118C19.1558 11.6708 19.0893 12.1298 19.0195 12.5888C18.9497 13.0414 18.8736 13.5036 18.7912 13.9754H19.6949L19.2668 11.2118H19.2192Z" fill="white"/>
<path d="M23.2607 9.67225C23.7997 9.67225 24.2214 9.82525 24.5258 10.1312C24.8302 10.4309 24.9824 10.9217 24.9824 11.6039C24.9824 12.0246 24.9221 12.3816 24.8016 12.6749C24.6875 12.9617 24.4814 13.188 24.1834 13.3538L25.1631 16.3277H24.1168L23.2607 13.5737H22.7756V16.3277H21.7483V9.67225H23.2607ZM22.7756 10.6476V12.5984H23.1941C23.4604 12.5984 23.657 12.5219 23.7838 12.3689C23.9107 12.2095 23.9741 11.9577 23.9741 11.6134C23.9741 11.3074 23.9107 11.0716 23.7838 10.9058C23.6634 10.7337 23.4604 10.6476 23.1751 10.6476H22.7756Z" fill="white"/>
<path d="M3.58402 25.4636V22.5566H2.39501V25.4636H1.37722V18.8081H2.39501V21.5908H3.58402V18.8081H4.60181V25.4636H3.58402Z" fill="white"/>
<path d="M7.71567 20.4337C7.71567 20.2489 7.67446 20.0831 7.59202 19.9365C7.51592 19.7899 7.3669 19.7166 7.14495 19.7166C7.02447 19.7166 6.92617 19.7452 6.85008 19.8026C6.77398 19.8536 6.71374 19.9206 6.66935 20.0034C6.6313 20.0799 6.60276 20.1692 6.58374 20.2712C6.57106 20.3668 6.56472 20.4561 6.56472 20.5389V23.8858C6.56472 24.0579 6.60593 24.2141 6.68837 24.3543C6.77715 24.4882 6.92617 24.5552 7.13544 24.5552C7.3447 24.5552 7.49373 24.485 7.58251 24.3448C7.67129 24.1982 7.71567 24.0229 7.71567 23.8189V20.4337ZM8.75249 23.7615C8.75249 24.3416 8.62249 24.7815 8.36249 25.0811C8.1025 25.3743 7.69348 25.521 7.13544 25.521C6.5774 25.521 6.17155 25.3807 5.9179 25.1002C5.66424 24.8133 5.53741 24.4022 5.53741 23.8667V20.5198C5.53741 20.2584 5.56595 20.0194 5.62302 19.8026C5.68644 19.5859 5.78156 19.401 5.90838 19.248C6.03521 19.0886 6.20009 18.9675 6.40301 18.8846C6.61228 18.7954 6.85959 18.7507 7.14495 18.7507C7.44934 18.7507 7.70299 18.7922 7.90592 18.8751C8.11518 18.9516 8.28006 19.0663 8.40054 19.2193C8.52737 19.3723 8.61615 19.5572 8.66688 19.7739C8.72395 19.9907 8.75249 20.2361 8.75249 20.5102V23.7615Z" fill="white"/>
<path d="M12.2024 25.4636L11.137 22.5949C11.0673 22.7479 10.9944 22.904 10.9183 23.0634C10.8485 23.2164 10.7756 23.3694 10.6995 23.5224V25.4636H9.6817V18.8081H10.6995V21.4952H10.7471L11.9931 18.8081H13.0585C12.8365 19.2607 12.6146 19.7102 12.3926 20.1564C12.1707 20.6027 11.9487 21.0521 11.7268 21.5047L13.2487 25.4636H12.2024Z" fill="white"/>
<path d="M13.7879 25.4636V18.8081H14.8248V25.4636H13.7879Z" fill="white"/>
<path d="M17.7525 24.0101L17.2769 22.7765L16.8679 21.6099H16.8204V25.4636H15.8026V18.8081H16.7918L17.5147 20.7015L18.0379 22.1454H18.0855L18.6181 20.6632L19.3315 18.8081H20.3208V25.4636H19.2935V21.629H19.2554L18.8369 22.8148L18.3708 24.0101H17.7525Z" fill="white"/>
<path d="M21.2838 25.4636V18.8081H22.3111V24.4882H24.1469V25.4636H21.2838Z" fill="white"/>
<path d="M24.7212 25.4636V18.8081H25.758V25.4636H24.7212Z" fill="white"/>
<path d="M28.3529 25.521C27.8076 25.521 27.4049 25.3839 27.1449 25.1098C26.8849 24.8293 26.7549 24.4213 26.7549 23.8858V20.5676C26.7549 20.319 26.7834 20.0863 26.8405 19.8696C26.8976 19.6464 26.9895 19.452 27.1163 19.2862C27.2495 19.1205 27.4176 18.9898 27.6205 18.8942C27.8234 18.7986 28.0707 18.7507 28.3624 18.7507C28.9014 18.7507 29.2978 18.891 29.5514 19.1715C29.8051 19.452 29.9319 19.8186 29.9319 20.2712V20.3477L28.9331 20.5485C28.9331 20.3062 28.8856 20.1086 28.7905 19.9556C28.7017 19.8026 28.5558 19.7261 28.3529 19.7261C28.2324 19.7261 28.1341 19.7516 28.058 19.8026C27.9819 19.8536 27.9217 19.9206 27.8773 20.0034C27.8393 20.0799 27.8107 20.166 27.7917 20.2616C27.779 20.3509 27.7727 20.4369 27.7727 20.5198V23.8954C27.7727 23.9655 27.7822 24.0324 27.8012 24.0962C27.8202 24.2109 27.8646 24.3161 27.9344 24.4117C28.0105 24.5073 28.1405 24.5552 28.3244 24.5552C28.5083 24.5552 28.6541 24.5073 28.7619 24.4117C28.8761 24.3161 28.9331 24.1854 28.9331 24.0197V22.7096H28.3244V21.8107H29.9509V23.9336C29.9509 24.4563 29.8019 24.8516 29.5039 25.1193C29.2122 25.3871 28.8285 25.521 28.3529 25.521Z" fill="white"/>
<path d="M30.8428 25.4636V18.8081H31.8796V25.4636H30.8428Z" fill="white"/>
</g>
</svg>
