<svg width="97" height="32" viewBox="0 0 97 32" fill="none" xmlns="http://www.w3.org/2000/svg">
<g id="Frame 40822">
<g id="Group 39371">
<g id="Group 39370">
<g id="Group 39369">
<path id="Vector" d="M96.4808 6.10336C96.4808 6.16538 96.4291 6.20672 96.3774 6.20672H96.1498C95.7775 6.20672 95.4672 6.50647 95.4672 6.88891C95.4672 6.95093 95.1776 6.99227 95.1155 6.99227C95.0534 6.99227 95.0121 6.94059 95.0121 6.88891C95.0121 6.51681 94.7121 6.20672 94.3294 6.20672H94.1122C94.0502 6.20672 94.0088 6.15504 94.0088 6.10336C94.0088 6.05168 94.0605 6 94.1122 6H94.3294H95.1155H96.1498H96.367C96.4291 6 96.4808 6.04134 96.4808 6.10336Z" fill="white"/>
<g id="Group">
<path id="Vector_2" d="M49.7883 6.10483C49.7883 6.16684 49.7365 6.20819 49.6848 6.20819C48.5882 6.20819 47.2951 7.10744 46.8192 8.21341L42.5674 18.0741H44.1088C45.9916 18.0741 47.5227 16.5444 47.5227 14.6632C47.5227 14.6012 47.5744 14.5598 47.6261 14.5598C47.6779 14.5598 47.7296 14.6115 47.7296 14.6632V18.1775C47.7296 18.2395 47.6779 18.2808 47.6261 18.2808H42.257H41.5225H39.7535H37.6845C37.6224 18.2808 37.5811 18.2291 37.5811 18.1775C37.5811 18.1155 37.6328 18.0741 37.6845 18.0741C38.7914 18.0741 40.0742 17.1749 40.5501 16.0689L43.995 8.13072C44.5123 6.95239 45.8985 6.00146 47.0779 6.00146H49.6745C49.7469 6.00146 49.7883 6.04281 49.7883 6.10483ZM39.6397 9.61912V6.10483C39.6397 6.04281 39.6915 6.00146 39.7432 6.00146H43.2605C43.3226 6.00146 43.364 6.05315 43.364 6.10483C43.364 6.16684 43.3122 6.20819 43.2605 6.20819C41.3777 6.20819 39.8466 7.73794 39.8466 9.61912C39.8466 9.68114 39.7949 9.72248 39.7432 9.72248C39.6915 9.72248 39.6397 9.68114 39.6397 9.61912Z" fill="white"/>
<path id="Vector_3" d="M55.3635 7.2809L51.5462 17.4413C51.4738 17.6274 51.4841 17.7928 51.5669 17.9168C51.6393 18.0202 51.7738 18.0822 51.9393 18.0822H52.1565C52.2186 18.0822 52.26 18.1339 52.26 18.1856C52.26 18.2372 52.2083 18.2889 52.1565 18.2889H51.9393H50.9048H50.1186H49.9013C49.8392 18.2889 49.7979 18.2372 49.7979 18.1856C49.7979 18.1339 49.8496 18.0822 49.9013 18.0822H50.1186C50.5117 18.0822 50.9565 17.7618 51.1013 17.369L54.9187 7.21888C54.9394 7.1672 55.2497 7.13619 55.3015 7.15687C55.3635 7.15687 55.3842 7.21888 55.3635 7.2809Z" fill="white"/>
<path id="Vector_4" d="M61.6547 18.176C61.6547 18.238 61.603 18.2794 61.5513 18.2794H61.334H60.5478H58.0649H57.2786H57.051C56.989 18.2794 56.9476 18.2277 56.9476 18.176C56.9476 18.1243 56.9993 18.0726 57.051 18.0726H57.2683C57.4338 18.0726 57.5683 18.0106 57.6511 17.8969C57.7442 17.7729 57.7545 17.6075 57.6925 17.4215L56.7303 14.486H52.5198C52.4577 14.486 52.4163 14.1966 52.4163 14.1346C52.4163 14.0725 52.468 14.0312 52.5198 14.0312H56.5752L54.682 8.20161C54.3199 7.10597 53.1405 6.20672 52.0439 6.20672C51.9818 6.20672 51.9404 6.15504 51.9404 6.10336C51.9404 6.04134 51.9922 6 52.0439 6H54.5268C55.6958 6 56.9683 6.95093 57.3614 8.11891L60.3823 17.3594C60.5064 17.7522 60.9306 18.0726 61.3237 18.0726H61.5409C61.603 18.0726 61.6547 18.1243 61.6547 18.176Z" fill="white"/>
<path id="Vector_5" d="M74.3351 6.98178L70.8489 16.3051V16.3154C70.8489 16.3154 70.8489 16.3154 70.8489 16.3257L70.1351 18.2276C70.1144 18.269 70.073 18.3 70.0316 18.3C70.0316 18.3 70.7144 18.3 70.9627 18.3H69.742C68.3247 18.3 68.273 17.349 67.8799 16.181L65.2834 8.21179C64.9213 7.11615 63.742 6.22723 62.6454 6.22723C62.5834 6.22723 62.542 6.17555 62.542 6.12387C62.542 6.07219 62.5937 6.02051 62.6454 6.02051H65.1282C66.3075 6.02051 67.5799 6.97144 67.973 8.14977L67.9834 8.16011L70.5282 15.9743L73.9109 6.94043C73.9316 6.88875 74.2419 6.85774 74.2937 6.87841C74.3247 6.86808 74.3557 6.9301 74.3351 6.98178Z" fill="white"/>
<path id="Vector_6" d="M65.7679 18.175C65.7679 18.237 65.7162 18.2784 65.6645 18.2784H65.4472H64.6609H63.6264H63.4091C63.347 18.2784 63.3057 18.2267 63.3057 18.175C63.3057 18.1233 63.3574 18.0716 63.4091 18.0716H63.6264C63.9988 18.0716 64.3092 17.7719 64.3092 17.3894V6.54672C64.3092 6.4847 64.5989 6.44336 64.6609 6.44336C64.723 6.44336 64.7644 6.49504 64.7644 6.54672V17.3894C64.7644 17.7615 65.0644 18.0716 65.4472 18.0716H65.6645C65.7162 18.0716 65.7679 18.1233 65.7679 18.175Z" fill="white"/>
<path id="Vector_7" d="M77.4068 18.176C77.4068 18.238 77.3551 18.2794 77.3034 18.2794H77.0861H76.3H74.0035H73.2173H72.9794C72.9174 18.2794 72.876 18.2277 72.876 18.176C72.876 18.1243 72.9277 18.0726 72.9794 18.0726H73.1967C73.5691 18.0726 73.8794 17.7729 73.8794 17.3905V6.10336C73.8794 6.04134 73.9311 6 73.9828 6H77.0655H77.2827C77.3448 6 77.3861 6.05168 77.3861 6.10336C77.3861 6.15504 77.3344 6.20672 77.2827 6.20672H77.0655C76.6931 6.20672 76.3827 6.50647 76.3827 6.88891V17.3905C76.3827 17.7626 76.6827 18.0726 77.0655 18.0726H77.2827C77.3551 18.0726 77.4068 18.1243 77.4068 18.176Z" fill="white"/>
<path id="Vector_8" d="M83.3256 18.176C83.3256 18.238 83.2739 18.2794 83.2221 18.2794H83.0049H79.1361H78.9189C78.8568 18.2794 78.8154 18.2277 78.8154 18.176C78.8154 18.1243 78.8672 18.0726 78.9189 18.0726H79.1361C79.5085 18.0726 79.8188 17.7729 79.8188 17.3905V6.88891C79.8188 6.51681 79.5188 6.20672 79.1361 6.20672H78.9189C78.8568 6.20672 78.8154 6.15504 78.8154 6.10336C78.8154 6.05168 78.8672 6 78.9189 6H79.1361H79.9223H82.2187H83.0049H83.2221C83.2842 6 83.3256 6.05168 83.3256 6.10336C83.3256 6.15504 83.2739 6.20672 83.2221 6.20672H83.0049C82.6325 6.20672 82.3222 6.50647 82.3222 6.88891V17.3905C82.3222 17.7626 82.6222 18.0726 83.0049 18.0726H83.2221C83.2739 18.0726 83.3256 18.1243 83.3256 18.176Z" fill="white"/>
<path id="Vector_9" d="M95.48 6.49614V18.176C95.48 18.238 95.1904 18.2794 95.1283 18.2794H94.5801C93.4008 18.2794 92.025 17.3181 91.5181 16.1501L88.0734 8.21194C87.5975 7.10597 86.3045 6.20672 85.2079 6.20672C85.1459 6.20672 85.1045 6.15504 85.1045 6.10336C85.1045 6.04134 85.1562 6 85.2079 6H87.8044C88.9837 6 90.3698 6.95093 90.8871 8.12925L94.3318 16.0674C94.487 16.4189 94.7249 16.7599 95.0249 17.0597V6.49614C95.0249 6.43412 95.0766 6.39278 95.1283 6.39278C95.18 6.39278 95.48 6.43412 95.48 6.49614Z" fill="white"/>
<path id="Vector_10" d="M88.623 18.1762C88.623 18.2382 88.5713 18.2796 88.5195 18.2796H88.292H87.5058H86.4818H86.2646C86.2025 18.2796 86.1611 18.2279 86.1611 18.1762C86.1611 18.1142 86.2129 18.0728 86.2646 18.0728H86.4818C86.8335 18.0728 87.1231 17.8041 87.1541 17.463V6.88901C87.1541 6.82699 87.4438 6.78564 87.5058 6.78564C87.5679 6.78564 87.6093 6.83733 87.6093 6.88901V17.37C87.6093 17.3803 87.6093 17.3906 87.6093 17.3906C87.6093 17.7627 87.9093 18.0728 88.292 18.0728H88.5092C88.5713 18.0728 88.623 18.1245 88.623 18.1762Z" fill="white"/>
<g id="Group_2">
<path id="Vector_11" d="M49.4463 23.2806V23.5286H48.66V26.4435H48.3911V23.5286H48.1221V23.2806H48.3911V22.557C48.3911 22.0712 48.7221 21.8335 49.3843 21.8335H49.5808V22.0816H49.3843C48.898 22.0816 48.66 22.2366 48.66 22.5674V23.2909H49.4463V23.2806Z" fill="white"/>
<path id="Vector_12" d="M53.4712 25.7933C53.4712 26.2791 53.1402 26.5168 52.4783 26.5168C51.8163 26.5168 51.4854 26.2688 51.4854 25.7933V23.9432C51.4854 23.4574 51.8163 23.2197 52.4783 23.2197C53.1402 23.2197 53.4712 23.4678 53.4712 23.9432V25.7933ZM53.2023 23.9432C53.2023 23.6228 52.954 23.4574 52.4783 23.4574C52.0025 23.4574 51.7543 23.6125 51.7543 23.9432V25.7933C51.7543 26.1137 52.0025 26.2791 52.4783 26.2791C52.954 26.2791 53.2023 26.1241 53.2023 25.7933V23.9432Z" fill="white"/>
<path id="Vector_13" d="M57.3292 23.2808H57.5981V26.4437H57.3603L57.3292 26.3403C57.112 26.454 56.8224 26.5057 56.4708 26.5057C55.9743 26.5057 55.6123 26.2783 55.6123 25.7821V23.2808H55.8812V25.7821C55.8812 26.1026 56.1294 26.268 56.6052 26.268C56.8741 26.268 57.1431 26.2163 57.2465 26.1853L57.3292 26.1543V23.2808Z" fill="white"/>
<path id="Vector_14" d="M60.0994 26.4447H59.8408V23.2817H60.0684L60.0994 23.3851C60.3167 23.2714 60.6063 23.2197 60.9581 23.2197C61.4546 23.2197 61.8167 23.4471 61.8167 23.9433V26.4447H61.5477V23.9433C61.5477 23.6229 61.2994 23.4575 60.8236 23.4575C60.5546 23.4575 60.2857 23.5091 60.1822 23.5402L60.0994 23.5712V26.4447Z" fill="white"/>
<path id="Vector_15" d="M65.6786 21.8335H65.9476V26.4432H65.72L65.6889 26.3399C65.4717 26.4536 65.182 26.5053 64.8303 26.5053C64.3338 26.5053 63.9717 26.2779 63.9717 25.7818V23.9317C63.9717 23.4355 64.3234 23.2082 64.8303 23.2082C65.151 23.2082 65.4613 23.2702 65.5958 23.3218L65.6889 23.3632V21.8335H65.6786ZM65.6786 26.1538V23.5802C65.5027 23.4976 65.2648 23.4665 64.9544 23.4665C64.4682 23.4665 64.2303 23.6216 64.2303 23.9523V25.8024C64.2303 26.1228 64.4786 26.2882 64.9544 26.2882C65.2234 26.2882 65.4924 26.2365 65.5958 26.2055L65.6786 26.1538Z" fill="white"/>
<path id="Vector_16" d="M69.8567 23.2804H70.0843V26.4434H69.8567L69.8257 26.34C69.6084 26.4537 69.3188 26.5054 68.967 26.5054C68.4705 26.5054 68.1084 26.278 68.1084 25.7819V23.9316C68.1084 23.4354 68.4601 23.208 68.967 23.208C69.2877 23.208 69.5981 23.27 69.7326 23.3217L69.8257 23.3631L69.8567 23.2804ZM69.8257 26.154V23.5801C69.6498 23.4974 69.4119 23.4664 69.1015 23.4664C68.6153 23.4664 68.3774 23.6215 68.3774 23.9523V25.8025C68.3774 26.123 68.6256 26.2884 69.1015 26.2884C69.3705 26.2884 69.6394 26.2367 69.7429 26.2057L69.8257 26.154Z" fill="white"/>
<path id="Vector_17" d="M73.487 23.5286H72.7009V25.7199C72.7009 26.0403 72.9492 26.2057 73.425 26.2057H73.6215V26.4538H73.425C72.763 26.4538 72.432 26.2057 72.432 25.7302V23.5389H72.1631V23.2908H72.432V22.7017L72.5975 22.6396H72.7009V23.3012H73.487V23.5286Z" fill="white"/>
<path id="Vector_18" d="M75.6611 21.8335H75.9197V22.8877H75.6611V21.8335ZM75.6611 26.4431V23.2805H75.9197V26.4431H75.6611Z" fill="white"/>
<path id="Vector_19" d="M80.0866 25.7933C80.0866 26.2791 79.7556 26.5168 79.0936 26.5168C78.4316 26.5168 78.1006 26.2688 78.1006 25.7933V23.9432C78.1006 23.4574 78.4316 23.2197 79.0936 23.2197C79.7556 23.2197 80.0866 23.4678 80.0866 23.9432V25.7933ZM79.8177 23.9432C79.8177 23.6228 79.5694 23.4574 79.0936 23.4574C78.6074 23.4574 78.3695 23.6125 78.3695 23.9432V25.7933C78.3695 26.1137 78.6178 26.2791 79.0936 26.2791C79.5798 26.2791 79.8177 26.1241 79.8177 25.7933V23.9432Z" fill="white"/>
<path id="Vector_20" d="M82.5291 26.4447H82.2705V23.2817H82.4981L82.5291 23.3851C82.7464 23.2714 83.036 23.2197 83.3878 23.2197C83.8843 23.2197 84.2464 23.4471 84.2464 23.9433V26.4447H83.9774V23.9433C83.9774 23.6229 83.7291 23.4575 83.2533 23.4575C82.9843 23.4575 82.7153 23.5091 82.6119 23.5402L82.5291 23.5712V26.4447Z" fill="white"/>
</g>
</g>
</g>
<g id="Group_3">
<g id="Group_4">
<path id="Vector_21" d="M16.3539 16.5176C16.7118 16.5176 17.0018 16.2277 17.0018 15.8701C17.0018 15.5125 16.7118 15.2227 16.3539 15.2227C15.9961 15.2227 15.7061 15.5125 15.7061 15.8701C15.7061 16.2277 15.9961 16.5176 16.3539 16.5176Z" fill="#00B2B3"/>
<path id="Vector_22" fill-rule="evenodd" clip-rule="evenodd" d="M14.7551 17.4718C14.9256 17.1651 15.9031 16.688 15.9031 16.688C15.9031 16.688 16.0168 17.7785 15.8463 18.0738C15.6758 18.3692 14.6982 18.8576 14.6982 18.8576C14.6982 18.8576 14.5846 17.7785 14.7551 17.4718Z" fill="#00B2B3"/>
<path id="Vector_23" fill-rule="evenodd" clip-rule="evenodd" d="M16.9468 18.0622C16.7649 17.7668 16.8445 16.6763 16.8445 16.6763C16.8445 16.6763 17.8447 17.1193 18.0266 17.426C18.2085 17.7214 18.1289 18.8119 18.1289 18.8119C18.1289 18.8119 17.1286 18.3575 16.9468 18.0622Z" fill="#00B2B3"/>
<path id="Vector_24" fill-rule="evenodd" clip-rule="evenodd" d="M18.5599 16.4499C18.2189 16.4613 17.3096 15.8478 17.3096 15.8478C17.3096 15.8478 18.1962 15.2117 18.5485 15.2004C18.9009 15.189 19.7988 15.8024 19.7988 15.8024C19.7988 15.8024 18.9122 16.4499 18.5599 16.4499Z" fill="#00B2B3"/>
<path id="Vector_25" fill-rule="evenodd" clip-rule="evenodd" d="M17.9692 14.2569C17.7987 14.5636 16.8213 15.0407 16.8213 15.0407C16.8213 15.0407 16.7076 13.9502 16.8781 13.6549C17.0486 13.3595 18.0261 12.8711 18.0261 12.8711C18.0261 12.8711 18.1397 13.9502 17.9692 14.2569Z" fill="#00B2B3"/>
<path id="Vector_26" fill-rule="evenodd" clip-rule="evenodd" d="M15.7629 13.6662C15.9448 13.9615 15.8652 15.052 15.8652 15.052C15.8652 15.052 14.865 14.609 14.6831 14.3023C14.5012 14.007 14.5808 12.9165 14.5808 12.9165C14.5808 12.9165 15.5924 13.3709 15.7629 13.6662Z" fill="#00B2B3"/>
<path id="Vector_27" fill-rule="evenodd" clip-rule="evenodd" d="M14.1618 15.279C14.5028 15.2676 15.4121 15.881 15.4121 15.881C15.4121 15.881 14.5255 16.5172 14.1732 16.5285C13.8208 16.5399 12.9229 15.9265 12.9229 15.9265C12.9229 15.9265 13.8094 15.279 14.1618 15.279Z" fill="#00B2B3"/>
</g>
<path id="Vector_28" d="M2.63914 19.7089V23.9915L6.35601 26.1384L8.50429 29.853H12.7895L16.5064 32L20.2232 29.853H24.497L26.6453 26.1384L30.3622 23.9915V19.7089L32.5105 15.9943L30.3622 12.2797V7.99716L26.6453 5.8502L24.497 2.14697H20.2119L16.495 0L12.7781 2.14697H8.49292L6.34464 5.86156L2.62777 8.00852V12.2911L0.479492 16.0057L2.63914 19.7089ZM3.83263 19.8793H7.46993L9.10672 17.0394L12.1302 18.7888V21.606H8.49292L6.58334 24.9002L3.82126 23.3099V19.8793H3.83263ZM13.3237 14.0177V10.4508L16.495 12.2797L19.6663 10.4508V14.0177L22.667 15.7444L19.6663 17.4711V21.2765L16.495 19.4476L13.3237 21.2765V18.0731L9.80008 16.0398L13.3237 14.0177ZM7.49266 25.7295L9.18628 22.7987H12.1871L14.0966 26.093L12.619 28.6603H9.19765L7.49266 25.7295ZM13.767 29.0351L15.472 26.093L13.4487 22.5942L16.495 20.8335L19.2798 22.4466L17.5293 25.4796L19.4958 28.8875L16.495 30.6141L13.767 29.0351ZM23.8151 28.6603H20.7461L18.9161 25.4909L20.4733 22.7987H23.8151L25.5087 25.7295L23.8151 28.6603ZM26.4066 24.9002L24.497 21.606H20.8597V18.1754L23.6218 16.585L25.5314 19.8793H29.1687V23.3099L26.4066 24.9002ZM31.1238 15.9943L29.5665 18.6865H26.2134L24.5198 15.7558L26.2134 12.825H29.2824L31.1238 15.9943ZM29.1687 11.6322H25.5314L23.6218 14.9265L20.8597 13.3362V10.1441H24.497L26.293 7.03159L29.1573 8.6901V11.6322H29.1687ZM25.4291 6.14555L23.8151 8.95137H20.5983L18.9047 6.02059L20.4619 3.32836H23.8151L25.4291 6.14555ZM19.2798 2.98758L17.5293 6.02059L19.3935 9.23536L16.495 10.9052L13.5965 9.23536L15.4606 6.02059L13.7102 2.98758L16.495 1.37451L19.2798 2.98758ZM9.18628 3.33972H12.5394L14.0966 6.03195L12.403 8.96273H9.18628L7.56086 6.14555L9.18628 3.33972ZM6.697 7.03159L8.49292 10.1441H12.1302V13.3362L9.10672 15.0856L7.46993 12.2457H3.83263V8.6901L6.697 7.03159ZM3.35523 13.427H6.77657L8.29969 16.0511L6.77657 18.6752H3.42343L1.86621 15.983L3.35523 13.427Z" fill="#00B2B3"/>
</g>
</g>
</g>
</g>
</svg>
